<?xml version="1.0" encoding="utf-8"?>
<!-- Generator: Adobe Illustrator 27.8.1, SVG Export Plug-In . SVG Version: 6.00 Build 0)  -->
<svg version="1.1" id="Layer_1" xmlns="http://www.w3.org/2000/svg" xmlns:xlink="http://www.w3.org/1999/xlink" x="0px" y="0px"
	 viewBox="0 0 116.5 36.1" style="enable-background:new 0 0 116.5 36.1;" xml:space="preserve">
<style type="text/css">
	.st0{display:none;}
	.st1{display:inline;}
	.st2{fill:#1E2E44;}
	.st3{fill:#08203A;}
	.st4{clip-path:url(#SVGID_00000118379225160717366440000004844626165408574866_);}
	.st5{clip-path:url(#SVGID_00000116928520751498377340000011783384830067899308_);fill:#9A1F24;}
	.st6{clip-path:url(#SVGID_00000116928520751498377340000011783384830067899308_);fill:#282828;}
</style>
<g id="Navy" class="st0">
	<g class="st1">
		<g>
			<path class="st2" d="M55.3,26.4c-2.7,0-4.8,2.2-4.8,4.9s2.2,4.9,4.8,4.9s4.8-2.2,4.8-4.9C60.2,28.6,58,26.4,55.3,26.4z
				 M55.3,32.7c-0.8,0-1.4-0.6-1.4-1.4s0.6-1.4,1.4-1.4s1.4,0.6,1.4,1.4C56.7,32.1,56.1,32.7,55.3,32.7L55.3,32.7z"/>
			<path class="st2" d="M65,17.8L55.7,6.7c-0.2-0.3-0.5-0.4-0.9-0.4h-8.4c-0.6,0-1.1,0.5-1.1,1.1v22.2c0,0.6,0.5,1.1,1.1,1.1h1.2
				c0.6,0,1.1-0.4,1.1-1c0.5-3.4,3.2-5.6,6.5-5.6s6,2.1,6.5,5.6c0.1,0.6,0.6,1,1.1,1H64c0.6,0,1.1-0.5,1.1-1.1V18.5
				C65.3,18.3,65.2,18,65,17.8z M58.5,16.5h-9.8c-0.6,0-1.1-0.5-1.1-1.1V9.7c0-0.6,0.5-1.1,1.1-1.1h5c0.3,0,0.7,0.1,0.9,0.4l4.8,5.7
				C60,15.4,59.5,16.5,58.5,16.5z"/>
			<path class="st2" d="M21.4,26.4c-2.7,0-4.9,2.2-4.9,4.9s2.2,4.9,4.9,4.9s4.9-2.2,4.9-4.9C26.2,28.6,24,26.4,21.4,26.4z
				 M21.4,32.7c-0.8,0-1.4-0.6-1.4-1.4s0.6-1.4,1.4-1.4s1.4,0.6,1.4,1.4C22.8,32.1,22.2,32.7,21.4,32.7z"/>
			<g>
				<path class="st2" d="M26.2,6.8c-3.2,0-5.8,2.6-5.8,5.8s2.6,5.8,5.8,5.8c1.1,0,2.2-0.3,3.1-0.9l-2.5-2.6
					c-0.4,0.2-0.9,0.3-1.4,0.3c-0.9,0-1.8-0.4-2.5-1C22,13.3,21.7,12,22,10.8c0-0.2,0.2-0.3,0.4-0.3c0.1,0,0.2,0,0.3,0.1
					c0,0,1.2,1.2,1.6,1.6c0.1,0.1,0.1,0.1,0.2,0.1l0,0l0,0l0,0c0.5,0,1-0.1,1.2-0.2l0,0l0,0c0.1-0.2,0.1-0.8,0.2-1.2l0,0
					c0,0,0-0.1,0-0.2C25.5,10.3,24.2,9,24.2,9c-0.1-0.1-0.1-0.2-0.1-0.4c0-0.1,0.1-0.2,0.3-0.3c0.3-0.1,0.6-0.1,0.9-0.1
					c0.9,0,1.8,0.4,2.5,1s1,1.6,1,2.5c0,0.5-0.1,0.9-0.3,1.4l2.5,2.5c0.5-0.9,0.8-1.9,0.8-2.9C32,9.4,29.4,6.8,26.2,6.8z"/>
				<path class="st2" d="M43.3,0H10.8c-0.6,0-1.1,0.5-1.1,1.1v28.5c0,0.6,0.5,1.1,1.1,1.1h2.9c0.6,0,1.1-0.4,1.1-1
					c0.4-3.4,3.2-5.6,6.5-5.6s6,2.1,6.5,5.6c0.1,0.6,0.6,1,1.1,1h14.3c0.6,0,1.1-0.5,1.1-1.1V1.1C44.5,0.5,44,0,43.3,0z M36.2,13.7
					c0,0.3-0.3,0.5-0.6,0.5h-0.1c-0.9,0-1.7,0.6-2,1.4c-0.4,0.9-0.1,1.9,0.6,2.5c0.2,0.2,0.2,0.5,0.1,0.8c-0.5,0.6-1,1.1-1.6,1.6
					c-0.2,0.2-0.6,0.1-0.8-0.1c-0.6-0.6-1.7-0.9-2.5-0.6c-0.9,0.4-1.4,1.2-1.4,2.1c0,0.3-0.2,0.5-0.5,0.6c-0.4,0-0.7,0.1-1.1,0.1
					s-0.8,0-1.1-0.1c-0.3,0-0.5-0.3-0.5-0.6c0-0.9-0.5-1.8-1.4-2.2c-0.8-0.4-1.9-0.1-2.5,0.6c-0.2,0.2-0.5,0.2-0.8,0.1
					c-0.6-0.5-1.1-1-1.6-1.6c-0.2-0.2-0.1-0.6,0.1-0.8c0.7-0.6,0.9-1.6,0.6-2.5c-0.4-0.9-1.2-1.4-2.1-1.4c-0.3,0-0.6-0.2-0.7-0.5
					c-0.1-0.8-0.1-1.5,0-2.3c0-0.3,0.3-0.5,0.6-0.5c1,0,1.8-0.5,2.2-1.4c0.4-0.9,0.1-1.9-0.6-2.5c-0.2-0.2-0.2-0.5-0.1-0.8
					c0.5-0.6,1-1.1,1.6-1.6c0.2-0.2,0.6-0.2,0.8,0.1c0.6,0.7,1.7,0.9,2.5,0.6c0.9-0.3,1.4-1.2,1.4-2.1c0-0.3,0.2-0.5,0.5-0.6
					c0.8-0.1,1.5-0.1,2.2,0c0.3,0,0.5,0.3,0.5,0.6c-0.1,0.9,0.5,1.8,1.3,2.2c0.8,0.3,1.9,0.1,2.5-0.6c0.2-0.2,0.5-0.2,0.8-0.1
					c0.6,0.5,1.1,1,1.6,1.6C34.3,6.4,34.3,6.8,34,7c-0.7,0.6-0.9,1.6-0.6,2.5c0.3,0.8,1.2,1.4,2.1,1.4c0.3,0,0.6,0.2,0.6,0.5
					C36.3,12.2,36.3,12.9,36.2,13.7z"/>
			</g>
		</g>
	</g>
	<g class="st1">
		<path class="st2" d="M103.2-3.5v18.1h-3V2.2l-5.5,12.4h-2.1L87.1,2.2v12.4h-3V-3.5h3.2l6.3,14.2L100-3.5H103.2z"/>
		<path class="st2" d="M109.6,13.9c-1.1-0.6-1.9-1.5-2.6-2.6s-0.9-2.4-0.9-3.9s0.3-2.8,1-3.9c0.6-1.1,1.5-2,2.6-2.6S112,0,113.4,0
			s2.6,0.3,3.7,0.9s2,1.5,2.6,2.6s1,2.4,1,3.9s-0.3,2.8-1,3.9s-1.6,2-2.7,2.6c-1.1,0.6-2.4,0.9-3.8,0.9
			C111.9,14.8,110.7,14.5,109.6,13.9z M115.4,11.7c0.7-0.4,1.2-0.9,1.6-1.6s0.6-1.6,0.6-2.7s-0.2-1.9-0.6-2.6s-0.9-1.3-1.6-1.6
			c-0.7-0.4-1.4-0.5-2.1-0.5s-1.5,0.2-2.1,0.5c-0.7,0.4-1.2,0.9-1.6,1.6S109,6.4,109,7.4c0,1.5,0.4,2.7,1.2,3.6s1.8,1.3,3,1.3
			C114,12.2,114.8,12,115.4,11.7z"/>
		<path class="st2" d="M128.7,0.6c0.9-0.4,1.9-0.7,2.9-0.7c1.3,0,2.4,0.3,3.4,0.9s1.8,1.5,2.4,2.6s0.9,2.4,0.9,3.8s-0.3,2.7-0.9,3.9
			c-0.6,1.1-1.4,2-2.4,2.7s-2.2,0.9-3.4,0.9c-1.1,0-2.1-0.2-2.9-0.6s-1.5-1-2-1.7v2.1h-3V-4.7h3v7.1C127.1,1.7,127.8,1.1,128.7,0.6z
			 M134.7,4.8c-0.4-0.7-0.9-1.3-1.6-1.6s-1.4-0.6-2.1-0.6c-0.8,0-1.4,0.2-2.1,0.6s-1.2,0.9-1.6,1.7c-0.4,0.7-0.6,1.6-0.6,2.6
			s0.2,1.9,0.6,2.6s0.9,1.3,1.6,1.7s1.4,0.6,2.1,0.6c0.8,0,1.5-0.2,2.1-0.6c0.7-0.4,1.2-1,1.6-1.7c0.4-0.8,0.6-1.6,0.6-2.6
			S135.1,5.5,134.7,4.8z"/>
		<path class="st2" d="M141.4-2.2c-0.4-0.4-0.6-0.8-0.6-1.4s0.2-1,0.6-1.3c0.4-0.4,0.8-0.6,1.4-0.6c0.5,0,1,0.2,1.3,0.6
			c0.4,0.4,0.6,0.8,0.6,1.3s-0.2,1-0.6,1.3c-0.4,0.4-0.8,0.5-1.3,0.5C142.2-1.7,141.8-1.9,141.4-2.2z M144.2,0.2v14.3h-3V0.2H144.2z
			"/>
		<path class="st2" d="M151.1-4.7v19.2h-3V-4.7H151.1z"/>
		<path class="st2" d="M168,8.5h-10.9c0.1,1.1,0.5,2.1,1.3,2.8s1.7,1,2.8,1c1.6,0,2.7-0.7,3.4-2h3.2c-0.4,1.3-1.2,2.4-2.4,3.2
			c-1.1,0.8-2.5,1.3-4.2,1.3c-1.4,0-2.6-0.3-3.7-0.9c-1.1-0.6-1.9-1.5-2.6-2.6S154,8.9,154,7.4s0.3-2.8,0.9-3.9
			c0.6-1.1,1.4-2,2.5-2.6s2.3-0.9,3.7-0.9s2.6,0.3,3.6,0.9c1.1,0.6,1.9,1.4,2.5,2.5s0.9,2.3,0.9,3.7C168.1,7.6,168.1,8.1,168,8.5z
			 M165.1,6.1c0-1.1-0.4-2-1.2-2.6s-1.7-1-2.8-1c-1,0-1.9,0.3-2.6,1c-0.7,0.6-1.2,1.5-1.3,2.6H165.1z"/>
		<path class="st2" d="M82.7,39.3c-1-0.4-1.7-1-2.3-1.8c-0.6-0.8-0.8-1.7-0.8-2.7h3.2c0.1,0.8,0.4,1.4,0.9,1.9
			c0.6,0.5,1.3,0.8,2.3,0.8s1.8-0.2,2.4-0.7s0.9-1.1,0.9-1.9c0-0.6-0.2-1.1-0.5-1.5c-0.4-0.4-0.8-0.7-1.3-0.9s-1.3-0.4-2.2-0.7
			c-1.2-0.3-2.1-0.6-2.9-1c-0.7-0.3-1.4-0.8-1.9-1.5s-0.8-1.6-0.8-2.7c0-1,0.3-2,0.8-2.7s1.2-1.4,2.2-1.8c0.9-0.4,2-0.6,3.2-0.6
			c1.8,0,3.2,0.4,4.3,1.3c1.1,0.9,1.7,2.1,1.9,3.6h-3.3c-0.1-0.7-0.4-1.2-0.9-1.7c-0.6-0.5-1.3-0.7-2.3-0.7c-0.8,0-1.5,0.2-2.1,0.6
			s-0.8,1.1-0.8,1.9c0,0.5,0.2,1,0.5,1.4s0.8,0.6,1.3,0.8c0.5,0.2,1.2,0.4,2.1,0.7c1.2,0.3,2.2,0.7,2.9,1s1.4,0.8,1.9,1.5
			c0.5,0.7,0.8,1.6,0.8,2.7c0,0.9-0.2,1.8-0.7,2.6s-1.2,1.5-2.2,2c-0.9,0.5-2.1,0.7-3.3,0.7C84.7,39.9,83.6,39.7,82.7,39.3z"/>
		<path class="st2" d="M108.7,33.7h-11c0.1,1.1,0.5,2.1,1.3,2.8s1.7,1,2.8,1c1.6,0,2.7-0.7,3.4-2h3.2c-0.4,1.3-1.2,2.4-2.3,3.2
			c-1.1,0.8-2.5,1.3-4.2,1.3c-1.4,0-2.6-0.3-3.7-0.9c-1.1-0.6-1.9-1.5-2.6-2.6s-0.9-2.4-0.9-3.9s0.3-2.8,0.9-3.9s1.4-2,2.5-2.6
			s2.3-0.9,3.7-0.9c1.3,0,2.6,0.3,3.6,0.9c1.1,0.6,1.9,1.4,2.5,2.5s0.9,2.3,0.9,3.7C108.8,32.8,108.8,33.2,108.7,33.7z M105.7,31.3
			c0-1.1-0.4-2-1.2-2.6c-0.8-0.7-1.7-1-2.8-1c-1,0-1.9,0.3-2.6,1c-0.7,0.6-1.2,1.5-1.3,2.6C97.8,31.3,105.7,31.3,105.7,31.3z"/>
		<path class="st2" d="M116.4,25.8c0.7-0.4,1.6-0.6,2.6-0.6v3.1h-0.8c-1.2,0-2,0.3-2.6,0.9s-0.9,1.6-0.9,3.1v7.5h-3V25.4h3v2.1
			C115.1,26.8,115.7,26.2,116.4,25.8z"/>
		<path class="st2" d="M127.3,37.1l4.1-11.7h3.1L129,39.8h-3.5L120,25.4h3.2L127.3,37.1z"/>
		<path class="st2" d="M136.9,23c-0.4-0.4-0.6-0.8-0.6-1.4s0.2-1,0.6-1.4c0.4-0.4,0.8-0.5,1.4-0.5c0.5,0,1,0.2,1.3,0.5
			c0.4,0.4,0.6,0.8,0.6,1.4s-0.2,1-0.6,1.4c-0.4,0.4-0.8,0.5-1.3,0.5C137.7,23.5,137.2,23.3,136.9,23z M139.7,25.4v14.3h-3V25.4
			H139.7z"/>
		<path class="st2" d="M143.5,28.7c0.6-1.1,1.4-2,2.5-2.6s2.3-0.9,3.6-0.9c1.7,0,3.2,0.4,4.3,1.2s1.9,2,2.3,3.5H153
			c-0.3-0.7-0.7-1.3-1.2-1.7c-0.6-0.4-1.3-0.6-2.2-0.6c-1.2,0-2.2,0.4-2.9,1.3s-1.1,2.1-1.1,3.6s0.4,2.8,1.1,3.6
			c0.7,0.9,1.7,1.3,2.9,1.3c1.7,0,2.9-0.8,3.4-2.3h3.2c-0.4,1.5-1.2,2.6-2.3,3.5s-2.6,1.3-4.3,1.3c-1.4,0-2.6-0.3-3.6-0.9
			c-1.1-0.6-1.9-1.5-2.5-2.6s-0.9-2.4-0.9-3.9S142.9,29.8,143.5,28.7z"/>
		<path class="st2" d="M172.2,33.7h-10.9c0.1,1.1,0.5,2.1,1.3,2.8s1.7,1,2.8,1c1.6,0,2.7-0.7,3.4-2h3.2c-0.4,1.3-1.2,2.4-2.4,3.2
			c-1.1,0.8-2.5,1.3-4.2,1.3c-1.4,0-2.6-0.3-3.7-0.9c-1.1-0.6-1.9-1.5-2.6-2.6s-0.9-2.4-0.9-3.9s0.3-2.8,0.9-3.9
			c0.6-1.1,1.4-2,2.5-2.6s2.3-0.9,3.7-0.9s2.6,0.3,3.6,0.9c1.1,0.6,1.9,1.4,2.5,2.5s0.9,2.3,0.9,3.7
			C172.3,32.8,172.2,33.2,172.2,33.7z M169.2,31.3c0-1.1-0.4-2-1.2-2.6s-1.7-1-2.8-1c-1,0-1.9,0.3-2.6,1c-0.7,0.6-1.2,1.5-1.3,2.6
			C161.3,31.3,169.2,31.3,169.2,31.3z"/>
	</g>
</g>
<g id="Dark_Blue" class="st0">
	<g class="st1">
		<g>
			<path class="st3" d="M48.8,26.4c-2.7,0-4.8,2.2-4.8,4.8s2.2,4.8,4.8,4.8s4.8-2.2,4.8-4.8S51.4,26.4,48.8,26.4z M48.8,32.6
				c-0.8,0-1.4-0.6-1.4-1.4s0.6-1.4,1.4-1.4s1.4,0.6,1.4,1.4C50.2,32,49.6,32.6,48.8,32.6L48.8,32.6z"/>
			<path class="st3" d="M58.4,17.8l-9.2-11c-0.2-0.3-0.5-0.4-0.9-0.4H40c-0.6,0-1.1,0.5-1.1,1.1v22.1c0,0.6,0.5,1.1,1.1,1.1h1.2
				c0.6,0,1-0.4,1.1-1c0.5-3.4,3.2-5.5,6.4-5.5s6,2.1,6.4,5.5c0.1,0.6,0.6,1,1.1,1h1.2c0.6,0,1.1-0.5,1.1-1.1v-11
				C58.7,18.3,58.6,18,58.4,17.8z M52,16.6h-9.7c-0.6,0-1.1-0.5-1.1-1.1V9.8c0-0.6,0.5-1.1,1.1-1.1h5c0.3,0,0.7,0.1,0.9,0.4l4.7,5.7
				C53.5,15.4,52.9,16.6,52,16.6z"/>
			<path class="st3" d="M15.1,26.4c-2.6,0-4.8,2.2-4.8,4.8s2.2,4.8,4.8,4.8s4.8-2.2,4.8-4.8S17.8,26.4,15.1,26.4z M15.1,32.6
				c-0.8,0-1.4-0.6-1.4-1.4s0.6-1.4,1.4-1.4s1.4,0.6,1.4,1.4S15.9,32.6,15.1,32.6z"/>
			<g>
				<path class="st3" d="M19.9,6.9c-3.2,0-5.7,2.6-5.7,5.7s2.6,5.7,5.7,5.7c1.1,0,2.2-0.3,3.1-0.9l-2.5-2.5
					c-0.4,0.2-0.9,0.3-1.4,0.3c-0.9,0-1.8-0.4-2.5-1c-0.9-0.9-1.2-2.2-0.9-3.4c0.1-0.2,0.2-0.3,0.4-0.3c0.1,0,0.2,0,0.3,0.1
					c0,0,1.2,1.2,1.6,1.6c0.1,0.1,0.1,0.1,0.2,0.1l0,0l0,0l0,0c0.5,0,1-0.1,1.2-0.2l0,0l0,0c0.1-0.2,0.1-0.8,0.2-1.2l0,0
					c0,0,0-0.1,0-0.2C19.2,10.2,18,8.9,18,8.9c-0.1-0.1-0.1-0.2-0.1-0.4c0-0.1,0.1-0.2,0.3-0.3c0.3-0.1,0.6-0.1,0.9-0.1
					c0.9,0,1.8,0.4,2.5,1s1,1.6,1,2.5c0,0.5-0.1,0.9-0.3,1.4l2.5,2.5c0.5-0.9,0.8-1.9,0.8-2.9C25.6,9.4,23.1,6.9,19.9,6.9z"/>
				<path class="st3" d="M36.9,0.1H4.6C4,0.1,3.5,0.6,3.5,1.3v28.3c0,0.6,0.5,1.1,1.1,1.1h2.9c0.6,0,1.1-0.4,1.1-1
					c0.4-3.4,3.2-5.5,6.4-5.5s6,2.1,6.4,5.5c0.1,0.6,0.6,1,1.1,1h14.2c0.6,0,1.1-0.5,1.1-1.1V1.3C38,0.6,37.5,0.1,36.9,0.1z
					 M29.8,13.7c0,0.3-0.3,0.5-0.6,0.5h-0.1c-0.9,0-1.7,0.6-2,1.4c-0.4,0.9-0.1,1.9,0.6,2.5c0.2,0.2,0.2,0.5,0.1,0.8
					c-0.5,0.6-1,1.1-1.6,1.6c-0.2,0.2-0.6,0.1-0.8-0.1c-0.6-0.6-1.6-0.9-2.5-0.6c-0.8,0.4-1.4,1.2-1.4,2.1c0,0.3-0.2,0.5-0.5,0.6
					c-0.4,0-0.7,0.1-1.1,0.1s-0.8,0-1.1-0.1c-0.3,0-0.5-0.3-0.5-0.6c0-0.9-0.5-1.8-1.3-2.1c-0.8-0.4-1.9-0.1-2.5,0.6
					c-0.2,0.2-0.5,0.2-0.8,0.1c-0.6-0.5-1.1-1-1.6-1.6C12,18.5,12,18.2,12.2,18c0.7-0.6,0.9-1.6,0.6-2.5c-0.4-0.8-1.2-1.4-2-1.4
					c-0.3,0-0.6-0.2-0.7-0.5c-0.1-0.8-0.1-1.5,0-2.3c0-0.3,0.3-0.5,0.6-0.5c1,0,1.8-0.5,2.2-1.3C13.3,8.6,13,7.6,12.3,7
					C12,6.9,12,6.6,12.2,6.4c0.5-0.6,1-1.1,1.6-1.6c0.2-0.2,0.6-0.2,0.8,0.1c0.6,0.7,1.6,0.9,2.5,0.6c0.8-0.3,1.4-1.2,1.4-2.1
					c0-0.3,0.2-0.5,0.5-0.6c0.7-0.1,1.5-0.1,2.2,0c0.3,0,0.5,0.3,0.5,0.6c0,0.9,0.5,1.8,1.3,2.2c0.8,0.3,1.9,0.1,2.5-0.6
					c0.2-0.2,0.5-0.2,0.8-0.1c0.6,0.5,1.1,1,1.6,1.6c0.2,0.2,0.1,0.6-0.1,0.7c-0.7,0.6-0.9,1.6-0.6,2.4s1.1,1.4,2,1.4
					c0.3,0,0.6,0.2,0.6,0.5C29.9,12.2,29.9,13,29.8,13.7z"/>
			</g>
		</g>
	</g>
	<g class="st1">
		<g>
			<path class="st3" d="M76.6,7.9v8.9h-1.5v-6.1l-2.7,6.1h-1l-2.8-6.1v6.1h-1.5V7.9h1.6l3.2,7l3.1-7L76.6,7.9z"/>
			<path class="st3" d="M79.8,16.5c-0.5-0.3-1-0.7-1.3-1.3S78,14,78,13.3s0.2-1.4,0.5-1.9s0.8-1,1.3-1.3c0.6-0.3,1.2-0.4,1.8-0.4
				S83,9.8,83.5,10c0.6,0.3,1,0.7,1.3,1.3s0.5,1.2,0.5,1.9s-0.2,1.4-0.5,1.9c-0.3,0.6-0.8,1-1.3,1.3c-0.6,0.3-1.2,0.5-1.9,0.5
				C81,16.9,80.4,16.8,79.8,16.5z M82.7,15.4c0.3-0.2,0.6-0.4,0.8-0.8c0.2-0.4,0.3-0.8,0.3-1.3s-0.1-0.9-0.3-1.3
				c-0.2-0.4-0.5-0.6-0.8-0.8s-0.7-0.3-1.1-0.3s-0.7,0.1-1,0.3S80,11.6,79.8,12c-0.2,0.4-0.3,0.8-0.3,1.3c0,0.8,0.2,1.4,0.6,1.8
				c0.4,0.4,0.9,0.6,1.5,0.6C82,15.6,82.4,15.5,82.7,15.4z"/>
			<path class="st3" d="M89.2,9.9c0.4-0.2,0.9-0.3,1.4-0.3c0.6,0,1.2,0.1,1.7,0.4c0.5,0.3,0.9,0.7,1.2,1.3s0.4,1.2,0.4,1.9
				s-0.1,1.4-0.4,1.9c-0.3,0.6-0.7,1-1.2,1.3s-1.1,0.5-1.7,0.5s-1-0.1-1.5-0.3c-0.4-0.2-0.8-0.5-1-0.8v1h-1.5V7.3h1.5v3.5
				C88.5,10.4,88.8,10.1,89.2,9.9z M92.2,11.9c-0.2-0.4-0.5-0.6-0.8-0.8s-0.7-0.3-1.1-0.3s-0.7,0.1-1,0.3s-0.6,0.5-0.8,0.8
				c-0.2,0.4-0.3,0.8-0.3,1.3s0.1,0.9,0.3,1.3c0.2,0.4,0.5,0.6,0.8,0.8s0.7,0.3,1.1,0.3s0.7-0.1,1.1-0.3c0.3-0.2,0.6-0.5,0.8-0.8
				c0.2-0.4,0.3-0.8,0.3-1.3C92.5,12.7,92.4,12.3,92.2,11.9z"/>
			<path class="st3" d="M95.5,8.5c-0.2-0.2-0.3-0.4-0.3-0.7s0.1-0.5,0.3-0.7c0.2-0.2,0.4-0.3,0.7-0.3c0.2,0,0.5,0.1,0.7,0.3
				c0.2,0.2,0.3,0.4,0.3,0.7c0,0.3-0.1,0.5-0.3,0.7s-0.4,0.3-0.7,0.3C95.9,8.7,95.7,8.7,95.5,8.5z M96.9,9.7v7.1h-1.5V9.7L96.9,9.7z
				"/>
			<path class="st3" d="M100.3,7.2v9.5h-1.5V7.2C98.8,7.2,100.3,7.2,100.3,7.2z"/>
			<path class="st3" d="M108.7,13.7h-5.4c0,0.6,0.3,1,0.6,1.4c0.4,0.4,0.8,0.5,1.4,0.5c0.8,0,1.3-0.3,1.7-1h1.6
				c-0.2,0.6-0.6,1.2-1.2,1.6s-1.2,0.6-2.1,0.6c-0.7,0-1.3-0.1-1.8-0.5c-0.5-0.3-0.9-0.7-1.3-1.3c-0.3-0.6-0.5-1.2-0.5-1.9
				s0.2-1.4,0.4-1.9c0.3-0.6,0.7-1,1.2-1.3s1.2-0.4,1.8-0.4c0.7,0,1.3,0.1,1.8,0.4c0.5,0.3,0.9,0.7,1.2,1.2c0.3,0.5,0.4,1.1,0.4,1.8
				C108.7,13.3,108.7,13.5,108.7,13.7z M107.2,12.6c0-0.5-0.2-1-0.6-1.3s-0.8-0.5-1.4-0.5c-0.5,0-0.9,0.2-1.3,0.5s-0.6,0.8-0.6,1.3
				C103.3,12.6,107.2,12.6,107.2,12.6z"/>
		</g>
		<g>
			<path class="st3" d="M68.8,29.1c-0.5-0.2-0.8-0.5-1.1-0.9c-0.3-0.4-0.4-0.8-0.4-1.4h1.6c0,0.4,0.2,0.7,0.5,1
				c0.3,0.2,0.7,0.4,1.1,0.4c0.5,0,0.9-0.1,1.2-0.4s0.4-0.6,0.4-1c0-0.3-0.1-0.5-0.3-0.7c-0.2-0.2-0.4-0.3-0.7-0.4
				c-0.3-0.1-0.6-0.2-1.1-0.3c-0.6-0.1-1.1-0.3-1.4-0.5c-0.4-0.1-0.7-0.4-0.9-0.7c-0.3-0.3-0.4-0.8-0.4-1.3s0.1-1,0.4-1.4
				c0.2-0.4,0.6-0.7,1.1-0.9c0.5-0.2,1-0.3,1.6-0.3c0.9,0,1.6,0.2,2.1,0.6c0.6,0.4,0.9,1,0.9,1.8h-1.6c0-0.3-0.2-0.6-0.5-0.8
				c-0.3-0.2-0.7-0.4-1.1-0.4s-0.8,0.1-1,0.3c-0.3,0.2-0.4,0.5-0.4,0.9c0,0.3,0.1,0.5,0.3,0.7s0.4,0.3,0.6,0.4
				c0.3,0.1,0.6,0.2,1.1,0.3c0.6,0.2,1.1,0.3,1.4,0.5c0.4,0.2,0.7,0.4,0.9,0.8c0.3,0.3,0.4,0.8,0.4,1.4c0,0.5-0.1,0.9-0.4,1.3
				s-0.6,0.7-1.1,1s-1,0.4-1.7,0.4C69.8,29.4,69.2,29.3,68.8,29.1z"/>
			<path class="st3" d="M81.6,26.3h-5.4c0,0.6,0.3,1,0.6,1.4c0.4,0.4,0.8,0.5,1.4,0.5c0.8,0,1.3-0.3,1.7-1h1.6
				c-0.2,0.6-0.6,1.2-1.2,1.6s-1.2,0.6-2.1,0.6c-0.7,0-1.3-0.1-1.8-0.5c-0.5-0.3-0.9-0.7-1.3-1.3c-0.3-0.5-0.5-1.2-0.5-1.9
				s0.2-1.4,0.4-1.9c0.3-0.5,0.7-1,1.2-1.3S77.4,22,78,22c0.7,0,1.3,0.1,1.8,0.4s0.9,0.7,1.2,1.2c0.3,0.5,0.4,1.1,0.4,1.8
				C81.7,25.8,81.7,26,81.6,26.3z M80.1,25.1c0-0.5-0.2-1-0.6-1.3s-0.8-0.5-1.4-0.5c-0.5,0-0.9,0.2-1.3,0.5s-0.6,0.8-0.6,1.3H80.1z"
				/>
			<path class="st3" d="M85.4,22.4c0.3-0.2,0.8-0.3,1.3-0.3v1.5h-0.4c-0.6,0-1,0.1-1.3,0.4s-0.4,0.8-0.4,1.5v3.7h-1.5v-7.1h1.5v1
				C84.8,22.8,85.1,22.6,85.4,22.4z"/>
			<path class="st3" d="M90.8,27.9l2-5.8h1.6l-2.7,7.1h-1.8l-2.7-7.1h1.6L90.8,27.9z"/>
			<path class="st3" d="M95.5,20.9c-0.2-0.2-0.3-0.4-0.3-0.7c0-0.3,0.1-0.5,0.3-0.7s0.4-0.3,0.7-0.3c0.2,0,0.5,0.1,0.7,0.3
				c0.2,0.2,0.3,0.4,0.3,0.7c0,0.3-0.1,0.5-0.3,0.7s-0.4,0.3-0.7,0.3C95.9,21.2,95.7,21.1,95.5,20.9z M96.9,22.1v7.1h-1.5v-7.1H96.9
				z"/>
			<path class="st3" d="M98.8,23.7c0.3-0.5,0.7-1,1.2-1.3s1.1-0.5,1.8-0.5c0.8,0,1.6,0.2,2.1,0.6s0.9,1,1.1,1.7h-1.6
				c-0.1-0.4-0.3-0.6-0.6-0.8c-0.3-0.2-0.6-0.3-1.1-0.3c-0.6,0-1.1,0.2-1.4,0.6s-0.5,1-0.5,1.8s0.2,1.4,0.5,1.8
				c0.4,0.4,0.8,0.6,1.4,0.6c0.8,0,1.4-0.4,1.7-1.1h1.6c-0.2,0.7-0.6,1.3-1.2,1.7c-0.6,0.4-1.3,0.6-2.1,0.6c-0.7,0-1.3-0.1-1.8-0.5
				s-0.9-0.7-1.2-1.3c-0.3-0.5-0.4-1.2-0.4-1.9C98.4,24.9,98.5,24.3,98.8,23.7z"/>
			<path class="st3" d="M113,26.2h-5.4c0,0.6,0.3,1,0.6,1.4c0.4,0.4,0.8,0.5,1.4,0.5c0.8,0,1.3-0.3,1.7-1h1.6
				c-0.2,0.6-0.6,1.2-1.2,1.6s-1.2,0.6-2.1,0.6c-0.7,0-1.3-0.1-1.8-0.5c-0.5-0.3-0.9-0.7-1.3-1.3c-0.3-0.5-0.5-1.2-0.5-1.9
				s0.2-1.4,0.4-1.9s0.7-1,1.2-1.3s1.2-0.5,1.8-0.5c0.7,0,1.3,0.1,1.8,0.4s0.9,0.7,1.2,1.2c0.3,0.5,0.4,1.1,0.4,1.8
				C113,25.7,113,26,113,26.2z M111.5,25c0-0.5-0.2-1-0.6-1.3s-0.8-0.5-1.4-0.5c-0.5,0-0.9,0.2-1.3,0.5s-0.6,0.8-0.6,1.3H111.5z"/>
		</g>
	</g>
</g>
<g>
	<g>
		<defs>
			<rect id="SVGID_1_" x="0" y="-4" width="116.5" height="49.9"/>
		</defs>
		<clipPath id="SVGID_00000041295637753967142670000016255368374316340138_">
			<use xlink:href="#SVGID_1_"  style="overflow:visible;"/>
		</clipPath>
		<g style="clip-path:url(#SVGID_00000041295637753967142670000016255368374316340138_);">
			<defs>
				<rect id="SVGID_00000156557652468627491240000002033322696555601029_" x="0" y="-4" width="116.5" height="49.9"/>
			</defs>
			<clipPath id="SVGID_00000004524884614252838740000002213438409413662909_">
				<use xlink:href="#SVGID_00000156557652468627491240000002033322696555601029_"  style="overflow:visible;"/>
			</clipPath>
			<path style="clip-path:url(#SVGID_00000004524884614252838740000002213438409413662909_);fill:#9A1F24;" d="M113.3,14.3
				c0.6-1.1,1.3-2.2,0.8-2.9c-0.4-0.6-1.4-0.9-3.1-1c-8.5-0.3-33.4-0.1-33.5-0.1h-0.1c0.2,0.3,0.4,0.6,0.5,0.9
				c0.5,0.9,0.7,1.5,0.6,2c-0.1,0.5-0.5,1-1.2,2c-0.5,0.6-7.7,10.3-10,13.2H78c0.9-1.2,9.5-12.4,11.9-15.6c4.5-0.1,7.5-0.1,9.9-0.1
				c1.2,0,2.5,0,4.3,0h0c0.2,0,0.6,0,0.6,0.2c0.2,0.5-0.7,1.8-1.7,2.7l-0.1,0.1c-0.6,0.5-1.3,1.2-3.8,1.3l-10,0.1l-2,2.5
				c2.4,1.8,11.4,8.9,12,9.3c1,0.7,2.1,1.1,3.7,1.1c0,0,6.1-0.1,9.3-0.1c-1.5-1-11.4-8.2-14.3-10.3c6.7-0.1,11.4-0.7,13.2-2.5
				C112.1,16.2,112.6,15.5,113.3,14.3"/>
			<path style="clip-path:url(#SVGID_00000004524884614252838740000002213438409413662909_);fill:#282828;" d="M50.1,20.6
				c-5-0.2-11.5,0-11.5,0l-5.8,7.7l5.6,0l2-2.7l1.6,0c4.1,0,6.8,0,7.9-1.1c0.6-0.5,1.1-1.2,1.4-1.8C52,21.6,52.5,20.6,50.1,20.6
				 M46,23.1c-0.4,0.3-0.7,0.8-2.3,0.8l-1.9,0l1.7-2.2c0.7,0,1.3,0,2.8,0C47.3,21.7,46.6,22.5,46,23.1"/>
			<path style="clip-path:url(#SVGID_00000004524884614252838740000002213438409413662909_);fill:#282828;" d="M36.5,20.5l-4.1,0
				l-6.4,3.6l-2-3.6l-18.9,0L4,21.9h5.2l-4.8,6.3l5.6,0c0,0,3.3-4.4,3.8-5c0.8-1.1,0.9-1.3,2.7-1.3H20l2,3.7l0,0l-2,2.7l5.6,0l2-2.7
				h0L36.5,20.5z"/>
			<path style="clip-path:url(#SVGID_00000004524884614252838740000002213438409413662909_);fill:#282828;" d="M66.4,21.8
				c0.4-0.5,0.7-0.8,1-1.2l-12.8,0c0,0-1.9,2.5-3.1,4c-0.2,0.3-0.6,0.9-0.7,0.9c-0.9,1.2-1.2,2.5,1.8,2.7c0.4,0,1.7,0.1,2.7,0.1h6.8
				c1.1,0,1.8-0.2,2.3-0.7c0.6-0.5,0.9-0.9,0.9-0.9h-8.3c-1.4,0-1.3-0.4-0.8-1.1c0.1-0.1,0.3-0.4,0.6-0.8h7.5c0.5-0.5,0.8-1,1.1-1.4
				h-7.6c0.4-0.5,0.8-1.1,1.2-1.6H66.4z"/>
		</g>
	</g>
</g>
</svg>
