<?xml version="1.0" encoding="UTF-8"?>
<svg width="299px" height="63px" viewBox="0 0 299 63" version="1.1" xmlns="http://www.w3.org/2000/svg" xmlns:xlink="http://www.w3.org/1999/xlink">
    <!-- Generator: Sketch 55.2 (78181) - https://sketchapp.com -->
    <title>logo-white</title>
    <desc>Created with Sketch.</desc>
    <defs>
        <polygon id="path-1" points="0.5592 0.2901 64.542 0.2901 64.542 34.1011 0.5592 34.1011"></polygon>
        <polygon id="path-3" points="0.7711 0.077 56.1131 0.077 56.1131 36.3138 0.7711 36.3138"></polygon>
    </defs>
    <g id="logo-white" stroke="none" stroke-width="1" fill="none" fill-rule="evenodd">
        <g id="Group">
            <polygon id="Fill-1" fill="#E9E9E9" points="23.6529 47.8368 23.6529 49.5058 29.7179 49.5058 29.7179 62.6968 31.8409 62.6968 31.8409 49.5058 37.9059 49.5058 37.9059 47.8368"></polygon>
            <path d="M48.6714,62.6968 L50.7944,62.6968 L50.7944,56.6308 C50.7944,53.1448 48.6714,51.6288 45.7894,51.6288 C43.8184,51.6288 42.1504,52.3858 41.2414,53.9028 L41.2414,47.8368 L39.1184,47.8368 L39.1184,62.6968 L41.2414,62.6968 L41.2414,57.6918 C41.2414,54.3578 43.3634,52.9938 45.4864,52.9938 C47.4574,52.9938 48.6714,54.0548 48.6714,56.7858 L48.6714,62.6968 Z" id="Fill-2" fill="#E9E9E9"></path>
            <path d="M59.4365,52.9937 C57.3125,52.9937 55.7965,54.0557 55.4945,56.4817 L63.0745,56.4817 C63.0745,54.0557 61.2555,52.9937 59.4365,52.9937 L59.4365,52.9937 Z M55.3425,57.8447 C55.4945,59.9667 56.8575,61.6357 59.2835,61.6357 C61.1035,61.6357 62.3165,61.0277 62.7715,59.5117 L65.0455,59.5117 C64.5905,62.0907 62.0135,62.9997 59.4365,62.9997 C55.4945,62.9997 53.2195,60.8777 53.2195,57.5407 C53.2195,53.7527 55.6455,51.6287 59.4365,51.6287 C63.2265,51.6287 65.1975,53.5997 65.1975,57.2367 L65.1975,57.8447 L55.3425,57.8447 Z" id="Fill-4" fill="#E9E9E9"></path>
            <path d="M145.2534,53.6001 C145.5564,53.6001 146.0114,53.6001 146.7694,53.7521 L146.7694,51.9321 C146.4654,51.7811 146.1624,51.7811 145.5564,51.7811 C143.5864,51.7811 142.2214,52.8411 141.4624,54.2061 L141.3114,52.0831 L139.3404,52.0831 C139.3404,52.8411 139.4914,53.6001 139.4914,54.5101 L139.4914,62.6971 L141.4624,62.6971 L141.4624,57.5401 C141.4624,54.9651 142.6754,53.6001 145.2534,53.6001" id="Fill-6" fill="#E9E9E9"></path>
            <path d="M208.1758,53.6001 C208.6318,53.6001 209.0858,53.6001 209.8438,53.7521 L209.8438,51.9321 C209.5398,51.7811 209.2378,51.7811 208.4788,51.7811 C206.5088,51.7811 205.2958,52.8411 204.3858,54.2061 L204.3858,52.0831 L202.4138,52.0831 L202.4138,54.5101 L202.4138,62.6971 L204.5368,62.6971 L204.5368,57.5401 C204.5368,54.9651 205.7498,53.6001 208.1758,53.6001" id="Fill-8" fill="#E9E9E9"></path>
            <polygon id="Fill-10" fill="#E9E9E9" points="107.6514 61.1802 104.3164 52.0832 101.8894 52.0832 106.1354 62.6972 109.0164 62.6972 112.5034 53.7522 116.2934 62.6972 119.0234 62.6972 123.2684 52.0832 120.9944 52.0832 117.6584 61.1802 114.0194 52.0832 111.2904 52.0832"></polygon>
            <path d="M80.207,49.353 L75.963,49.353 L75.963,55.269 L80.359,55.269 C83.089,55.269 83.999,54.207 83.999,52.236 C83.999,50.567 83.089,49.353 80.207,49.353 M80.511,56.933 L75.963,56.933 L75.963,62.697 L73.84,62.697 L73.84,47.836 L80.207,47.836 C84.756,47.686 86.273,49.657 86.273,52.236 C86.273,54.965 84.454,56.933 80.511,56.933" id="Fill-12" fill="#E9E9E9"></path>
            <path d="M94.0054,52.9937 C91.1244,52.9937 89.6094,54.8137 89.6094,57.3907 C89.6094,59.6637 91.1244,61.6357 94.0054,61.6357 C97.0384,61.6357 98.5544,59.6637 98.5544,57.3907 C98.5544,54.8137 97.0384,52.9937 94.0054,52.9937 M94.0054,62.9997 C89.7604,62.9997 87.4864,61.0277 87.4864,57.3907 C87.4864,53.9027 89.7604,51.6287 94.0054,51.6287 C98.5544,51.6287 100.6764,53.7527 100.6764,57.3907 C100.6764,61.0277 98.4014,62.9997 94.0054,62.9997" id="Fill-14" fill="#E9E9E9"></path>
            <path d="M130.5459,52.9937 C128.4229,52.9937 126.9079,54.0557 126.6049,56.4817 L134.1849,56.4817 C134.1849,54.0557 132.3659,52.9937 130.5459,52.9937 L130.5459,52.9937 Z M126.4529,57.8447 C126.7549,59.9667 127.9689,61.6357 130.3949,61.6357 C132.2139,61.6357 133.5789,61.0277 134.0339,59.5117 L136.1559,59.5117 C135.7009,62.0907 133.1239,62.9997 130.5459,62.9997 C126.6049,62.9997 124.4809,60.8777 124.4809,57.5407 C124.4809,53.7527 126.7549,51.6287 130.5459,51.6287 C134.3369,51.6287 136.4599,53.5997 136.4599,57.2367 L136.4599,57.8447 L126.4529,57.8447 Z" id="Fill-16" fill="#E9E9E9"></path>
            <path d="M217.1221,52.9937 C214.9991,52.9937 213.3311,54.0557 213.1811,56.4817 L220.7611,56.4817 C220.7611,54.0557 218.9401,52.9937 217.1221,52.9937 L217.1221,52.9937 Z M213.0281,57.8447 C213.1811,59.9667 214.5441,61.6357 216.9711,61.6357 C218.7901,61.6357 220.0021,61.0277 220.4571,59.5117 L222.7321,59.5117 C222.2771,62.0907 219.6991,62.9997 216.9711,62.9997 C213.1811,62.9997 210.9061,60.8777 210.9061,57.5407 C210.9061,53.7527 213.3311,51.6287 217.1221,51.6287 C220.9121,51.6287 222.8841,53.5997 222.8841,57.2367 L222.8841,57.8447 L213.0281,57.8447 Z" id="Fill-18" fill="#E9E9E9"></path>
            <path d="M174.0606,48.8989 C174.5156,48.8989 175.2746,49.0499 176.3356,49.2029 L176.3356,47.6859 C175.5776,47.5339 174.6676,47.5339 173.6066,47.5339 C170.5746,47.5339 169.6646,49.0499 169.6646,51.6279 L169.6646,52.0839 L166.9356,52.0839 L166.9356,53.4489 L169.6646,53.4489 L169.6646,62.6969 L171.6356,62.6969 L171.6356,53.4489 L176.0326,53.4489 L176.0326,52.0839 L171.6356,52.0839 L171.6356,51.1729 C171.6356,49.5049 172.3936,48.8989 174.0606,48.8989" id="Fill-20" fill="#E9E9E9"></path>
            <path d="M159.3545,52.9937 C156.4725,52.9937 154.9575,54.8137 154.9575,57.3907 C154.9575,59.6637 156.4725,61.6357 159.3545,61.6357 C162.2345,61.6357 163.7505,59.6637 163.7505,57.3907 C163.7505,54.8137 162.3855,52.9937 159.3545,52.9937 M159.3545,62.9997 C154.9575,62.9997 152.6825,61.0277 152.6825,57.3907 C152.6825,53.9027 155.1095,51.6287 159.3545,51.6287 C163.7505,51.6287 166.0265,53.7527 166.0265,57.3907 C166.0265,61.0277 163.5985,62.9997 159.3545,62.9997" id="Fill-22" fill="#E9E9E9"></path>
            <path d="M250.0235,54.2065 C249.4175,52.5385 247.7495,51.6285 246.2335,51.6285 C244.7165,51.6285 243.2005,52.3865 242.2905,53.9025 L242.1385,52.0835 L240.1695,52.0835 C240.1695,52.8415 240.3205,53.6005 240.3205,54.5105 L240.3205,62.6965 L242.2905,62.6965 L242.2905,57.5405 C242.2905,54.3575 244.1125,52.9935 245.7785,52.9935 C247.4455,52.9935 248.3555,54.2065 248.3555,57.2365 L248.3555,62.6965 L250.4785,62.6965 L250.4785,57.5405 C250.4785,53.7525 252.7535,52.9935 253.8145,52.9935 C255.9365,52.9935 256.5435,54.5105 256.5435,57.2365 L256.5435,62.6965 L258.5135,62.6965 L258.5135,56.4815 C258.5135,52.9935 256.6955,51.6285 254.1175,51.6285 C251.9955,51.6285 250.4785,53.1445 250.0235,54.2065" id="Fill-24" fill="#E9E9E9"></path>
            <path d="M266.5498,62.9995 C270.4918,62.9995 272.4638,61.9385 272.4638,59.6635 C272.4638,57.9945 271.4028,57.2365 269.4308,56.9335 L265.9448,56.1785 C264.4288,55.8745 263.6688,55.5715 263.6688,54.6615 C263.6688,53.6005 264.8838,52.9935 266.8538,52.9935 C268.3698,52.9935 269.7358,53.4485 269.8868,54.8135 L272.0088,54.8135 C272.0088,52.2355 269.1268,51.6285 266.8538,51.6285 C264.1248,51.6285 261.6978,52.5385 261.6978,54.9655 C261.6978,56.6305 262.9118,57.3915 264.5788,57.6915 L267.9148,58.2985 C268.9778,58.6025 270.1898,58.9055 270.1898,59.8145 C270.1898,61.0275 268.9778,61.6355 266.7018,61.6355 C264.8838,61.6355 263.5188,61.0275 263.2148,59.6635 L261.0918,59.6635 C261.2438,62.0905 263.5188,62.9995 266.5498,62.9995" id="Fill-26" fill="#E9E9E9"></path>
            <path d="M190.4375,49.353 L186.9495,49.353 L186.9495,61.028 L190.7395,61.028 C195.8955,61.028 197.1075,58.298 197.1075,55.269 C197.1075,51.325 195.7445,49.353 190.4375,49.353 M191.0425,62.697 L184.6755,62.697 L184.6755,47.836 L191.0425,47.836 C196.8055,47.836 199.3815,50.415 199.3815,55.269 C199.3815,59.966 196.3505,62.697 191.0425,62.697" id="Fill-28" fill="#E9E9E9"></path>
            <path d="M234.5596,57.9946 C234.5596,60.5736 233.1946,61.6356 230.6156,61.6356 C228.4946,61.6356 227.7356,60.7246 227.7356,59.5116 C227.7356,57.2366 231.9806,57.3906 233.4976,57.3906 L234.5596,57.3906 L234.5596,57.9946 Z M234.7106,62.6966 L236.6806,62.6966 L236.6806,60.5736 L236.6806,55.4196 C236.6806,52.8416 234.5596,51.6286 231.5256,51.6286 C229.2516,51.6286 226.5226,52.2356 226.2186,54.8136 L228.4946,54.8136 C228.6456,53.7526 229.7066,52.9936 231.5256,52.9936 C233.3456,52.9936 234.5596,53.7526 234.5596,55.5716 L234.5596,56.0266 L233.3456,56.0266 C230.9186,56.0266 225.4606,55.8746 225.4606,59.5116 C225.4606,61.6356 227.2816,62.9996 230.0106,62.9996 C232.1316,62.9996 233.4976,62.8486 234.5596,61.1806 L234.7106,62.6966 Z" id="Fill-30" fill="#E9E9E9"></path>
            <g id="Group-34" transform="translate(234.000000, 1.000000)">
                <mask id="mask-2" fill="white">
                    <use xlink:href="#path-1"></use>
                </mask>
                <g id="Clip-33"></g>
                <path d="M22.2402,17.7261 L35.4302,17.7261 L28.7612,7.4161 L22.2402,17.7261 Z M0.5592,34.1011 L0.5592,29.5531 L5.2592,29.0991 C6.7752,28.7941 7.3822,27.4301 7.6842,27.1271 L19.0562,8.4781 C19.9652,7.1131 19.0562,5.7491 17.8442,5.5971 L11.9302,4.9901 L11.9302,0.2901 L37.8562,0.2901 C39.3742,0.2901 40.2832,1.3511 40.8902,2.2611 L56.0522,25.4591 C57.2642,27.2791 58.1742,28.7941 59.6902,28.9461 L64.5422,29.4011 L64.5422,34.1011 L35.2802,34.1011 L35.2802,29.5531 L38.9192,29.0991 C40.7392,28.9461 42.2542,28.0371 40.7392,25.9141 L39.3742,23.7921 L18.6022,23.7921 L16.9332,26.3691 C16.0232,27.8851 16.9332,28.9461 18.4502,29.0991 L22.2402,29.5531 L22.2402,34.1011 L0.5592,34.1011 Z" id="Fill-32" fill="#E82D36" mask="url(#mask-2)"></path>
            </g>
            <path d="M209.9951,28.582 L201.3531,28.582 L201.3531,7.81 L209.9951,7.81 C218.3361,7.81 221.6701,9.63 221.6701,18.272 C221.6701,26.763 218.3361,28.582 209.9951,28.582 M215.1511,1.29 L181.7941,1.29 L181.7941,5.99 L185.8881,6.294 C187.5561,6.597 188.1621,7.659 188.1621,9.175 L188.1621,27.369 C188.1621,28.734 187.5561,29.946 186.1901,30.099 L181.7941,30.705 L181.7941,35.101 L215.1511,35.101 C230.6151,35.101 237.2871,27.673 237.2871,17.665 C237.2871,8.871 230.6151,1.29 215.1511,1.29" id="Fill-35" fill="#E82D36"></path>
            <path d="M-3.55271368e-15,35.1011 L27.141,35.1011 L27.141,30.5531 L22.44,30.0991 C21.379,29.9461 20.317,29.3401 20.317,27.0661 L20.317,21.6081 L41.241,21.6081 L41.241,26.7631 C41.241,28.2791 40.938,29.7941 39.118,29.9461 L34.418,30.4011 L34.418,35.1011 L61.558,35.1011 L61.558,30.4011 L56.707,29.9461 C55.796,29.7941 54.735,29.0371 54.735,27.2181 L54.735,9.6301 C54.735,7.8091 55.342,6.5971 56.858,6.4451 L61.558,5.9901 L61.558,1.2901 L34.418,1.2901 L34.418,5.8391 L39.118,6.4451 C40.787,6.5971 41.241,7.9611 41.241,9.6301 L41.241,14.7851 L20.317,14.7851 L20.317,9.4781 C20.317,7.5061 21.228,6.5971 22.592,6.4451 L27.141,5.9901 L27.141,1.2901 L0.152,1.2901 L0.152,5.9901 L4.701,6.4451 C6.368,6.5971 6.975,7.9611 6.823,9.6301 L6.823,26.7631 C6.823,28.7341 6.368,29.9461 4.549,30.0991 L-3.55271368e-15,30.5531 L-3.55271368e-15,35.1011 Z" id="Fill-37" fill="#E82D36"></path>
            <g id="Group-41" transform="translate(62.000000, 0.000000)">
                <mask id="mask-4" fill="white">
                    <use xlink:href="#path-3"></use>
                </mask>
                <g id="Clip-40"></g>
                <path d="M28.5181,6.4448 C20.7861,6.4448 16.3891,9.3258 16.3891,18.1198 C16.3891,27.0668 20.7861,29.9458 28.5181,29.9458 C36.1001,29.9458 40.4961,27.0668 40.4961,18.1198 C40.4961,9.3258 36.1001,6.4448 28.5181,6.4448 M0.7711,18.1198 C0.7711,7.5068 9.4141,0.0768 28.5181,0.0768 C47.4711,0.0768 56.1131,7.5068 56.1131,18.1198 C56.1131,28.8848 47.4711,36.3138 28.5181,36.3138 C9.4141,36.3138 0.7711,28.8848 0.7711,18.1198" id="Fill-39" fill="#E82D36" mask="url(#mask-4)"></path>
            </g>
            <path d="M119.6294,35.1011 L141.1594,35.1011 L141.1594,30.5531 L136.6104,30.0991 C135.2474,29.9461 134.4874,28.8851 134.4874,27.2181 L134.4874,10.0841 L152.3804,33.7391 C152.9854,34.6451 154.1994,35.1011 155.2604,35.1011 L172.2434,35.1011 L172.2434,9.4781 C172.2434,8.2661 172.5464,6.5971 174.2124,6.4451 L178.9144,5.9901 L178.9144,1.2901 L157.3824,1.2901 L157.3824,5.8391 L162.0844,6.4451 C163.7514,6.5971 164.0534,8.1131 164.0534,9.6301 L164.0534,26.3081 L146.3154,2.8071 C145.5564,1.8961 144.6474,1.2901 143.4344,1.2901 L119.6294,1.2901 L119.6294,5.9901 L124.0264,6.4451 C125.6944,6.7491 126.3014,7.5061 126.3014,9.6301 L126.3014,26.7631 C126.3014,28.8851 125.6944,29.7941 124.0264,30.0991 L119.6294,30.5531 L119.6294,35.1011 Z" id="Fill-42" fill="#E82D36"></path>
        </g>
    </g>
</svg>