<?xml version="1.0" encoding="UTF-8"?>
<svg width="170px" height="37px" viewBox="0 0 170 37" version="1.1" xmlns="http://www.w3.org/2000/svg" xmlns:xlink="http://www.w3.org/1999/xlink">
    <!-- Generator: Sketch 62 (91390) - https://sketch.com -->
    <title>Group 44</title>
    <desc>Created with Sketch.</desc>
    <defs>
        <polygon id="path-1" points="0.80785 0.79287 37.1718 0.79287 37.1718 20.02505 0.80785 20.02505"></polygon>
    </defs>
    <g id="02.HOME" stroke="none" stroke-width="1" fill="none" fill-rule="evenodd">
        <g id="Group-44">
            <g id="Group-3" transform="translate(132.680000, 0.027414)">
                <mask id="mask-2" fill="white">
                    <use xlink:href="#path-1"></use>
                </mask>
                <g id="Clip-2"></g>
                <path d="M13.15993,10.73745 L20.62853,10.73745 L16.85999,4.80751 L13.15993,10.73745 M0.80785,20.02505 L0.80785,17.44421 L3.40581,17.14675 C4.31103,17.03761 4.69837,16.21585 4.80537,16.02325 L11.30883,5.44737 C11.83955,4.61919 11.32595,3.88089 10.63901,3.80385 L7.21715,3.40795 L7.21715,0.79287 L22.02809,0.79287 C22.85199,0.79287 23.38271,1.36639 23.72939,1.85859 L32.37713,15.07523 C33.05979,16.13881 33.58195,16.96699 34.44865,17.08041 L37.17287,17.38215 L37.17287,20.02505 L20.52581,20.02505 L20.52581,17.41853 L22.64013,17.15959 C23.65449,17.04403 24.48267,16.58179 23.65449,15.34701 L22.85199,14.13791 L11.04347,14.13791 L10.13611,15.60809 C9.57115,16.50689 10.13611,17.04403 11.00281,17.15959 L13.11713,17.41853 L13.11713,20.02505 L0.80785,20.02505" id="Fill-1" fill="#EC1B2E" mask="url(#mask-2)"></path>
            </g>
            <path d="M119.511938,16.359252 L114.604918,16.359252 L114.604918,4.497232 L119.511938,4.497232 C124.194258,4.497232 126.163058,5.586492 126.163058,10.420752 C126.163058,15.293532 124.194258,16.359252 119.511938,16.359252 M122.450158,0.818572 L103.408438,0.818572 L103.408438,3.435792 L105.803098,3.675472 C106.684778,3.808152 107.046438,4.454432 107.046438,5.325412 L107.046438,15.678732 C107.046438,16.393492 106.746838,17.071872 105.957178,17.187432 L103.399878,17.514852 L103.399878,20.040052 L122.450158,20.052892 C131.222018,20.052892 134.990558,15.790012 134.990558,10.159672 C134.990558,5.100712 131.222018,0.818572 122.450158,0.818572" id="Fill-4" fill="#EC1B2E"></path>
            <path d="M0,20.052036 L15.408,20.052036 L15.408,17.486176 L12.77152,17.186576 C12.17018,17.107396 11.56242,16.728616 11.56242,15.446756 L11.56242,12.348036 L23.4223,12.348036 L23.4223,15.292676 C23.4223,16.167936 23.27678,16.993976 22.24744,17.107396 L19.56816,17.411276 L19.56816,20.052036 L34.97616,20.052036 L34.97616,17.411276 L32.25622,17.107396 C31.72978,17.032496 31.12416,16.610916 31.12416,15.523796 L31.12416,5.515016 C31.12416,4.496376 31.49438,3.807296 32.2926,3.738816 L34.97616,3.434936 L34.97616,0.819856 L19.56816,0.819856 L19.56816,3.400696 L22.24744,3.738816 C23.1548,3.854376 23.4223,4.569136 23.4223,5.515016 L23.4223,8.502456 L11.56242,8.502456 L11.56242,5.474356 C11.56242,4.338016 12.0161,3.807296 12.80576,3.738816 L15.408,3.434936 L15.408,0.819856 L0.03638,0.819856 L0.03638,3.434936 L2.60866,3.738816 C3.62944,3.854376 3.89266,4.607656 3.85628,5.585636 L3.85628,15.335476 C3.85628,16.424736 3.55454,17.071016 2.57228,17.186576 L0,17.486176 L0,20.052036" id="Fill-6" fill="#EC1B2E"></path>
            <path d="M51.441534,3.776266 C47.065234,3.776266 44.574274,5.404806 44.574274,10.384586 C44.574274,15.445686 47.065234,17.072086 51.441534,17.072086 C55.822114,17.072086 58.319494,15.445686 58.319494,10.384586 C58.319494,5.404806 55.822114,3.776266 51.441534,3.776266 M35.733934,10.339646 C35.733934,4.304846 40.606714,0.071926 51.480054,0.071926 C62.284914,0.071926 67.164114,4.304846 67.164114,10.339646 C67.164114,16.534946 62.284914,20.729346 51.480054,20.729346 C40.606714,20.729346 35.733934,16.534946 35.733934,10.339646" id="Fill-8" fill="#EC1B2E"></path>
            <path d="M68.016048,20.052036 L80.327468,20.052036 L80.327468,17.486176 L77.682428,17.186576 C76.931288,17.107396 76.473328,16.471816 76.473328,15.598696 L76.473328,5.816756 L86.711088,19.298756 C87.053488,19.746016 87.691208,20.052036 88.301108,20.052036 L97.961068,20.052036 L97.961068,5.474356 C97.961068,4.787416 98.138688,3.856516 99.129508,3.738816 L101.815208,3.434936 L101.815208,0.819856 L89.503788,0.819856 L89.503788,3.400696 L92.191628,3.738816 C93.133228,3.854376 93.360068,4.646176 93.360068,5.547116 L93.360068,15.070116 L83.197208,1.660876 C82.820568,1.172956 82.330508,0.819856 81.613608,0.819856 L68.016048,0.819856 L68.016048,3.434936 L70.584048,3.738816 C71.487128,3.873636 71.827388,4.331596 71.827388,5.585636 L71.827388,15.335476 C71.827388,16.488936 71.514948,17.041056 70.545528,17.186576 L68.016048,17.486176 L68.016048,20.052036" id="Fill-10" fill="#EC1B2E"></path>
            <polygon id="Fill-12" fill="#231F20" points="6.236174 28.25059 10.139534 28.25059 10.139534 36.24991 11.551934 36.24991 11.551934 28.25059 15.408214 28.25059 15.408214 27.18701 6.236174 27.18701"></polygon>
            <path d="M21.09291,29.153242 C19.84957,29.153242 18.83093,29.647582 18.21675,30.550662 L18.21675,27.186582 L16.85143,27.186582 L16.85143,36.253762 L18.21675,36.253762 L18.21675,33.028782 C18.21675,30.865242 19.59919,30.092702 20.88961,30.092702 C22.25707,30.092702 22.98039,30.888782 22.98039,32.388922 L22.98039,36.253762 L24.34357,36.253762 L24.34357,32.324722 C24.34357,30.281022 23.18797,29.153242 21.09291,29.153242" id="Fill-14" fill="#231F20"></path>
            <path d="M53.999476,32.639088 C53.999476,33.441588 53.751236,34.126388 53.280436,34.620728 C52.786096,35.145028 52.058496,35.421088 51.183236,35.421088 C50.312256,35.421088 49.593216,35.145028 49.101016,34.620728 C48.634496,34.126388 48.392676,33.441588 48.392676,32.639088 C48.392676,30.899268 49.434856,29.859228 51.183236,29.859228 C52.974416,29.859228 53.999476,30.871448 53.999476,32.639088 M54.367556,29.863508 C53.642096,29.208668 52.569956,28.876968 51.183236,28.876968 C49.860716,28.876968 48.773596,29.234348 48.039576,29.914868 C47.329096,30.565428 46.950316,31.511308 46.950316,32.639088 C46.950316,33.839628 47.318396,34.772668 48.039576,35.421088 C48.767176,36.073788 49.824336,36.405488 51.183236,36.405488 C53.926716,36.405488 55.437556,35.067988 55.437556,32.639088 C55.437556,31.440688 55.078036,30.509788 54.367556,29.863508" id="Fill-16" fill="#231F20"></path>
            <path d="M89.715006,30.632838 C90.205066,30.127798 90.928386,29.860298 91.807926,29.860298 C93.601246,29.860298 94.632726,30.870378 94.632726,32.638018 C94.632726,33.436238 94.382346,34.121038 93.902986,34.615378 C93.402226,35.141818 92.676766,35.420018 91.807926,35.420018 C90.098066,35.420018 88.991686,34.330758 88.991686,32.638018 C88.991686,31.814118 89.242066,31.120758 89.715006,30.632838 M94.990106,29.864578 C94.266786,29.209738 93.194646,28.878038 91.807926,28.878038 C90.483266,28.878038 89.396146,29.235418 88.655706,29.913798 C87.934526,30.570778 87.555746,31.512378 87.555746,32.638018 C87.555746,35.066918 89.064446,36.404418 91.807926,36.404418 C93.168966,36.404418 94.228266,36.074858 94.962286,35.420018 C95.687746,34.773738 96.055826,33.836418 96.055826,32.638018 C96.055826,31.441758 95.700586,30.506578 94.990106,29.864578" id="Fill-18" fill="#231F20"></path>
            <path d="M122.485896,28.965136 C121.116296,29.072136 120.390836,29.934556 119.932876,30.773436 L119.932876,29.027196 L118.708796,29.027196 L118.708796,36.258256 L120.095516,36.258256 L120.095516,32.453336 C120.129756,31.753556 120.392976,31.180036 120.883036,30.752036 C121.370956,30.324036 121.991556,30.103616 122.731996,30.103616 L123.403956,30.090776 L123.403956,28.965136 L123.386836,28.965136 C123.172836,28.943736 122.635696,28.952296 122.485896,28.965136" id="Fill-20" fill="#231F20"></path>
            <path d="M44.622424,29.886834 C44.622424,31.168694 43.896964,31.740074 42.274844,31.740074 L39.492844,31.740074 L39.492844,28.215494 L42.180684,28.215494 C43.845604,28.215494 44.622424,28.746214 44.622424,29.886834 M42.206364,27.179734 C42.195664,27.179734 38.082584,27.192574 38.082584,27.192574 L38.082584,36.253334 L39.492844,36.253334 L39.492844,32.769414 L42.398964,32.769414 C43.618764,32.769414 44.571064,32.493354 45.215204,31.954074 C45.810124,31.453314 46.124704,30.736414 46.124704,29.873994 C46.124704,29.157094 45.902144,28.572874 45.467724,28.136314 C44.832144,27.500734 43.732184,27.179734 42.206364,27.179734" id="Fill-22" fill="#231F20"></path>
            <path d="M108.83505,28.225338 L111.11843,28.225338 C112.76409,28.225338 113.82767,28.512098 114.46967,29.111298 C115.03891,29.650578 115.29571,30.461638 115.29571,31.726378 C115.29571,34.082518 113.99673,35.225278 111.32387,35.225278 L108.83505,35.225278 L108.83505,28.225338 Z M115.48617,28.362298 C114.60449,27.579058 113.24773,27.185298 111.44799,27.185298 L107.40553,27.185298 L107.40553,36.261038 L111.49935,36.261038 C113.17497,36.261038 114.48679,35.860858 115.39415,35.088318 C116.30365,34.298658 116.76589,33.170878 116.76589,31.717818 C116.76589,30.241218 116.33575,29.111298 115.48617,28.362298 L115.48617,28.362298 Z" id="Fill-24" fill="#231F20"></path>
            <path d="M139.133598,33.044618 C139.133598,34.636778 138.307558,35.439278 136.606258,35.439278 C135.450658,35.439278 134.815078,34.947078 134.815078,34.099638 C134.815078,33.806458 134.913518,33.558218 135.110398,33.361338 C135.668938,32.796378 136.884458,32.732178 137.789678,32.732178 C137.933058,32.732178 138.067878,32.734318 138.196278,32.736458 L138.463778,32.736458 L139.133598,32.736458 L139.133598,33.044618 Z M140.464678,34.718098 L140.464678,31.719958 C140.464678,30.968818 140.443278,30.348218 139.713538,29.723338 C139.088658,29.188338 138.025078,28.888738 136.952938,28.888738 C135.865818,28.888738 133.993318,29.201178 133.642358,30.697038 L135.133938,30.697038 C135.354358,30.217678 136.047718,29.856018 136.952938,29.856018 C138.245498,29.856018 139.133598,30.427398 139.133598,31.538058 L139.133598,31.779878 L138.399578,31.779878 C138.273318,31.779878 138.127798,31.777738 137.982278,31.777738 C136.717538,31.777738 134.808658,31.829098 133.894878,32.764278 C133.550338,33.115238 133.376998,33.564638 133.376998,34.099638 C133.376998,35.449978 134.539018,36.397998 136.263858,36.397998 C137.616338,36.397998 138.446658,36.173298 139.182818,35.184618 C139.182818,35.184618 139.191378,35.803078 139.255578,36.258898 L140.565258,36.258898 C140.565258,36.258898 140.464678,35.464958 140.464678,34.718098 L140.464678,34.718098 Z" id="Fill-26" fill="#231F20"></path>
            <path d="M151.340372,28.890022 C149.833812,28.890022 149.071972,29.844462 148.710312,30.627702 C148.301572,29.579102 147.374952,28.890022 146.281412,28.890022 C145.136512,28.890022 144.276232,29.440002 143.756212,30.403002 C143.756212,30.403002 143.749792,29.737462 143.698432,29.024842 L142.412292,29.024842 C142.452952,29.564122 142.459372,30.223242 142.459372,30.792482 L142.459372,36.258042 L143.818272,36.258042 L143.818272,32.780542 C143.818272,30.801042 144.907532,29.900102 145.986092,29.900102 C147.109592,29.900102 147.638172,30.751822 147.638172,32.579382 L147.638172,36.258042 L148.992792,36.258042 L148.992792,32.780542 C148.992792,31.727662 149.270992,30.942282 149.818832,30.437242 C150.351692,29.942902 150.950892,29.900102 151.119952,29.900102 C151.776932,29.900102 152.207072,30.118382 152.472432,30.584902 C152.722812,31.010762 152.831952,31.663462 152.831952,32.645722 L152.831952,36.258042 L154.195132,36.258042 L154.195132,32.110722 C154.195132,31.023602 153.919072,30.195422 153.379792,29.656142 C152.898292,29.174642 152.209212,28.890022 151.340372,28.890022" id="Fill-28" fill="#231F20"></path>
            <path d="M161.233592,32.323652 L158.965192,31.854992 C157.890912,31.638852 157.417972,31.349952 157.417972,30.862032 C157.417972,30.202912 158.267552,29.860512 159.504472,29.860512 C160.520972,29.860512 161.248572,30.132292 161.479692,30.695112 L162.960572,30.695112 C162.855712,30.063812 162.500472,29.603712 161.877732,29.299832 C161.169392,28.951012 160.167872,28.878252 159.545132,28.878252 C158.586412,28.878252 157.773212,29.055872 157.184712,29.391852 C156.508472,29.779192 156.056932,30.344152 156.056932,31.078172 C156.056932,32.034752 156.760992,32.610412 158.032152,32.886472 L160.178572,33.344432 C160.919012,33.500652 161.678712,33.708232 161.678712,34.333112 C161.678712,35.086392 160.893332,35.450192 159.465952,35.450192 C158.284672,35.450192 157.569912,35.112072 157.334512,34.403732 L155.840792,34.403732 C156.127552,36.053672 157.856672,36.406772 159.303312,36.406772 C161.873452,36.406772 163.123212,35.668472 163.123212,34.151212 C163.123212,33.130432 162.575372,32.601852 161.233592,32.323652" id="Fill-30" fill="#231F20"></path>
            <path d="M100.9438,27.04684 C100.20336,27.04684 99.55708,27.12388 99.01352,27.569 C98.7824,27.75946 98.55556,28.05906 98.41432,28.47636 C98.28806,28.8637 98.25382,29.26602 98.24312,29.95082 L96.7601,29.95082 L96.7601,30.93094 L98.24312,30.93094 L98.24098,36.25954 L99.6277,36.25954 L99.6277,30.93094 L102.12722,30.93094 L102.12722,29.95082 L99.6277,29.95082 C99.6277,28.94502 99.67264,28.61974 99.9701,28.3394 C100.16912,28.15108 100.4623,28.02054 101.1257,28.02054 C101.52374,28.02054 101.95174,28.06548 102.20854,28.14252 L102.20854,27.14742 C101.8533,27.0875 101.43814,27.04684 100.9438,27.04684" id="Fill-32" fill="#231F20"></path>
            <path d="M66.402702,32.233772 C66.130922,33.106892 65.837742,34.082732 65.480362,35.304672 L65.473942,35.304672 C65.182902,34.328832 64.870462,33.318752 64.553742,32.300112 L63.595022,29.366172 L63.592882,29.353332 L61.487122,29.353332 L60.526262,32.300112 C60.203122,33.282372 59.892822,34.292452 59.603922,35.304672 L59.597502,35.304672 C59.240122,34.080592 58.949082,33.104752 58.679442,32.233772 L57.787062,29.366172 L57.782782,29.353332 L56.278362,29.353332 L58.510382,36.246272 L58.514662,36.256972 L60.622562,36.256972 L61.617662,33.269532 C61.696842,33.017012 61.776022,32.762352 61.855202,32.509832 C62.079902,31.792932 62.315302,31.048212 62.535722,30.309912 L62.542142,30.309912 C62.773262,31.082452 63.019362,31.857132 63.254762,32.608272 C63.325382,32.826552 63.396002,33.049112 63.464482,33.271672 L64.455302,36.246272 L64.457442,36.256972 L66.563202,36.256972 L68.795222,29.376872 L68.801642,29.353332 L67.297222,29.353332 L66.402702,32.233772 Z" id="Fill-34" fill="#231F20"></path>
            <path d="M82.852026,28.965136 C81.486706,29.072136 80.759106,29.934556 80.301146,30.773436 L80.301146,29.027196 L79.077066,29.027196 L79.077066,36.258256 L80.463786,36.258256 L80.463786,32.453336 C80.498026,31.753556 80.761246,31.180036 81.251306,30.752036 C81.737086,30.324036 82.359826,30.103616 83.100266,30.103616 L83.772226,30.090776 L83.772226,28.965136 L83.755106,28.965136 C83.541106,28.943736 83.003966,28.952296 82.852026,28.965136" id="Fill-36" fill="#231F20"></path>
            <path d="M70.992146,32.054012 C70.998566,31.925612 71.037086,31.780092 71.069186,31.653832 C71.364506,30.491812 72.209806,29.847672 73.498086,29.847672 C75.154446,29.847672 75.777186,31.005412 75.805006,32.054012 L70.992146,32.054012 Z M76.277946,29.877632 C75.640226,29.246332 74.713606,28.878252 73.530186,28.878252 C71.043506,28.878252 69.620406,30.327032 69.620406,32.775192 C69.620406,33.862312 69.969226,34.765392 70.636906,35.390272 C71.308866,36.023712 72.323226,36.404632 73.519486,36.404632 C74.424706,36.404632 75.242186,36.177792 75.852086,35.828972 C76.434166,35.495132 76.919946,35.030752 77.106126,34.403732 L75.597426,34.403732 C75.229346,35.077832 74.424706,35.437352 73.440306,35.437352 C72.436646,35.437352 71.681226,34.981532 71.274626,34.168332 C71.111986,33.840912 70.990006,33.434312 70.957906,33.021292 L77.234526,33.021292 L77.234526,32.601852 C77.234526,31.429132 76.913526,30.511072 76.277946,29.877632 L76.277946,29.877632 Z" id="Fill-38" fill="#231F20"></path>
            <path d="M125.484678,32.054012 C125.493238,31.925612 125.529618,31.780092 125.561718,31.653832 C125.859178,30.491812 126.704478,29.847672 127.992758,29.847672 C129.649118,29.847672 130.271858,31.005412 130.299678,32.054012 L125.484678,32.054012 Z M130.770478,29.877632 C130.134898,29.246332 129.208278,28.878252 128.022718,28.878252 C125.538178,28.878252 124.112938,30.327032 124.112938,32.775192 C124.112938,33.862312 124.463898,34.765392 125.129438,35.390272 C125.803538,36.023712 126.817898,36.404632 128.012018,36.404632 C128.917238,36.404632 129.734718,36.177792 130.344618,35.828972 C130.928838,35.495132 131.414618,35.030752 131.600798,34.403732 L130.092098,34.403732 C129.724018,35.077832 128.917238,35.437352 127.932838,35.437352 C126.929178,35.437352 126.173758,34.981532 125.769298,34.168332 C125.606658,33.840912 125.484678,33.434312 125.452578,33.021292 L131.729198,33.021292 C131.744178,32.777332 131.735618,32.514112 131.699238,32.116072 C131.641458,31.441972 131.446718,30.553872 130.770478,29.877632 L130.770478,29.877632 Z" id="Fill-40" fill="#231F20"></path>
            <path d="M27.362468,32.054012 C27.371028,31.925612 27.407408,31.780092 27.439508,31.653832 C27.736968,30.491812 28.580128,29.847672 29.868408,29.847672 C31.526908,29.847672 32.149648,31.005412 32.177468,32.054012 L27.362468,32.054012 Z M32.648268,29.877632 C32.012688,29.246332 31.083928,28.878252 29.900508,28.878252 C27.415968,28.878252 25.990728,30.327032 25.990728,32.775192 C25.990728,33.862312 26.341688,34.765392 27.007228,35.390272 C27.681328,36.023712 28.693548,36.404632 29.889808,36.404632 C30.795028,36.404632 31.612508,36.177792 32.222408,35.828972 C32.806628,35.495132 33.290268,35.030752 33.478588,34.403732 L31.967748,34.403732 C31.601808,35.077832 30.795028,35.437352 29.810628,35.437352 C28.806968,35.437352 28.051548,34.981532 27.647088,34.168332 C27.482308,33.840912 27.362468,33.434312 27.330368,33.021292 L33.604848,33.021292 L33.604848,32.601852 C33.604848,31.429132 33.283848,30.511072 32.648268,29.877632 L32.648268,29.877632 Z" id="Fill-42" fill="#231F20"></path>
        </g>
    </g>
</svg>