<?xml version="1.0" encoding="UTF-8"?>
<svg width="147px" height="32px" viewBox="0 0 147 32" version="1.1" xmlns="http://www.w3.org/2000/svg" xmlns:xlink="http://www.w3.org/1999/xlink">
    <title>honda-logo-pod2</title>
    <defs>
        <polygon id="path-1" points="0.694751012 0.681868211 31.9677485 0.681868211 31.9677485 17.2215433 0.694751012 17.2215433"></polygon>
    </defs>
    <g id="Symbols" stroke="none" stroke-width="1" fill="none" fill-rule="evenodd">
        <g id="honda-logo-pod2">
            <g id="Fill-1-Clipped" transform="translate(114.104802, 0.023576)">
                <mask id="mask-2" fill="white">
                    <use xlink:href="#path-1"></use>
                </mask>
                <g id="path-1"></g>
                <path d="M11.31754,9.23420715 L17.7405361,9.23420715 L14.4995916,4.13445867 L11.31754,9.23420715 M0.694751012,17.2215433 L0.694751012,15.0020208 L2.92899665,14.7462052 C3.70748586,14.6523448 4.04059827,13.9456312 4.13261827,13.7799952 L9.72559396,4.68473828 C10.1820132,3.97250347 9.74031716,3.33756546 9.14954875,3.27131105 L6.2067491,2.93083705 L6.2067491,0.681868211 L18.9441577,0.681868211 C19.6527117,0.681868211 20.1091309,1.17509542 20.4072757,1.59838743 L27.8443323,12.964698 C28.4314199,13.8793768 28.8804775,14.5916116 29.6258395,14.6891528 L31.9686687,14.9486492 L31.9686687,17.2215433 L17.6521969,17.2215433 L17.6521969,14.979936 L19.4705121,14.7572476 C20.3428617,14.657866 21.0550966,14.2603396 20.3428617,13.1984288 L19.6527117,12.1586028 L9.49738436,12.1586028 L8.71705474,13.4229576 C8.23118914,14.1959256 8.71705474,14.657866 9.46241676,14.7572476 L11.280732,14.979936 L11.280732,17.2215433 L0.694751012,17.2215433" id="Fill-1" fill="#EC1B2E" fill-rule="nonzero" mask="url(#mask-2)"></path>
            </g>
            <path d="M102.780268,14.068957 L98.5602311,14.068957 L98.5602311,3.86761958 L102.780268,3.86761958 C106.807064,3.86761958 108.500232,4.8043832 108.500232,8.96184687 C108.500232,13.1524377 106.807064,14.068957 102.780268,14.068957 M105.307138,0.703971932 L88.9312582,0.703971932 L88.9312582,2.95478117 L90.9906658,3.16090597 C91.7489106,3.27501077 92.0599382,3.83081158 92.0599382,4.5798544 L92.0599382,13.4837097 C92.0599382,14.0984034 91.8022822,14.6818102 91.1231746,14.7811918 L88.9238966,15.062773 L88.9238966,17.234445 L105.307138,17.2454874 C112.850937,17.2454874 116.091882,13.5794105 116.091882,8.73731807 C116.091882,4.38661239 112.850937,0.703971932 105.307138,0.703971932" id="Fill-4" fill="#EC1B2E" fill-rule="nonzero"></path>
            <path d="M0,17.2447512 L13.2508802,17.2447512 L13.2508802,15.0381116 L10.9835074,14.7804556 C10.466355,14.7123608 9.94368137,14.38661 9.94368137,13.2842104 L9.94368137,10.6193111 L20.1431783,10.6193111 L20.1431783,13.1517016 C20.1431783,13.9044252 20.0180311,14.6148196 19.1327987,14.7123608 L16.8286179,14.9736976 L16.8286179,17.2447512 L30.0794981,17.2447512 L30.0794981,14.9736976 L27.7403497,14.7123608 C27.2876113,14.6479468 26.766778,14.285388 26.766778,13.3504648 L26.766778,4.74291384 C26.766778,3.86688342 27.0851673,3.27427461 27.7716365,3.21538181 L30.0794981,2.95404501 L30.0794981,0.705076172 L16.8286179,0.705076172 L16.8286179,2.92459861 L19.1327987,3.21538181 C19.9131283,3.31476342 20.1431783,3.92945703 20.1431783,4.74291384 L20.1431783,7.31211228 L9.94368137,7.31211228 L9.94368137,4.70794624 C9.94368137,3.73069382 10.3338462,3.27427461 11.0129538,3.21538181 L13.2508802,2.95404501 L13.2508802,0.705076172 L0.0312868005,0.705076172 L0.0312868005,2.95404501 L2.24344764,3.21538181 C3.12131845,3.31476342 3.34768766,3.96258423 3.31640086,4.80364704 L3.31640086,13.1885096 C3.31640086,14.1252732 3.05690445,14.681074 2.21216084,14.7804556 L0,15.0381116 L0,17.2447512" id="Fill-6" fill="#EC1B2E" fill-rule="nonzero"></path>
            <path d="M44.23972,3.24758881 C40.4761019,3.24758881 38.3338763,4.64813324 38.3338763,8.93074411 C38.3338763,13.2832902 40.4761019,14.6819942 44.23972,14.6819942 C48.0070188,14.6819942 50.1547657,13.2832902 50.1547657,8.93074411 C50.1547657,4.64813324 48.0070188,3.24758881 44.23972,3.24758881 M30.7311838,8.89209571 C30.7311838,3.70216762 34.9217746,0.061856361 44.2728472,0.061856361 C53.5650269,0.061856361 57.761139,3.70216762 57.761139,8.89209571 C57.761139,14.2200538 53.5650269,17.8272379 44.2728472,17.8272379 C34.9217746,17.8272379 30.7311838,14.2200538 30.7311838,8.89209571" id="Fill-8" fill="#EC1B2E" fill-rule="nonzero"></path>
            <path d="M58.4938023,17.2447512 L69.0816236,17.2447512 L69.0816236,15.0381116 L66.8068892,14.7804556 C66.1609088,14.7123608 65.7670632,14.165762 65.7670632,13.4148788 L65.7670632,5.00241024 L74.5715369,16.5969304 C74.8660009,16.981574 75.4144401,17.2447512 75.9389541,17.2447512 L84.2465199,17.2447512 L84.2465199,4.70794624 C84.2465199,4.11717783 84.3992731,3.31660382 85.2513783,3.21538181 L87.5610803,2.95404501 L87.5610803,0.705076172 L76.973259,0.705076172 L76.973259,2.92459861 L79.2848014,3.21538181 C80.0945774,3.31476342 80.2896598,3.99571143 80.2896598,4.77051984 L80.2896598,12.9603 L71.5496001,1.42835338 C71.2256897,1.00874218 70.8042381,0.705076172 70.187704,0.705076172 L58.4938023,0.705076172 L58.4938023,2.95404501 L60.7022823,3.21538181 C61.4789311,3.33132702 61.7715547,3.72517262 61.7715547,4.80364704 L61.7715547,13.1885096 C61.7715547,14.1804852 61.5028563,14.6553084 60.6691551,14.7804556 L58.4938023,15.0381116 L58.4938023,17.2447512" id="Fill-10" fill="#EC1B2E" fill-rule="nonzero"></path>
            <polygon id="Fill-12" fill="#FFFFFF" fill-rule="nonzero" points="5.36310973 24.2955078 8.71999939 24.2955078 8.71999939 31.1749231 9.93466341 31.1749231 9.93466341 24.2955078 13.2510643 24.2955078 13.2510643 23.380829 5.36310973 23.380829"></polygon>
            <path d="M18.1399029,25.0717885 C17.0706305,25.0717885 16.1946001,25.4969209 15.6664053,26.2735698 L15.6664053,23.3804609 L14.49223,23.3804609 L14.49223,31.1782358 L15.6664053,31.1782358 L15.6664053,28.404753 C15.6664053,26.5441086 16.8553037,25.8797242 17.9650649,25.8797242 C19.1410805,25.8797242 19.7631357,26.564353 19.7631357,27.8544734 L19.7631357,31.1782358 L20.9354705,31.1782358 L20.9354705,27.7992614 C20.9354705,26.0416794 19.9416545,25.0717885 18.1399029,25.0717885" id="Fill-14" fill="#FFFFFF" fill-rule="nonzero"></path>
            <path d="M46.4395501,28.0696161 C46.4395501,28.7597662 46.2260637,29.3486942 45.8211757,29.7738266 C45.3960433,30.2247246 44.7703073,30.4621362 44.0175837,30.4621362 C43.2685409,30.4621362 42.6501665,30.2247246 42.2268745,29.7738266 C41.8256673,29.3486942 41.6177021,28.7597662 41.6177021,28.0696161 C41.6177021,26.5733709 42.5139769,25.6789365 44.0175837,25.6789365 C45.5579985,25.6789365 46.4395501,26.5494457 46.4395501,28.0696161 M46.7560989,25.6826173 C46.1322033,25.1194549 45.2101629,24.8341929 44.0175837,24.8341929 C42.8802165,24.8341929 41.9452933,25.1415397 41.314036,25.7267869 C40.7030232,26.2862685 40.3772724,27.0997253 40.3772724,28.0696161 C40.3772724,29.1020806 40.6938212,29.904495 41.314036,30.4621362 C41.9397721,31.0234582 42.8489297,31.3087202 44.0175837,31.3087202 C46.3769765,31.3087202 47.676299,30.1584702 47.676299,28.0696161 C47.676299,27.0389921 47.3671117,26.2384181 46.7560989,25.6826173" id="Fill-16" fill="#FFFFFF" fill-rule="nonzero"></path>
            <path d="M77.1549064,26.3442411 C77.5763581,25.9099067 78.1984133,25.6798567 78.9548177,25.6798567 C80.4970729,25.6798567 81.3841457,26.5485255 81.3841457,28.0686959 C81.3841457,28.7551652 81.1688189,29.3440932 80.7565693,29.7692256 C80.3259157,30.221964 79.7020201,30.461216 78.9548177,30.461216 C77.484338,30.461216 76.5328512,29.5244524 76.5328512,28.0686959 C76.5328512,27.3601419 76.748178,26.7638523 77.1549064,26.3442411 M81.6914925,25.6835375 C81.0694373,25.1203751 80.1473969,24.8351131 78.9548177,24.8351131 C77.8156101,24.8351131 76.8806868,25.1424599 76.2439084,25.7258667 C75.6236936,26.2908695 75.2979428,27.1006455 75.2979428,28.0686959 C75.2979428,30.15755 76.5954248,31.3078 78.9548177,31.3078 C80.1253121,31.3078 81.0363101,31.0243784 81.6675673,30.461216 C82.2914629,29.9054152 82.6080117,29.09932 82.6080117,28.0686959 C82.6080117,27.0399123 82.3025053,26.2356575 81.6914925,25.6835375" id="Fill-18" fill="#FFFFFF" fill-rule="nonzero"></path>
            <path d="M105.337872,24.9100174 C104.160016,25.0020374 103.536121,25.7437186 103.142275,26.4651554 L103.142275,24.963389 L102.089566,24.963389 L102.089566,31.1821007 L103.282145,31.1821007 L103.282145,27.9098694 C103.311592,27.3080586 103.537961,26.8148314 103.959413,26.4467514 C104.379024,26.0786714 104.91274,25.8891102 105.549518,25.8891102 L106.127404,25.8780678 L106.127404,24.9100174 L106.112681,24.9100174 C105.928641,24.8916134 105.4667,24.898975 105.337872,24.9100174" id="Fill-20" fill="#FFFFFF" fill-rule="nonzero"></path>
            <path d="M38.3752853,25.7026777 C38.3752853,26.8050773 37.7513897,27.2964641 36.3563664,27.2964641 L33.9638464,27.2964641 L33.9638464,24.2653252 L36.2753888,24.2653252 C37.7072201,24.2653252 38.3752853,24.7217445 38.3752853,25.7026777 M36.2974736,23.3745716 C36.2882716,23.3745716 32.7510228,23.385614 32.7510228,23.385614 L32.7510228,31.1778678 L33.9638464,31.1778678 L33.9638464,28.1816965 L36.4631096,28.1816965 C37.5121377,28.1816965 38.3311157,27.9442849 38.8850761,27.4805041 C39.3967073,27.0498505 39.6672461,26.4333165 39.6672461,25.6916353 C39.6672461,25.0751013 39.4758445,24.572672 39.1022433,24.1972304 C38.5556445,23.6506316 37.6096789,23.3745716 36.2974736,23.3745716" id="Fill-22" fill="#FFFFFF" fill-rule="nonzero"></path>
            <path d="M93.5981446,24.2737911 L95.5618514,24.2737911 C96.977119,24.2737911 97.8917978,24.5204047 98.4439178,25.0357167 C98.9334642,25.4994975 99.1543122,26.1970091 99.1543122,27.2846855 C99.1543122,29.310966 98.0371894,30.2937396 95.7385298,30.2937396 L93.5981446,30.2937396 L93.5981446,24.2737911 Z M99.3181079,24.3915767 C98.559863,23.7179903 97.3930494,23.3793567 95.845273,23.3793567 L92.3687573,23.3793567 L92.3687573,31.1844932 L95.8894426,31.1844932 C97.3304758,31.1844932 98.458641,30.8403384 99.2389707,30.175954 C100.021141,29.4968464 100.418667,28.5269556 100.418667,27.2773239 C100.418667,26.0074479 100.048747,25.0357167 99.3181079,24.3915767 L99.3181079,24.3915767 Z" id="Fill-24" fill="#FFFFFF" fill-rule="nonzero"></path>
            <path d="M119.654896,28.418372 C119.654896,29.7876296 118.944502,30.4777796 117.481384,30.4777796 C116.487568,30.4777796 115.940969,30.0544876 115.940969,29.3256892 C115.940969,29.0735544 116.025627,28.860068 116.194944,28.6907512 C116.675289,28.2048855 117.720636,28.1496735 118.499125,28.1496735 C118.622432,28.1496735 118.738377,28.1515139 118.848801,28.1533543 L119.078851,28.1533543 L119.654896,28.1533543 L119.654896,28.418372 Z M120.799625,29.8575648 L120.799625,27.2791643 C120.799625,26.6331839 120.781221,26.0994679 120.153645,25.5620711 C119.616248,25.1019711 118.701569,24.8443151 117.779529,24.8443151 C116.844605,24.8443151 115.234255,25.1130135 114.93243,26.3994531 L116.215189,26.3994531 C116.40475,25.9872035 117.001039,25.6761759 117.779529,25.6761759 C118.89113,25.6761759 119.654896,26.1675627 119.654896,27.1227303 L119.654896,27.3306955 L119.023639,27.3306955 C118.915055,27.3306955 118.789908,27.3288551 118.664761,27.3288551 C117.577085,27.3288551 115.935448,27.3730247 115.149597,28.1772795 C114.853293,28.4791052 114.70422,28.8655892 114.70422,29.3256892 C114.70422,30.4869816 115.703557,31.3022788 117.18692,31.3022788 C118.350053,31.3022788 119.064128,31.1090368 119.697225,30.258772 C119.697225,30.258772 119.704587,30.7906476 119.759799,31.1826528 L120.886124,31.1826528 C120.886124,31.1826528 120.799625,30.4998644 120.799625,29.8575648 L120.799625,29.8575648 Z" id="Fill-26" fill="#FFFFFF" fill-rule="nonzero"></path>
            <path d="M130.152722,24.8454193 C128.85708,24.8454193 128.201898,25.6662377 127.89087,26.3398242 C127.539354,25.4380281 126.742461,24.8454193 125.802016,24.8454193 C124.817402,24.8454193 124.077562,25.3184021 123.630344,26.1465822 C123.630344,26.1465822 123.624823,25.5742177 123.580654,24.9613645 L122.474573,24.9613645 C122.509541,25.4251453 122.515062,25.9919886 122.515062,26.481535 L122.515062,31.1819166 L123.683716,31.1819166 L123.683716,28.1912666 C123.683716,26.4888966 124.62048,25.7140881 125.548041,25.7140881 C126.514251,25.7140881 126.96883,26.4465674 126.96883,28.018269 L126.96883,31.1819166 L128.133803,31.1819166 L128.133803,28.1912666 C128.133803,27.2857898 128.373055,26.610363 128.844198,26.1760286 C129.302457,25.7508961 129.817769,25.7140881 129.963161,25.7140881 C130.528164,25.7140881 130.898084,25.901809 131.126294,26.3030162 C131.341621,26.6692558 131.435481,27.2305778 131.435481,28.0753214 L131.435481,31.1819166 L132.607816,31.1819166 L132.607816,27.6152214 C132.607816,26.6802982 132.370404,25.9680634 131.906623,25.5042825 C131.492533,25.0901925 130.899924,24.8454193 130.152722,24.8454193" id="Fill-28" fill="#FFFFFF" fill-rule="nonzero"></path>
            <path d="M138.660891,27.7983412 L136.710067,27.3952936 C135.786187,27.2094132 135.379458,26.9609592 135.379458,26.541348 C135.379458,25.9745048 136.110097,25.6800407 137.173848,25.6800407 C138.048038,25.6800407 138.673774,25.9137716 138.872537,26.3977968 L140.146094,26.3977968 C140.055915,25.8548788 139.750408,25.4591927 139.214852,25.1978559 C138.605679,24.8978707 137.744372,24.8352971 137.208816,24.8352971 C136.384317,24.8352971 135.684965,24.9880503 135.178855,25.2769931 C134.597288,25.6101055 134.208964,26.0959712 134.208964,26.7272284 C134.208964,27.5498872 134.814455,28.0449548 135.907653,28.2823664 L137.753574,28.676212 C138.390353,28.8105612 139.043695,28.98908 139.043695,29.5264768 C139.043695,30.1742976 138.368268,30.4871656 137.140721,30.4871656 C136.12482,30.4871656 135.510127,30.1963824 135.307683,29.58721 L134.023083,29.58721 C134.269697,31.0061584 135.75674,31.3098244 137.000851,31.3098244 C139.211171,31.3098244 140.285965,30.6748864 140.285965,29.3700428 C140.285965,28.492172 139.814822,28.0375932 138.660891,27.7983412" id="Fill-30" fill="#FFFFFF" fill-rule="nonzero"></path>
            <path d="M86.8116694,23.2602828 C86.174891,23.2602828 85.6190902,23.3265372 85.1516286,23.7093404 C84.9528654,23.873136 84.757783,24.130792 84.6363166,24.48967 C84.527733,24.8227824 84.4982866,25.1687776 84.4890846,25.7577056 L83.2136874,25.7577056 L83.2136874,26.6006088 L84.4890846,26.6006088 L84.4872442,31.1832049 L85.6798234,31.1832049 L85.6798234,26.6006088 L87.8294107,26.6006088 L87.8294107,25.7577056 L85.6798234,25.7577056 C85.6798234,24.8927176 85.7184718,24.6129768 85.9742874,24.3718844 C86.1454446,24.2099292 86.3975794,24.0976648 86.9681034,24.0976648 C87.3104179,24.0976648 87.6784979,24.1363132 87.8993459,24.2025676 L87.8993459,23.3467816 C87.5938395,23.2952504 87.2368019,23.2602828 86.8116694,23.2602828" id="Fill-32" fill="#FFFFFF" fill-rule="nonzero"></path>
            <path d="M57.1063247,27.7210444 C56.8725939,28.4719276 56.6204591,29.31115 56.3131123,30.3620184 L56.3075911,30.3620184 C56.0572967,29.522796 55.7885982,28.6541272 55.516219,27.7780968 L54.6917198,25.2549083 L54.6898794,25.2438659 L52.8789258,25.2438659 L52.0525862,27.7780968 C51.7746858,28.6228404 51.5078278,29.4915092 51.2593738,30.3620184 L51.2538526,30.3620184 C50.9465058,29.3093096 50.6962114,28.4700872 50.464321,27.7210444 L49.6968741,25.2549083 L49.6931933,25.2438659 L48.3993921,25.2438659 L50.3189294,31.1717944 L50.3226102,31.1809964 L52.1354042,31.1809964 L52.9911902,28.611798 C53.059285,28.3946308 53.1273798,28.1756232 53.1954746,27.958456 C53.3887166,27.341922 53.5911606,26.7014628 53.7807218,26.0665248 L53.786243,26.0665248 C53.9850062,26.7309092 54.1966522,27.397134 54.3990962,28.0431144 C54.4598294,28.2308352 54.5205626,28.4222368 54.5794554,28.6136384 L55.4315606,31.1717944 L55.433401,31.1809964 L57.2443547,31.1809964 L59.1638919,25.2641103 L59.1694131,25.2438659 L57.8756119,25.2438659 L57.1063247,27.7210444 Z" id="Fill-34" fill="#FFFFFF" fill-rule="nonzero"></path>
            <path d="M71.2527435,24.9100174 C70.0785683,25.0020374 69.4528323,25.7437186 69.0589867,26.4651554 L69.0589867,24.963389 L68.0062779,24.963389 L68.0062779,31.1821007 L69.1988571,31.1821007 L69.1988571,27.9098694 C69.2283035,27.3080586 69.4546727,26.8148314 69.8761243,26.4467514 C70.2938951,26.0786714 70.8294515,25.8891102 71.4662299,25.8891102 L72.0441156,25.8780678 L72.0441156,24.9100174 L72.0293924,24.9100174 C71.8453524,24.8916134 71.3834119,24.898975 71.2527435,24.9100174" id="Fill-36" fill="#FFFFFF" fill-rule="nonzero"></path>
            <path d="M61.0532466,27.5664508 C61.0587678,27.4560268 61.091895,27.3308796 61.119501,27.222296 C61.3734762,26.2229588 62.1004342,25.6689983 63.208355,25.6689983 C64.6328246,25.6689983 65.168381,26.6646548 65.1923062,27.5664508 L61.0532466,27.5664508 Z M65.5990347,25.6947639 C65.0505954,25.1518459 64.2537022,24.8352971 63.235961,24.8352971 C61.0974162,24.8352971 59.8735502,26.081248 59.8735502,28.1866656 C59.8735502,29.1215888 60.1735354,29.8982376 60.7477402,30.4356344 C61.3256258,30.9803928 62.1979754,31.307984 63.226759,31.307984 C64.0052482,31.307984 64.708281,31.1129016 65.232795,30.8129164 C65.7333839,30.525814 66.1511547,30.1264472 66.3112695,29.58721 L65.0137874,29.58721 C64.6972386,30.166936 64.0052482,30.4761232 63.1586642,30.4761232 C62.2955166,30.4761232 61.6458554,30.084118 61.2961794,29.384766 C61.156309,29.1031848 61.0514062,28.7535088 61.0238002,28.3983116 L66.4216935,28.3983116 L66.4216935,28.0375932 C66.4216935,27.029054 66.1456335,26.2395224 65.5990347,25.6947639 L65.5990347,25.6947639 Z" id="Fill-38" fill="#FFFFFF" fill-rule="nonzero"></path>
            <path d="M107.916825,27.5664508 C107.924186,27.4560268 107.955473,27.3308796 107.983079,27.222296 C108.238895,26.2229588 108.965853,25.6689983 110.073774,25.6689983 C111.498243,25.6689983 112.0338,26.6646548 112.057725,27.5664508 L107.916825,27.5664508 Z M112.462613,25.6947639 C111.916014,25.1518459 111.119121,24.8352971 110.099539,24.8352971 C107.962835,24.8352971 106.737128,26.081248 106.737128,28.1866656 C106.737128,29.1215888 107.038954,29.8982376 107.611318,30.4356344 C108.191044,30.9803928 109.063394,31.307984 110.090337,31.307984 C110.868827,31.307984 111.571859,31.1129016 112.096373,30.8129164 C112.598803,30.525814 113.016573,30.1264472 113.176688,29.58721 L111.879206,29.58721 C111.562657,30.166936 110.868827,30.4761232 110.022243,30.4761232 C109.159095,30.4761232 108.509434,30.084118 108.161598,29.384766 C108.021728,29.1031848 107.916825,28.7535088 107.889219,28.3983116 L113.287112,28.3983116 C113.299995,28.188506 113.292633,27.9621368 113.261347,27.6198224 C113.211656,27.0400964 113.044179,26.2763304 112.462613,25.6947639 L112.462613,25.6947639 Z" id="Fill-40" fill="#FFFFFF" fill-rule="nonzero"></path>
            <path d="M23.5317229,27.5664508 C23.5390845,27.4560268 23.5703713,27.3308796 23.5979773,27.222296 C23.8537929,26.2229588 24.5789105,25.6689983 25.6868313,25.6689983 C27.1131413,25.6689983 27.6486977,26.6646548 27.6726229,27.5664508 L23.5317229,27.5664508 Z M28.0775109,25.6947639 C27.5309121,25.1518459 26.7321785,24.8352971 25.7144373,24.8352971 C23.5777329,24.8352971 22.3520265,26.081248 22.3520265,28.1866656 C22.3520265,29.1215888 22.6538521,29.8982376 23.2262165,30.4356344 C23.8059425,30.9803928 24.6764517,31.307984 25.7052353,31.307984 C26.4837245,31.307984 27.1867573,31.1129016 27.7112713,30.8129164 C28.2137005,30.525814 28.629631,30.1264472 28.7915862,29.58721 L27.4922637,29.58721 C27.1775553,30.166936 26.4837245,30.4761232 25.6371405,30.4761232 C24.7739929,30.4761232 24.1243317,30.084118 23.7764961,29.384766 C23.6347853,29.1031848 23.5317229,28.7535088 23.5041169,28.3983116 L28.9001698,28.3983116 L28.9001698,28.0375932 C28.9001698,27.029054 28.6241098,26.2395224 28.0775109,25.6947639 L28.0775109,25.6947639 Z" id="Fill-42" fill="#FFFFFF" fill-rule="nonzero"></path>
        </g>
    </g>
</svg>