<svg xmlns="http://www.w3.org/2000/svg" width="34.394" height="34.394" viewBox="0 0 34.394 34.394">
  <path id="Icon_material-my-location" data-name="Icon material-my-location" d="M18.7,12.444A6.254,6.254,0,1,0,24.951,18.7,6.252,6.252,0,0,0,18.7,12.444Zm13.977,4.69A14.061,14.061,0,0,0,20.261,4.721V1.5H17.134V4.721A14.061,14.061,0,0,0,4.721,17.134H1.5v3.127H4.721A14.061,14.061,0,0,0,17.134,32.674v3.221h3.127V32.674A14.061,14.061,0,0,0,32.674,20.261h3.221V17.134ZM18.7,29.641A10.944,10.944,0,1,1,29.641,18.7,10.936,10.936,0,0,1,18.7,29.641Z" transform="translate(-1.5 -1.5)" fill="#fff"/>
</svg>
