<svg xmlns="http://www.w3.org/2000/svg" width="32.457" height="36.064" viewBox="0 0 32.457 36.064">
  <path id="Icon_material-date-range" data-name="Icon material-date-range" d="M15.319,19.229H11.713v3.606h3.606Zm7.213,0H18.925v3.606h3.606Zm7.213,0H26.138v3.606h3.606ZM33.351,6.606h-1.8V3H27.941V6.606H13.516V3H9.91V6.606h-1.8a3.59,3.59,0,0,0-3.588,3.606L4.5,35.457a3.605,3.605,0,0,0,3.606,3.606H33.351a3.617,3.617,0,0,0,3.606-3.606V10.213A3.617,3.617,0,0,0,33.351,6.606Zm0,28.851H8.106V15.622H33.351Z" transform="translate(-4.5 -3)" fill="#fff"/>
</svg>
