<?xml version="1.0" encoding="UTF-8"?>
<svg width="25px" height="25px" viewBox="0 0 25 25" version="1.1" xmlns="http://www.w3.org/2000/svg" xmlns:xlink="http://www.w3.org/1999/xlink">
    <title>Icon_Twitter</title>
    <g id="07.-PRESS-RELEASE-✅-" stroke="none" stroke-width="1" fill="none" fill-rule="evenodd">
        <g id="14.1-PRESS-RELEASE-_-INNER-_-DESKTOP" transform="translate(-685.000000, -304.000000)" fill="#E01327">
            <g id="Social-Media" transform="translate(640.000000, 304.000000)">
                <path d="M62.4703125,9.95078125 C62.475,10.0609375 62.478125,10.1710938 62.478125,10.2828125 C62.478125,13.6710938 59.8984375,17.5789063 55.18125,17.5789063 C53.7328125,17.5789063 52.3851562,17.1546875 51.25,16.4273438 C51.4507812,16.4507813 51.6546875,16.4625 51.8617187,16.4625 C53.0632813,16.4625 54.16875,16.053125 55.046875,15.3648438 C53.9242188,15.3445313 52.9773438,14.603125 52.6507812,13.584375 C52.8078125,13.6140625 52.9679687,13.6296875 53.1335938,13.6296875 C53.3671875,13.6296875 53.59375,13.5984375 53.809375,13.5398438 C52.6359375,13.3046875 51.7523438,12.2679688 51.7523438,11.0257813 L51.7523438,10.9929688 C52.0976562,11.1851563 52.49375,11.3007813 52.9140625,11.3140625 C52.2257812,10.8539063 51.7726562,10.06875 51.7726562,9.1796875 C51.7726562,8.709375 51.8992187,8.26875 52.1203125,7.88984375 C53.3851562,9.44140625 55.275,10.4625 57.40625,10.5695312 C57.3625,10.3820313 57.3398437,10.1859375 57.3398437,9.98515625 C57.3398437,8.56875 58.4882812,7.4203125 59.9039062,7.4203125 C60.6421875,7.4203125 61.3085938,7.73203125 61.7757813,8.23046875 C62.3601562,8.115625 62.909375,7.90234375 63.4046875,7.60859375 C63.2132812,8.20703125 62.80625,8.709375 62.2773438,9.02734375 C62.7960937,8.96484375 63.2898438,8.82734375 63.75,8.6234375 C63.40625,9.1375 62.9710938,9.5890625 62.4703125,9.95078125 L62.4703125,9.95078125 Z M45,25 L70,25 L70,0 L45,0 L45,25 Z" id="Twitter"></path>
            </g>
        </g>
    </g>
</svg>