<svg xmlns="http://www.w3.org/2000/svg" width="28.362" height="31.18" viewBox="0 0 28.362 31.18">
  <g id="Icon_feather-share-2" data-name="Icon feather-share-2" transform="translate(-3 -1.5)">
    <path id="Path_12" data-name="Path 12" d="M30.954,7.227A4.227,4.227,0,1,1,26.727,3,4.227,4.227,0,0,1,30.954,7.227Z" transform="translate(-1.092 0)" fill="none" stroke="#fff" stroke-linecap="round" stroke-linejoin="round" stroke-width="3"/>
    <path id="Path_13" data-name="Path 13" d="M12.954,17.727A4.227,4.227,0,1,1,8.727,13.5,4.227,4.227,0,0,1,12.954,17.727Z" transform="translate(0 -0.637)" fill="none" stroke="#fff" stroke-linecap="round" stroke-linejoin="round" stroke-width="3"/>
    <path id="Path_14" data-name="Path 14" d="M30.954,28.227A4.227,4.227,0,1,1,26.727,24,4.227,4.227,0,0,1,30.954,28.227Z" transform="translate(-1.092 -1.274)" fill="none" stroke="#fff" stroke-linecap="round" stroke-linejoin="round" stroke-width="3"/>
    <path id="Path_15" data-name="Path 15" d="M12.885,20.265l9.623,5.608" transform="translate(-0.509 -1.047)" fill="none" stroke="#fff" stroke-linecap="round" stroke-linejoin="round" stroke-width="3"/>
    <path id="Path_16" data-name="Path 16" d="M22.494,9.765l-9.609,5.608" transform="translate(-0.509 -0.41)" fill="none" stroke="#fff" stroke-linecap="round" stroke-linejoin="round" stroke-width="3"/>
  </g>
</svg>
