<?xml version="1.0" encoding="UTF-8"?>
<svg width="25px" height="25px" viewBox="0 0 25 25" version="1.1" xmlns="http://www.w3.org/2000/svg" xmlns:xlink="http://www.w3.org/1999/xlink">
    <title>Icon_Link</title>
    <g id="07.-PRESS-RELEASE-✅-" stroke="none" stroke-width="1" fill="none" fill-rule="evenodd">
        <g id="14.1-PRESS-RELEASE-_-INNER-_-DESKTOP" transform="translate(-775.000000, -304.000000)" fill="#999B9B">
            <g id="Social-Media" transform="translate(640.000000, 304.000000)">
                <path d="M135,0 L160,0 L160,25 L135,25 L135,0 Z M148.018742,10.4869277 C148.220398,10.6025449 148.411437,10.7433105 148.584055,10.9159512 C149.63818,11.9700527 149.699117,13.778373 148.584055,14.8934355 L148.584055,14.8934355 L146.051258,17.4262324 C144.952883,18.5245605 143.172172,18.5245605 142.073797,17.4262324 C140.975469,16.3278574 140.975469,14.547123 142.073797,13.448748 L142.073797,13.448748 L144.60657,10.9159277 C144.61332,10.9092012 144.621477,10.9048652 144.62825,10.898209 C144.489523,11.8696465 144.759195,12.4585371 144.804125,12.7071387 L144.804125,12.7071387 L143.06818,14.443084 C142.519766,14.991498 142.519766,15.8834121 143.06818,16.4318262 C143.616594,16.9802402 144.508508,16.9802402 145.056922,16.4318262 C145.060928,16.4278203 145.081283,16.4074647 145.115284,16.3734644 L145.461379,16.0273689 C145.539137,15.9496108 145.62513,15.8636185 145.716651,15.772097 L146.616592,14.8721563 C146.967816,14.5209318 147.287358,14.2013901 147.459233,14.0295147 L147.589719,13.8990293 C148.142562,13.3461855 148.118773,12.4393418 147.589719,11.9102871 C147.534266,11.854834 147.474195,11.8075137 147.412391,11.7637324 C147.407328,11.526334 147.308281,11.1973418 147.589719,10.9159512 L147.589719,10.9159512 Z M148.448797,7.07374805 C149.547172,5.97539648 151.327906,5.97539648 152.426281,7.07377148 C153.524609,8.17214648 153.524609,9.95288086 152.426281,11.0512559 L152.426281,11.0512559 L150.075641,13.4018965 L150.075641,13.4018965 L150.054008,13.4195684 C150.192711,12.4481309 149.923062,11.8592402 149.878133,11.6106387 L149.878133,11.6106387 L151.431875,10.0568965 C151.980289,9.50848242 151.980289,8.61656836 151.431875,8.0681543 C150.883461,7.51974023 149.991547,7.51974023 149.443133,8.0681543 C149.440966,8.07032074 149.4347,8.07658706 149.424688,8.0865994 L148.916329,8.59495822 C148.831878,8.67940956 148.740935,8.77035237 148.646331,8.86495578 L147.306593,10.2046936 C147.246156,10.2651313 147.196212,10.3150753 147.159592,10.3516947 L147.092539,10.418748 C146.539695,10.9715918 146.563484,11.8784824 147.092539,12.4074902 C147.147992,12.4629434 147.208062,12.5102637 147.26982,12.5540449 C147.274883,12.7914434 147.37393,13.1204355 147.092539,13.401873 L147.092539,13.401873 L146.663516,13.8308965 C146.461812,13.7152793 146.270797,13.5745137 146.098156,13.401873 C145.067211,12.3708809 144.962023,10.5605684 146.098156,9.42438867 L146.098156,9.42438867 Z" id="Link"></path>
            </g>
        </g>
    </g>
</svg>