<?xml version="1.0" encoding="UTF-8"?>
<svg width="22px" height="22px" viewBox="0 0 22 22" version="1.1" xmlns="http://www.w3.org/2000/svg" xmlns:xlink="http://www.w3.org/1999/xlink">
    <title>Mask</title>
    <g id="07.-PRESS-RELEASE-✅-" stroke="none" stroke-width="1" fill="none" fill-rule="evenodd" opacity="0.401529948">
        <g id="14.1-PRESS-RELEASE-_-DESKTOP" transform="translate(-1028.000000, -376.000000)" fill="#191616">
            <g id="Group-3-Copy-3" transform="translate(1008.000000, 365.000000)">
                <path d="M35.7232704,24.836478 L34.7295597,24.836478 L34.3773585,24.4968553 C35.6100629,23.0628931 36.3522013,21.2012579 36.3522013,19.1761006 C36.3522013,14.6603774 32.6918239,11 28.1761006,11 C23.6603774,11 20,14.6603774 20,19.1761006 C20,23.6918239 23.6603774,27.3522013 28.1761006,27.3522013 C30.2012579,27.3522013 32.0628931,26.6100629 33.4968553,25.3773585 L33.836478,25.7295597 L33.836478,26.7232704 L40.1257862,33 L42,31.1257862 L35.7232704,24.836478 L35.7232704,24.836478 Z M28.25,24.75 C25.2066667,24.75 22.75,22.2933333 22.75,19.25 C22.75,16.2066667 25.2066667,13.75 28.25,13.75 C31.2933333,13.75 33.75,16.2066667 33.75,19.25 C33.75,22.2933333 31.2933333,24.75 28.25,24.75 L28.25,24.75 Z" id="Mask"></path>
            </g>
        </g>
    </g>
</svg>