<?xml version="1.0" encoding="UTF-8"?>
<svg width="25px" height="25px" viewBox="0 0 25 25" version="1.1" xmlns="http://www.w3.org/2000/svg" xmlns:xlink="http://www.w3.org/1999/xlink">
    <title>Icon_FB</title>
    <g id="07.-PRESS-RELEASE-✅-" stroke="none" stroke-width="1" fill="none" fill-rule="evenodd">
        <g id="14.1-PRESS-RELEASE-_-INNER-_-DESKTOP" transform="translate(-640.000000, -304.000000)" fill="#999B9B">
            <g id="Social-Media" transform="translate(640.000000, 304.000000)">
                <path d="M15.7460938,8.325 L14.5695313,8.32578125 C13.646875,8.32578125 13.4679688,8.7640625 13.4679688,9.40703125 L13.4679688,10.8257813 L15.66875,10.8257813 L15.3820313,13.0484375 L13.4679688,13.0484375 L13.4679688,18.75 L11.1734375,18.75 L11.1734375,13.0484375 L9.2546875,13.0484375 L9.2546875,10.8257813 L11.1734375,10.8257813 L11.1734375,9.1875 C11.1734375,7.28515625 12.3351563,6.25 14.03125,6.25 C14.84375,6.25 15.5421875,6.31015625 15.7460938,6.3375 L15.7460938,8.325 Z M0,25 L25,25 L25,0 L0,0 L0,25 Z" id="FB"></path>
            </g>
        </g>
    </g>
</svg>