<?xml version="1.0" encoding="UTF-8"?>
<svg width="50px" height="50px" viewBox="0 0 50 50" version="1.1" xmlns="http://www.w3.org/2000/svg" xmlns:xlink="http://www.w3.org/1999/xlink">
    <title>Refresh Icon</title>
    <g id="Refresh-Icon" stroke="none" stroke-width="1" fill="none" fill-rule="evenodd">
        <path d="M25.0684564,4 C15.7583893,4 8.13691275,11.5136842 8.13691275,20.7926316 L8.13691275,22.4673684 L13.7959732,22.4673684 L13.7959732,20.7926316 C13.7959732,14.6368421 18.861745,9.61263158 25.0684564,9.61263158 C31.2751678,9.61263158 36.3409396,14.6368421 36.3409396,20.7926316 C36.3409396,26.9484211 31.2751678,31.9726316 25.0684564,31.9726316 L19.1812081,31.9726316 L24.9315436,26.5863158 L21.052349,22.5126316 L8,34.7336842 L21.0067114,47 L24.885906,42.9263158 L19.1812081,37.54 L25.0684564,37.54 C34.3780671,37.54 42,30.0263158 42,20.7473684 C42,11.4684211 34.3780671,4 25.0684564,4" id="Fill-1" fill="#E01327" transform="translate(25.000000, 25.500000) scale(-1, -1) translate(-25.000000, -25.500000) "></path>
    </g>
</svg>