<svg id="Layer_1" data-name="Layer 1" xmlns="http://www.w3.org/2000/svg" xmlns:xlink="http://www.w3.org/1999/xlink" viewBox="0 0 65 65"><defs><style>.cls-1{fill:#d7d8d8;}.cls-2{fill:url(#radial-gradient);}.cls-3{fill:url(#radial-gradient-2);}.cls-4{fill:url(#radial-gradient-3);}.cls-5{fill:url(#linear-gradient);}.cls-6{fill:url(#linear-gradient-2);}.cls-7{fill:url(#linear-gradient-3);}.cls-8{fill:url(#linear-gradient-4);}.cls-9{fill:url(#radial-gradient-4);}</style><radialGradient id="radial-gradient" cx="35.98" cy="12.5" r="4.34" gradientUnits="userSpaceOnUse"><stop offset="0" stop-color="#ef2546"/><stop offset="1" stop-color="#e00017"/></radialGradient><radialGradient id="radial-gradient-2" cx="35.98" cy="15.71" r="4.34" xlink:href="#radial-gradient"/><radialGradient id="radial-gradient-3" cx="34.83" cy="18.93" r="2.76" xlink:href="#radial-gradient"/><linearGradient id="linear-gradient" x1="13.86" y1="60.77" x2="13.07" y2="43.74" xlink:href="#radial-gradient"/><linearGradient id="linear-gradient-2" x1="14.36" y1="60.75" x2="13.57" y2="43.71" xlink:href="#radial-gradient"/><linearGradient id="linear-gradient-3" x1="51.17" y1="59.04" x2="50.38" y2="42" xlink:href="#radial-gradient"/><linearGradient id="linear-gradient-4" x1="51.67" y1="59.01" x2="50.88" y2="41.98" xlink:href="#radial-gradient"/><radialGradient id="radial-gradient-4" cx="26.1" cy="20.29" r="10.3" xlink:href="#radial-gradient"/></defs><path class="cls-1" d="M49.12,29.31l-4.37-7.85h0a10.68,10.68,0,1,0-5.26,4.36Z"/><rect class="cls-2" x="29.88" y="11.86" width="12.2" height="1.28" rx="0.64"/><rect class="cls-3" x="29.88" y="15.07" width="12.2" height="1.28" rx="0.64"/><rect class="cls-4" x="30.98" y="18.28" width="7.7" height="1.28" rx="0.64"/><path class="cls-5" d="M10.15,47.34c1.82,1,4.8,1.27,6.65,0,3.93.1,10,7.44,10.13,12.24-6.61.2-19.28.23-26.25,0C.81,54.81,5.74,47.57,10.15,47.34Z"/><path class="cls-6" d="M13.3,46.24A5.62,5.62,0,0,1,9.66,45.1a5.39,5.39,0,0,1-1.65-3A20.22,20.22,0,0,1,7.62,37c.39-2.3,2.21-4.15,5.68-4.15S18.59,34.66,19,37a20.71,20.71,0,0,1-.39,5.13,5.46,5.46,0,0,1-1.66,3A5.6,5.6,0,0,1,13.3,46.24Z"/><path class="cls-7" d="M47.54,47.34c1.82,1,4.8,1.27,6.65,0,3.93.1,10,7.44,10.13,12.24-6.62.2-19.28.23-26.25,0C38.2,54.81,43.13,47.57,47.54,47.34Z"/><path class="cls-8" d="M50.69,46.24a5.62,5.62,0,0,1-3.64-1.14,5.39,5.39,0,0,1-1.65-3A20.22,20.22,0,0,1,45,37c.39-2.3,2.2-4.15,5.68-4.15S56,34.66,56.36,37A19.76,19.76,0,0,1,56,42.09a5.39,5.39,0,0,1-1.65,3A5.61,5.61,0,0,1,50.69,46.24Z"/><path class="cls-9" d="M27.76,10.85a9.44,9.44,0,0,0-9.38,8.44L15,27.5,21.13,27h0a9.43,9.43,0,1,0,6.62-16.15Z"/><rect class="cls-1" x="22.5" y="17.37" width="10.46" height="1.1" rx="0.55"/><rect class="cls-1" x="22.5" y="20.12" width="10.46" height="1.1" rx="0.55"/><rect class="cls-1" x="22.5" y="22.87" width="6.6" height="1.1" rx="0.55"/></svg>