<svg xmlns="http://www.w3.org/2000/svg" xmlns:xlink="http://www.w3.org/1999/xlink" width="96.35277557373047" height="96.35275268554688" viewBox="-7527 -15995.66781616211 32.117591857910156 32.117584228515625"><path d="M 16.05881500244141 7.798004150390625 C 7.189785003662109 7.798004150390625 0 14.98778915405273 0 23.85677719116211 C 0 32.72580718994141 7.189785003662109 39.91558837890625 16.05881500244141 39.91558837890625 C 24.92780685424805 39.91558837890625 32.11759185791016 32.72580718994141 32.11759185791016 23.85677719116211 C 32.11759185791016 14.98778915405273 24.92780685424805 7.798004150390625 16.05881500244141 7.798004150390625 M 10.86623859405518 36.15165710449219 C 9.277741432189941 35.47978591918945 7.850584030151367 34.51740646362305 6.624405384063721 33.29118347167969 C 5.398185729980469 32.06497192382812 4.435810089111328 30.63780975341797 3.763934135437012 29.04935836791992 C 3.56766414642334 28.58529853820801 3.399705171585083 28.11270523071289 3.258317947387695 27.63314437866211 L 8.813596725463867 28.78165245056152 L 11.8456335067749 32.7522087097168 L 13.21324253082275 36.89522552490234 C 12.41186428070068 36.72128295898438 11.62775993347168 36.47377777099609 10.86623859405518 36.15165710449219 M 17.89048385620117 35.68131637573242 C 17.85482788085938 35.82869338989258 17.7853889465332 35.96709823608398 17.68118667602539 36.07725524902344 C 17.56551742553711 36.19953536987305 17.38788223266602 36.31363296508789 17.12764549255371 36.31363296508789 L 16.75454711914062 36.31363296508789 L 16.09289932250977 36.31363296508789 L 16.05881500244141 36.31363296508789 L 16.02468872070312 36.31363296508789 L 15.55133247375488 36.31363296508789 L 14.98994159698486 36.31363296508789 C 14.72974967956543 36.31363296508789 14.55207252502441 36.19953536987305 14.43640518188477 36.07725524902344 C 14.332200050354 35.96709823608398 14.26276111602783 35.82869338989258 14.22710514068604 35.68131637573242 L 13.586256980896 33.03295135498047 L 15.23048400878906 33.03295135498047 L 16.05881500244141 33.03295135498047 L 17.0914421081543 33.03295135498047 L 18.53133392333984 33.03295135498047 L 17.89048385620117 35.68131637573242 Z M 13.8773078918457 23.75791931152344 C 13.93787860870361 23.16223335266113 14.33529949188232 23.03647232055664 14.68424987792969 22.97797966003418 C 14.86001586914062 22.94847869873047 15.1723747253418 22.92352104187012 15.37263488769531 22.91528701782227 C 15.54764080047607 22.90411758422852 15.96042728424072 22.89852333068848 16.08292770385742 22.89843559265137 C 16.20546722412109 22.89847755432129 16.61824989318848 22.90411758422852 16.79325675964355 22.91528701782227 C 16.9935188293457 22.92352104187012 17.30587577819824 22.94847869873047 17.48173141479492 22.97797966003418 C 17.83059310913086 23.03647232055664 18.22801399230957 23.16223335266113 18.28854179382324 23.75791931152344 C 18.30509757995605 23.92010879516602 18.30980682373047 24.13187408447266 18.30679321289062 24.35984992980957 C 18.30187034606934 24.73731994628906 18.26944160461426 24.99221229553223 18.25089263916016 25.16861724853516 C 18.23807334899902 25.28975105285645 18.18752288818359 25.65381240844727 18.12257766723633 25.84210586547852 C 18.03331756591797 26.10085678100586 17.95309066772461 26.17623329162598 17.85865020751953 26.25323295593262 C 17.68593978881836 26.3940315246582 17.40154838562012 26.43736457824707 17.34085083007812 26.44827270507812 C 17.01987457275391 26.50600242614746 16.36990165710449 26.51640129089355 16.08296775817871 26.51601600646973 C 15.79607677459717 26.51640129089355 15.14618682861328 26.50600242614746 14.82504081726074 26.44827270507812 C 14.76442718505859 26.43736457824707 14.47999668121338 26.39406967163086 14.30732727050781 26.25323295593262 C 14.2128438949585 26.17623329162598 14.13261985778809 26.10085678100586 14.04335689544678 25.84210586547852 C 13.97837162017822 25.65381240844727 13.92777824401855 25.28975105285645 13.91504287719727 25.16861724853516 C 13.89649391174316 24.99221229553223 13.8640661239624 24.73731994628906 13.85909748077393 24.35984992980957 C 13.8560848236084 24.13187408447266 13.86083984375 23.92019462585449 13.8773078918457 23.75791931152344 M 28.35365295410156 29.04935836791992 C 27.6817798614502 30.63780975341797 26.71940040588379 32.06497192382812 25.49318313598633 33.29118347167969 C 24.26696395874023 34.51740646362305 22.83980751037598 35.47978591918945 21.25135231018066 36.15165710449219 C 20.48978614807129 36.47377777099609 19.70572853088379 36.72128295898438 18.90434837341309 36.89522552490234 L 20.2719554901123 32.7522087097168 L 23.30399322509766 28.78165245056152 L 28.85927200317383 27.63314437866211 C 28.71788597106934 28.11270523071289 28.5499267578125 28.58529853820801 28.35365295410156 29.04935836791992 M 29.36815452575684 21.79730606079102 C 29.33322143554688 21.82014083862305 29.29340553283691 21.83223533630371 29.25278663635254 21.83478355407715 L 29.24850273132324 21.82807731628418 C 29.24850273132324 21.82807731628418 28.67026138305664 22.40474510192871 27.27455711364746 21.77908897399902 C 27.27455711364746 21.77908897399902 24.32481575012207 21.47114181518555 21.94839668273926 20.75236701965332 C 19.34951972961426 19.96626853942871 16.05881500244141 20.01440620422363 16.05881500244141 20.01440620422363 C 16.05881500244141 20.01440620422363 12.76806926727295 19.96626853942871 10.16919231414795 20.75236701965332 C 7.792771816253662 21.47114181518555 4.843035221099854 21.77908897399902 4.843035221099854 21.77908897399902 C 3.447329759597778 22.40474510192871 2.869088888168335 21.82807731628418 2.869088888168335 21.82807731628418 C 2.813357591629028 21.82433891296387 2.758899450302124 21.8055362701416 2.712463855743408 21.77140808105469 C 2.411266803741455 21.55001449584961 1.900855183601379 20.86022567749023 3.554463148117065 19.19023132324219 L 3.554972171783447 19.19141960144043 C 3.562315225601196 19.17176628112793 3.570125579833984 19.15224266052246 3.577553749084473 19.13259315490723 C 4.683183670043945 18.41232872009277 5.180014133453369 17.19854354858398 5.276196479797363 16.52513885498047 C 5.359814643859863 15.93967914581299 6.021885871887207 15.07777404785156 6.095784664154053 14.98307800292969 C 6.266332149505615 14.79202747344971 6.44210147857666 14.60471534729004 6.624405384063721 14.42241191864014 C 7.850584030151367 13.19618988037109 9.277741432189941 12.23381423950195 10.86623859405518 11.56194114685059 C 12.50936126708984 10.86692810058594 14.25639247894287 10.51454162597656 16.05881500244141 10.51454162597656 C 17.86119651794434 10.51454162597656 19.60822868347168 10.86692810058594 21.25135231018066 11.56194114685059 C 22.83980751037598 12.23381423950195 24.26696395874023 13.19618988037109 25.49318313598633 14.42241191864014 C 25.67548942565918 14.60471534729004 25.85125160217285 14.79202747344971 26.02184677124023 14.98312091827393 C 26.09587287902832 15.07803058624268 26.75777435302734 15.93976497650146 26.84139060974121 16.52513885498047 C 26.93757438659668 17.19854354858398 27.43440628051758 18.41228103637695 28.54003715515137 19.13259315490723 C 28.54750442504883 19.15237045288086 28.55540084838867 19.17206573486328 28.56278419494629 19.19188690185547 L 28.56351089477539 19.19023132324219 C 30.28796005249023 20.9317455291748 29.65903663635254 21.60727119445801 29.36815452575684 21.79730606079102 M 14.23376941680908 25.72537994384766 C 14.28682422637939 25.90547943115234 14.35270214080811 26.02657699584961 14.44892501831055 26.11358642578125 C 14.60937213897705 26.25879287719727 14.83038902282715 26.28999900817871 14.9600191116333 26.30926132202148 C 15.24024486541748 26.35086059570312 15.71203422546387 26.36529350280762 16.08288192749023 26.36541748046875 C 16.45373153686523 26.36529350280762 16.92560386657715 26.3508186340332 17.20578765869141 26.30926132202148 C 17.3354606628418 26.28995132446289 17.5565185546875 26.25879287719727 17.7170524597168 26.11358642578125 C 17.81318855285645 26.02661323547363 17.87902450561523 25.90555763244629 17.93216514587402 25.72537994384766 C 17.9926929473877 25.51968383789062 18.03497123718262 25.23435974121094 18.07028579711914 24.75850105285645 C 18.09142303466797 24.47169303894043 18.08700752258301 24.00699424743652 18.05513381958008 23.75720024108887 C 18.00754928588867 23.38478088378906 17.82265472412109 23.19729804992676 17.42642211914062 23.12662124633789 C 17.24152946472168 23.09372711181641 16.99296379089355 23.07038688659668 16.75709533691406 23.0587100982666 C 16.56804084777832 23.04593658447266 16.25673866271973 23.03952217102051 16.08292770385742 23.0411376953125 C 15.90915107727051 23.03952217102051 15.59789276123047 23.04593658447266 15.40875720977783 23.0587100982666 C 15.17288589477539 23.07033920288086 14.92432117462158 23.09372711181641 14.73942852020264 23.12662124633789 C 14.34319496154785 23.19729804992676 14.15830230712891 23.38486289978027 14.11080169677734 23.75724601745605 C 14.07888412475586 24.00699424743652 14.07438564300537 24.47169303894043 14.09564971923828 24.75850105285645 C 14.13087940216064 25.23435974121094 14.17319774627686 25.51972389221191 14.23376941680908 25.72537994384766 M 14.91192722320557 23.21138763427734 C 14.95709133148193 23.20820808410645 15.05908679962158 23.20425796508789 15.05908679962158 23.20425796508789 C 15.16133880615234 23.66025161743164 15.20170593261719 23.86972427368164 15.28477096557617 24.19995498657227 C 15.36452770233154 24.51681327819824 15.42632865905762 24.81083869934082 15.5330810546875 24.95341300964355 C 15.64140319824219 25.09807205200195 15.786057472229 25.1295223236084 15.88449096679688 25.14064407348633 C 15.93546772003174 25.14632415771484 15.97260761260986 25.14887809753418 16.0830078125 25.14933967590332 C 16.19341278076172 25.1489200592041 16.23055076599121 25.14632415771484 16.28153038024902 25.14064407348633 C 16.3800048828125 25.1295223236084 16.52457237243652 25.09807205200195 16.63298225402832 24.95341300964355 C 16.73977661132812 24.81083869934082 16.80149078369141 24.51685523986816 16.88120460510254 24.19995498657227 C 16.96427154541016 23.86976623535156 17.00459861755371 23.66029739379883 17.10693359375 23.20425796508789 C 17.10693359375 23.20425796508789 17.20888900756836 23.208251953125 17.2542610168457 23.21138763427734 C 17.31538581848145 23.21580505371094 17.36318016052246 23.22098159790039 17.41517448425293 23.22785568237305 C 17.41517448425293 23.22785568237305 17.35655784606934 24.16569900512695 17.32998466491699 24.56307792663574 C 17.30197143554688 24.9810848236084 17.25290298461914 25.68526268005371 17.20684814453125 26.2170295715332 C 17.20684814453125 26.2170295715332 17.12115287780762 26.23065185546875 16.97895812988281 26.23884773254395 C 16.82933616638184 26.24737739562988 16.7628231048584 26.24835586547852 16.7628231048584 26.24835586547852 C 16.70119285583496 26.01409339904785 16.62508773803711 25.68900108337402 16.53866577148438 25.55032730102539 C 16.4683780670166 25.43759536743164 16.36009788513184 25.42561912536621 16.29880523681641 25.41721725463867 C 16.20241355895996 25.40410423278809 16.12108421325684 25.40202140808105 16.08343315124512 25.40329170227051 L 16.08304977416992 25.40329170227051 L 16.08267021179199 25.40329170227051 C 16.04502105712891 25.4021110534668 15.96373844146729 25.40410423278809 15.86734485626221 25.41721725463867 C 15.80596542358398 25.42561912536621 15.69772911071777 25.43759536743164 15.62748241424561 25.55032730102539 C 15.54106044769287 25.68900108337402 15.46495819091797 26.01409339904785 15.4033670425415 26.24835586547852 C 15.4033670425415 26.24835586547852 15.33685493469238 26.2474193572998 15.18723201751709 26.23884773254395 C 15.04499435424805 26.23065185546875 14.95934009552002 26.2170295715332 14.95934009552002 26.2170295715332 C 14.91324138641357 25.68526268005371 14.86417579650879 24.98104095458984 14.83624744415283 24.56307792663574 C 14.80967712402344 24.16574287414551 14.75097370147705 23.22785568237305 14.75097370147705 23.22785568237305 C 14.80305480957031 23.22098159790039 14.8508472442627 23.21571731567383 14.91192722320557 23.21138763427734" transform="matrix(1,0,0,1,-7527,-16003.4658203125)" fill="#e91734" fill-rule="evenodd"/></svg>