<?xml version="1.0" encoding="utf-8"?>
<svg width="48px" height="48px" viewBox="0 0 48 48" version="1.1" xmlns:xlink="http://www.w3.org/1999/xlink" xmlns="http://www.w3.org/2000/svg">
  <desc>Created with Lunacy</desc>
  <defs>
    <linearGradient x1="0.216458336" y1="0.19381851" x2="0.5" y2="0.5" id="gradient_1">
      <stop offset="0" stop-color="#CD1225" />
      <stop offset="1" stop-color="#E01327" stop-opacity="0.745098054" />
    </linearGradient>
  </defs>
  <g id="CALC-ICON">
    <g id="Group-10">
      <path d="M0 0L24.4898 0L24.4898 48L0 48L0 0Z" transform="translate(23.5102 0)" id="Rectangle-Copy-15" fill="#D7D8D8" stroke="none" />
      <path d="M4.84461e-16 4.02103e-14L48 4.02103e-14L48 24L24.0766 24L24 48L4.84461e-16 48L4.84461e-16 4.02103e-14Z" id="Rectangle-Copy-16" fill="url(#gradient_1)" stroke="none" />
    </g>
    <g id="Group-9" transform="translate(8 8)">
      <path d="M0 0.5L9 0.5" transform="translate(0 4)" id="Path-7-Copy-15" fill="none" stroke="#FFFFFF" stroke-width="2" />
      <path d="M0 0.5L9 0.5" transform="matrix(-4.371139E-08 1 -1 -4.371139E-08 5 0)" id="Path-7-Copy-16" fill="none" stroke="#FFFFFF" stroke-width="2" />
    </g>
    <g id="Group-13" transform="translate(8 32)">
      <path d="M-7.10429e-14 0.42374L8.99871 0.57626" transform="matrix(0.7071068 0.7071068 -0.7071068 0.7071068 1.671384 0.9649231)" id="Path-7-Copy" fill="none" stroke="#F0F0F0" stroke-width="2" />
      <path d="M7.10429e-14 0.57626L8.99871 0.42374" transform="matrix(-0.7071068 0.7071068 -0.7071068 -0.7071068 8.034431 1.67203)" id="Path-7-Copy-4" fill="none" stroke="#F0F0F0" stroke-width="2" />
    </g>
    <path d="M0 0.5L9 0.5" transform="translate(32 12)" id="Path-7-Copy-17" fill="none" stroke="#F0F0F0" stroke-width="2" />
    <g id="Group-15" transform="translate(32 34)">
      <path d="M0 0.5L9 0.5" id="Path-7-Copy-18" fill="none" stroke="#E01327" stroke-width="2" />
      <path d="M0 0.5L9 0.5" transform="translate(0 4)" id="Path-7-Copy-19" fill="none" stroke="#E01327" stroke-width="2" />
    </g>
  </g>
</svg>