<?xml version="1.0" encoding="utf-8"?>
<svg width="49px" height="52px" viewBox="0 0 49 52" version="1.1" xmlns:xlink="http://www.w3.org/1999/xlink" xmlns="http://www.w3.org/2000/svg">
  <desc>Created with Lunacy</desc>
  <defs>
    <linearGradient x1="-0.10211648" y1="0.6411399" x2="1" y2="0.09649185" id="gradient_1">
      <stop offset="0" stop-color="#CD1225" />
      <stop offset="1" stop-color="#E01327" stop-opacity="0.768627465" />
    </linearGradient>
    <filter filterUnits="userSpaceOnUse" color-interpolation-filters="sRGB" id="filter_1">
      <feFlood flood-opacity="0" result="BackgroundImageFix" />
      <feColorMatrix in="SourceAlpha" type="matrix" values="0 0 0 0 0 0 0 0 0 0 0 0 0 0 0 0 0 0 127 0" />
      <feOffset dx="0" dy="1" />
      <feGaussianBlur stdDeviation="1" />
      <feColorMatrix type="matrix" values="0 0 0 0 0.2470588 0 0 0 0 0.2470588 0 0 0 0 0.2470588 0 0 0 0.1843137 0" />
      <feBlend mode="normal" in2="BackgroundImageFix" result="effect0_dropShadow" />
      <feBlend mode="normal" in="SourceGraphic" in2="effect0_dropShadow" result="shape" />
    </filter>
  </defs>
  <g id="DOWNLOAD-ICON">
    <path d="M36.3339 -0.125806L41.1237 46.2282L4.66612 50.1258L-0.123684 3.7718L36.3339 -0.125806Z" transform="translate(0 2)" id="Rectangle-Copy-19" fill="#D7D8D8" fill-opacity="0.9396159" stroke="none" />
    <path d="M32.7891 -0.113226L37.1116 41.6054L4.21089 45.1132L-0.111617 3.39462L32.7891 -0.113226Z" transform="matrix(-1 0 0 1 49 5)" id="Rectangle-Copy-25" fill="#D7D8D8" fill-opacity="0.9396159" stroke="none" />
    <path d="M4.7648 1.59178e-13L50 2.79332e-13L50 38L8.88178e-14 38L1.00787e-13 5.36907L4.7648 1.59178e-13Z" transform="matrix(1.192488E-08 1 -1 1.192488E-08 44 0)" id="Rectangle-Copy-20" fill="url(#gradient_1)" stroke="none" />
    <g id="Group-14" transform="translate(18.5 18.5)">
      <path d="M0 0L7.5 8L15 0L0 0Z" transform="translate(0 8)" id="Path-7-Copy-22" fill="#DDDEDF" stroke="none" />
      <path d="M0 0L7 0L7 12L0 12L0 0Z" transform="translate(4 -2)" id="Rectangle" fill="#DDDEDF" stroke="none" />
    </g>
    <g filter="url(#filter_1)">
      <path d="M7.87208e-14 0L5.36908 5.24128L0.350046 5.03764L7.87208e-14 0Z" transform="translate(38.63092 0)" id="Path-Copy" fill="#DDDEDF" stroke="none" />
    </g>
  </g>
</svg>