<svg id="Layer_1" data-name="Layer 1" xmlns="http://www.w3.org/2000/svg" viewBox="0 0 65 65"><defs><style>.cls-1,.cls-5,.cls-8{fill:#df0017;}.cls-2,.cls-4{fill:#f1f1f2;}.cls-3,.cls-7,.cls-9{fill:none;}.cls-3,.cls-7{stroke:#df0017;}.cls-3,.cls-7,.cls-8,.cls-9{stroke-miterlimit:10;}.cls-3{stroke-width:1.24px;}.cls-4,.cls-5{fill-rule:evenodd;}.cls-6{fill:#fff;}.cls-7{stroke-width:0.96px;}.cls-8{stroke:#fff;stroke-width:1.32px;}.cls-9{stroke:#f1f1f2;stroke-width:2px;}</style></defs><path class="cls-1" d="M8.58,58.45H63.21c.71,0,1.29-.23,1.29-.93V57a1.24,1.24,0,0,0-.14-.58L58.78,42.35V16.2a1.29,1.29,0,0,0-1.29-1.29H14.31A1.3,1.3,0,0,0,13,16.2V42.35L7.39,56.52a.76.76,0,0,0-.06.2.09.09,0,0,0,0,.05.86.86,0,0,0,0,.23h0v.52c0,.7.57.93,1.28.93Zm20-3.1,1.18-3.64H42l1.18,3.64ZM16.8,18.19H55V40.61H16.8Zm0,0"/><rect class="cls-2" x="15.36" y="17.14" width="41.12" height="24.5"/><path class="cls-3" d="M49.21,34.35a3,3,0,0,1-3.05,3H25.63a3.06,3.06,0,0,1-3.05-3h0a3.06,3.06,0,0,1,3.05-3.05H46.16a3,3,0,0,1,3.05,3.05Z"/><polygon class="cls-1" points="40 33.77 46.71 36.19 44.61 36.98 46.7 39.06 45.11 40.65 43.06 38.6 42.45 40.98 40 33.77"/><path class="cls-2" d="M40.4,34.19l5.58,2-1.82.68,2.18,2.18L45.11,40.3l-2.18-2.19-.51,2-2-5.91m-.81-.83.34,1,2,5.92.55,1.6.41-1.64.29-1.14,1.56,1.56.36.36.35-.36,1.24-1.23.35-.36-.35-.35-1.64-1.63,1.1-.41,1.28-.48-1.29-.47-5.58-2-1-.35Z"/><polyline class="cls-4" points="35.7 18.81 39.42 18.9 41.06 21.57 41.81 22.75 42.13 24.16 42.45 25.34 42.35 26.3 42.17 27.29 42.44 27.29 42.35 27.86 40.61 28.42 39.78 28.2 39.55 27.96 32.29 27.96 32.06 28.2 31.23 28.42 29.49 27.86 29.39 27.29 29.67 27.29 29.49 26.3 29.39 25.34 29.7 24.16 30.03 22.75 30.77 21.57 32.41 18.9 36.13 18.81"/><path class="cls-5" d="M29.85,21.87a4.06,4.06,0,0,0,.56,0l.06.16s.16.39,1.79.53,2.77.15,3.27.15h.78c.5,0,1.65,0,3.28-.15S41.37,22,41.37,22l.06-.16a4,4,0,0,0,.55,0c.21,0,.36-.06.37-.2a.82.82,0,0,0-.3-.66,1.64,1.64,0,0,0-.89,0c-.08.06-.1.54-.1.54L41,21.44a16.41,16.41,0,0,0-1.57-2.54c-.44-.43-2.68-.46-3.29-.46s-3.26,0-3.71.46a15.94,15.94,0,0,0-1.55,2.54l-.09.13s0-.48-.1-.54a1.6,1.6,0,0,0-.88,0,.86.86,0,0,0-.31.66C29.5,21.81,29.65,21.86,29.85,21.87Zm2.72-2.75s1.71-.18,3.56-.18a25.54,25.54,0,0,1,3.14.18l1,2.12H31.51Z"/><path class="cls-5" d="M30.05,26.36a.39.39,0,0,0,.77,0,.39.39,0,1,0-.77,0Z"/><polygon class="cls-5" points="39.14 27.39 36.34 27.39 35.5 27.39 32.7 27.39 31.94 27.99 35.5 28.03 35.5 28.04 35.92 28.03 36.34 28.04 36.34 28.03 39.9 27.99 39.14 27.39"/><path class="cls-5" d="M31.67,28l-1.6,0s-.47,0-.58-.17.07,1.11.65,1.11H31.2a1.17,1.17,0,0,0,.86-.79h-.28Z"/><path class="cls-5" d="M42.45,25a3.37,3.37,0,0,0-.65-2.26.78.78,0,0,1-.13.56,14,14,0,0,1-1.39.65l-.11.05a6.58,6.58,0,0,1-.4.77,1.22,1.22,0,0,1-1.13.62H33.19a1.23,1.23,0,0,1-1.13-.62,6.07,6.07,0,0,1-.39-.77L31.56,24a13,13,0,0,1-1.39-.65.81.81,0,0,1-.14-.56A3.41,3.41,0,0,0,29.39,25c0,.43.1,1.27.1,1.27a9.37,9.37,0,0,0-.09,1,.64.64,0,0,0,.66.62c.35,0,1.51.05,1.68,0a3.9,3.9,0,0,0,.73-.55l-.89-1.06a3.82,3.82,0,0,1-1.21.66,1,1,0,0,1-.61-.3s-.19-1.31-.19-1.82c0-.34.47-.55.78-.65-.47.17-.52.49-.52.49v.92c0,.13.28.17,1,.28s.25.28,1.41.36c.88.08,2.65.13,3.44.15h.41c.79,0,2.56-.07,3.45-.15,1.16-.08.64-.26,1.41-.36s1-.15,1-.28v-.92s0-.32-.51-.49c.31.1.78.31.78.65,0,.51-.19,1.82-.19,1.82a1,1,0,0,1-.62.3,3.94,3.94,0,0,1-1.21-.66l-.88,1.06a3.59,3.59,0,0,0,.73.55c.17.05,1.34,0,1.68,0a.64.64,0,0,0,.66-.62,8.47,8.47,0,0,0-.1-1S42.45,25.45,42.45,25Z"/><path class="cls-5" d="M41.79,26.36A.4.4,0,0,0,41.4,26a.39.39,0,0,0-.38.39.38.38,0,0,0,.38.38A.39.39,0,0,0,41.79,26.36Z"/><path class="cls-5" d="M41.76,28l-1.61,0-.1.17h-.28a1.19,1.19,0,0,0,.86.79h1.06c.6,0,.65-1.11.65-1.11S41.76,28,41.76,28Z"/><polygon class="cls-5" points="36.72 27.29 39.2 27.29 40.05 26.33 39.98 26.35 35.92 26.48 31.85 26.35 31.78 26.33 32.63 27.29 35.12 27.29 36.72 27.29"/><path class="cls-5" d="M39.88,24.25a1.56,1.56,0,0,0,.17-.4,2.21,2.21,0,0,0-1.25-.07l.43-1c-1.79.13-2.48.13-2.48.13v.85c0,.32-.33.48-.63.48h-.41c-.3,0-.63-.16-.63-.48v-.85s-.68,0-2.48-.13l.43,1a2.21,2.21,0,0,0-1.25.07,1.38,1.38,0,0,0,.18.4c.1.13.23.37.31.47h7.2l.09,0h0C39.65,24.62,39.77,24.38,39.88,24.25Z"/><path class="cls-1" d="M2.68,52.78a2.6,2.6,0,0,1-2.59-2.6V24.69A2.59,2.59,0,0,1,2.68,22.1H13.8a2.59,2.59,0,0,1,2.59,2.59V50.18a2.6,2.6,0,0,1-2.59,2.6Z"/><path class="cls-6" d="M13.8,22.51A2.19,2.19,0,0,1,16,24.69V50.18a2.18,2.18,0,0,1-2.18,2.18H2.68A2.18,2.18,0,0,1,.5,50.18V24.69a2.19,2.19,0,0,1,2.18-2.18H13.8m0-.82H2.68a3,3,0,0,0-3,3V50.18a3,3,0,0,0,3,3H13.8a3,3,0,0,0,3-3V24.69a3,3,0,0,0-3-3Z"/><rect class="cls-2" x="1.82" y="23.88" width="12.84" height="24.57" rx="1.04"/><path class="cls-2" d="M9.38,50.27a1.15,1.15,0,1,0-1.14,1.15A1.14,1.14,0,0,0,9.38,50.27Z"/><polyline class="cls-4" points="8.1 30.52 10.41 30.58 11.44 32.24 11.9 32.98 12.1 33.85 12.3 34.59 12.23 35.18 12.13 35.79 12.29 35.79 12.23 36.16 11.15 36.5 10.64 36.36 10.5 36.22 5.98 36.22 5.84 36.36 5.32 36.5 4.24 36.16 4.18 35.79 4.35 35.79 4.24 35.18 4.18 34.59 4.38 33.85 4.57 32.98 5.04 32.24 6.06 30.58 8.37 30.52"/><path class="cls-5" d="M4.46,32.43a2.75,2.75,0,0,0,.35,0l0,.1s.1.24,1.11.33,1.72.09,2,.09h.49c.31,0,1,0,2-.09s1.11-.33,1.11-.33l0-.1a2.75,2.75,0,0,0,.35,0c.12,0,.22,0,.23-.13a.54.54,0,0,0-.19-.41,1,1,0,0,0-.55,0c-.05,0-.06.33-.06.33l-.06-.08a10.16,10.16,0,0,0-1-1.58,5.18,5.18,0,0,0-2.06-.28,6.3,6.3,0,0,0-2.3.28,9.63,9.63,0,0,0-1,1.58l0,.08S5,32,5,31.91a1,1,0,0,0-.54,0,.55.55,0,0,0-.2.41C4.25,32.39,4.34,32.42,4.46,32.43Zm1.7-1.71s1.06-.11,2.21-.12a17.41,17.41,0,0,1,2,.12L11,32H5.5Z"/><path class="cls-5" d="M4.59,35.22A.24.24,0,1,0,4.82,35,.23.23,0,0,0,4.59,35.22Z"/><polygon class="cls-5" points="10.24 35.86 8.5 35.86 7.98 35.86 6.24 35.86 5.76 36.24 7.98 36.26 7.98 36.26 8.24 36.26 8.5 36.26 8.5 36.26 10.71 36.24 10.24 35.86"/><path class="cls-5" d="M5.6,36.25h-1s-.29,0-.36-.11,0,.7.4.7h.67a.74.74,0,0,0,.53-.49H5.66Z"/><path class="cls-5" d="M12.3,34.39A2.08,2.08,0,0,0,11.89,33s0,.24-.07.34a7.74,7.74,0,0,1-.87.41l-.07,0a3.24,3.24,0,0,1-.25.48.76.76,0,0,1-.7.39H6.54a.76.76,0,0,1-.7-.39,4.71,4.71,0,0,1-.25-.48l-.06,0a7.74,7.74,0,0,1-.87-.41c-.11-.1-.09-.34-.09-.34a2.15,2.15,0,0,0-.39,1.41c0,.26.06.79.06.79a5.4,5.4,0,0,0-.06.61.41.41,0,0,0,.42.39c.21,0,.93,0,1,0a2.43,2.43,0,0,0,.45-.35l-.55-.65a2.35,2.35,0,0,1-.76.4.6.6,0,0,1-.38-.18s-.11-.81-.11-1.13.29-.34.48-.41c-.29.11-.31.31-.31.31v.57c0,.08.17.11.63.17s.15.18.88.23c.55,0,1.65.08,2.14.09h.25c.49,0,1.6,0,2.15-.09.71,0,.4-.16.87-.23s.64-.09.64-.17v-.57s0-.2-.32-.31c.19.07.48.19.48.41s-.12,1.13-.12,1.13a.6.6,0,0,1-.37.18,2.47,2.47,0,0,1-.76-.4l-.55.65a2.57,2.57,0,0,0,.46.35c.1,0,.83,0,1,0a.4.4,0,0,0,.41-.39c0-.22,0-.61,0-.61S12.3,34.65,12.3,34.39Z"/><path class="cls-5" d="M11.89,35.22a.24.24,0,1,0-.24.24A.24.24,0,0,0,11.89,35.22Z"/><path class="cls-5" d="M11.87,36.26h-1l-.06.11h-.18a.75.75,0,0,0,.54.49h.66c.37,0,.41-.7.41-.7S11.87,36.26,11.87,36.26Z"/><polygon class="cls-5" points="8.74 35.79 10.28 35.79 10.81 35.2 10.76 35.21 8.24 35.29 5.71 35.21 5.66 35.2 6.19 35.79 7.74 35.79 8.74 35.79"/><path class="cls-5" d="M10.7,33.9a1,1,0,0,0,.11-.24c-.23-.16-.78,0-.78,0l.27-.6c-1.12.08-1.54.08-1.54.08v.52c0,.2-.21.3-.4.3H8.11c-.19,0-.39-.1-.39-.3v-.52s-.43,0-1.55-.08l.28.6a1.39,1.39,0,0,0-.79,0,1,1,0,0,0,.11.24c.07.09.15.24.2.3h4.48l.05,0h0C10.56,34.14,10.63,34,10.7,33.9Z"/><path class="cls-7" d="M3.25,40.47a1.88,1.88,0,0,0,1.88,1.87h6.36a1.88,1.88,0,0,0,1.88-1.87h0a1.88,1.88,0,0,0-1.88-1.88H5.13a1.89,1.89,0,0,0-1.88,1.88Z"/><path class="cls-8" d="M25,16.23a9.68,9.68,0,1,1-9.68-9.68A9.68,9.68,0,0,1,25,16.23Z"/><polyline class="cls-9" points="10.77 16.53 13.95 19.74 19.95 12.72"/></svg>