<?xml version="1.0" encoding="utf-8"?>
<!-- Generator: Adobe Illustrator 19.0.0, SVG Export Plug-In . SVG Version: 6.00 Build 0)  -->
<svg version="1.1" id="Layer_1" xmlns="http://www.w3.org/2000/svg" xmlns:xlink="http://www.w3.org/1999/xlink" x="0px" y="0px"
	 viewBox="0 0 60 50" style="enable-background:new 0 0 60 50;" xml:space="preserve">
<style type="text/css">
	.st0{fill:#FFFFFF;}
</style>
<g id="H9AM0X.tif">
	<g id="XMLID_58_">
		<path id="XMLID_166_" class="st0" d="M16.6,40.7c0.2,2.2,0.1,4.2-1.8,5.7c-1.1,0.8-2.2,1.2-3.6,1.1c-1.7,0-3-0.9-4-2.1
			c-1.1-1.3-1-3-0.9-4.7c-0.3,0-0.5-0.1-0.8-0.1c-1.1,0-2.2,0-3.3,0c-0.9,0-1.3-0.4-1.3-1.3c0-5.5,0-11.1,0-16.6
			c0-0.6,0.2-1,0.6-1.4c1.7-1.5,3.4-3,5.1-4.5c0.8-0.7,1.1-1.7,1.6-2.6c1.7-3.3,3.4-6.7,5-10c0.1-0.1,0.1-0.2,0.1-0.3
			c0.4-0.9,0.9-1.4,2-1.3c9.5,0,19,0.1,28.5,0c1.1,0,1.7,0.4,2.1,1.3c2,4.1,4,8.2,6.1,12.2c0.4,0.7,1.2,1.2,1.8,1.7
			c1.5,1.2,3,2.4,4.4,3.6c0.3,0.2,0.5,0.8,0.5,1.1c0,5.6,0,11.2,0,16.8c0,0.9-0.4,1.3-1.3,1.3c-1.2,0-2.5,0-3.8,0c0,0.7,0,1.3,0,1.9
			c0.1,2-1.8,4.2-3.5,4.7c-3.2,0.9-5.6-0.6-6.7-3.3c-0.2-0.6-0.2-1.3-0.3-2c0-0.4,0-0.8,0-1.2C34.5,40.7,25.6,40.7,16.6,40.7z
			 M3.3,38.3c17.9,0,35.6,0,53.4,0c0-0.1,0-0.2,0-0.3c0-4.9,0-9.9,0-14.8c0-0.2-0.2-0.5-0.3-0.7c-0.8-0.7-1.5-1.3-2.3-1.9
			c-0.3-0.2-0.7-0.4-1.1-0.4c-15.4,0-30.8,0-46.2,0c-0.3,0-0.7,0.1-0.9,0.3c-0.7,0.6-1.4,1.3-2.1,1.9c-0.3,0.3-0.5,0.6-0.5,1
			c0,3.7,0,7.3,0,11C3.3,35.7,3.3,37,3.3,38.3z M50.3,17c-0.1-0.2-0.2-0.3-0.3-0.4c-1.8-3.8-3.7-7.5-5.5-11.3
			c-0.2-0.4-0.4-0.6-0.9-0.6c-9.2,0-18.3,0-27.5,0c-0.3,0-0.6,0.3-0.8,0.5c-0.2,0.2-0.2,0.5-0.4,0.7c-1.5,2.9-3,5.9-4.4,8.8
			c-0.4,0.7-0.7,1.4-1,2.2C23.1,17,36.6,17,50.3,17z M14.6,40.7c-2.1,0-4.1,0-6.2,0c0.1,0.8,0.2,1.4,0.3,2.1
			c0.2,1.6,1.3,2.3,2.7,2.5c1,0.1,1.9-0.3,2.6-1.2C14.7,43.1,14.6,41.9,14.6,40.7z M45.7,40.7c-0.1,1.7-0.1,3.3,1.6,4.3
			c0.8,0.5,2.3,0.4,3.1-0.1c1.5-1.1,1.3-2.6,1.2-4.2C49.6,40.7,47.7,40.7,45.7,40.7z"/>
		<path id="XMLID_156_" class="st0" d="M11.4,31C8.7,31.1,7,29,7,26.7c0-2.3,1.7-4.3,4.4-4.3c2.6,0,4.3,2,4.4,4.3
			C15.8,28.9,14,31.1,11.4,31z M13.5,26.7c0-1.1-1-2.2-2.1-2.2c-1.1,0-2.1,1.1-2.1,2.2c0,1.2,1,2.2,2.1,2.2
			C12.5,29,13.5,27.9,13.5,26.7z"/>
		<path id="XMLID_153_" class="st0" d="M53.4,26.7c0.2,2.3-2,4.4-4.3,4.4c-2.3,0-4.4-2-4.4-4.3c0-2.3,2.1-4.4,4.3-4.4
			C51.4,22.3,53.6,24.5,53.4,26.7z M49.1,28.9c1,0,2.3-1.2,2.2-2.3c0-1-1.2-2.2-2.2-2.2c-1,0-2.3,1.3-2.2,2.3
			C46.9,27.8,48.1,28.9,49.1,28.9z"/>
	</g>
</g>
</svg>
