<?xml version="1.0" encoding="utf-8"?>
<!-- Generator: Adobe Illustrator 19.0.0, SVG Export Plug-In . SVG Version: 6.00 Build 0)  -->
<svg version="1.1" id="Layer_1" xmlns="http://www.w3.org/2000/svg" xmlns:xlink="http://www.w3.org/1999/xlink" x="0px" y="0px"
	 viewBox="0 0 193.2 42.8" style="enable-background:new 0 0 193.2 42.8;" xml:space="preserve">
<style type="text/css">
	.st0{fill:#3A589B;}
	.st1{fill:#FFFFFF;}
</style>
<g id="XMLID_3_">
	<path id="XMLID_1_" class="st0" d="M192.6,37.6c0,2.8-2.2,5-5,5H5.6c-2.8,0-5-2.2-5-5V5.2c0-2.8,2.2-5,5-5h182c2.8,0,5,2.2,5,5
		V37.6z"/>
	<g id="XMLID_2_">
		<path id="XMLID_96_" class="st1" d="M44.3,24.9l0.9-1.3c0.6,0.6,1.4,1.1,2.5,1.1c0.9,0,1.4-0.4,1.4-0.9c0-1.4-4.6-0.4-4.6-3.4
			c0-1.3,1.2-2.4,3-2.4c1.3,0,2.3,0.4,3.1,1.1l-0.9,1.3c-0.6-0.6-1.5-0.9-2.3-0.9c-0.7,0-1.1,0.3-1.1,0.8c0,1.3,4.6,0.4,4.6,3.4
			c0,1.5-1.1,2.6-3.2,2.6C46.1,26.2,45,25.7,44.3,24.9z"/>
		<path id="XMLID_98_" class="st1" d="M57.5,26v-3.4h-3.8V26H52v-8h1.7v3.1h3.8V18h1.7v8H57.5z"/>
		<path id="XMLID_100_" class="st1" d="M66.3,26l-0.5-1.4h-3.4L61.9,26h-1.9l3.1-8h2.1l3.1,8H66.3z M64.1,19.7l-1.2,3.4h2.5
			L64.1,19.7z"/>
		<path id="XMLID_103_" class="st1" d="M73.5,26l-1.6-2.8h-1.2V26H69v-8h3.7c1.7,0,2.7,1.1,2.7,2.6c0,1.4-0.9,2.2-1.8,2.4l1.8,3
			H73.5z M73.7,20.6c0-0.7-0.5-1.1-1.2-1.1h-1.8v2.2h1.8C73.2,21.7,73.7,21.3,73.7,20.6z"/>
		<path id="XMLID_106_" class="st1" d="M76.7,26v-8h5.7v1.5h-4v1.7h3.9v1.5h-3.9v1.8h4V26H76.7z"/>
		<path id="XMLID_108_" class="st1" d="M86.4,22c0-2.4,1.8-4.1,4.2-4.1c2.4,0,4.2,1.7,4.2,4.1c0,2.4-1.8,4.1-4.2,4.1
			C88.2,26.2,86.4,24.5,86.4,22z M93,22c0-1.5-0.9-2.6-2.4-2.6c-1.5,0-2.4,1.1-2.4,2.6c0,1.5,0.9,2.6,2.4,2.6
			C92.1,24.7,93,23.5,93,22z"/>
		<path id="XMLID_111_" class="st1" d="M101.5,26l-3.8-5.2V26H96v-8h1.8l3.7,5v-5h1.7v8H101.5z"/>
		<path id="XMLID_113_" class="st1" d="M107.8,26v-8h5.7v1.5h-4v1.7h3.9v1.5h-3.9V26H107.8z"/>
		<path id="XMLID_115_" class="st1" d="M119.7,26l-0.5-1.4h-3.4l-0.5,1.4h-1.9l3.1-8h2.1l3.1,8H119.7z M117.4,19.7l-1.2,3.4h2.5
			L117.4,19.7z"/>
		<path id="XMLID_118_" class="st1" d="M121.6,22c0-2.5,1.9-4.1,4.3-4.1c1.8,0,2.8,0.9,3.3,2l-1.5,0.7c-0.3-0.6-1.1-1.2-1.9-1.2
			c-1.5,0-2.5,1.1-2.5,2.6c0,1.5,1.1,2.6,2.5,2.6c0.8,0,1.5-0.5,1.9-1.2l1.5,0.7c-0.6,1-1.6,2-3.3,2C123.4,26.2,121.6,24.5,121.6,22
			z"/>
		<path id="XMLID_120_" class="st1" d="M130.2,26v-8h5.7v1.5h-4v1.7h3.9v1.5h-3.9v1.8h4V26H130.2z"/>
		<path id="XMLID_122_" class="st1" d="M137.2,26v-8h4.2c1.5,0,2.3,1,2.3,2c0,1-0.6,1.7-1.4,1.8c0.9,0.1,1.5,1,1.5,2
			c0,1.2-0.8,2.2-2.3,2.2H137.2z M142,20.4c0-0.5-0.4-0.8-0.9-0.8h-2.1v1.7h2.1C141.6,21.2,142,20.9,142,20.4z M142.1,23.6
			c0-0.5-0.4-0.9-1-0.9h-2.2v1.8h2.2C141.7,24.5,142.1,24.2,142.1,23.6z"/>
		<path id="XMLID_126_" class="st1" d="M144.8,22c0-2.4,1.8-4.1,4.2-4.1c2.4,0,4.2,1.7,4.2,4.1c0,2.4-1.8,4.1-4.2,4.1
			C146.5,26.2,144.8,24.5,144.8,22z M151.4,22c0-1.5-0.9-2.6-2.4-2.6c-1.5,0-2.4,1.1-2.4,2.6c0,1.5,0.9,2.6,2.4,2.6
			C150.4,24.7,151.4,23.5,151.4,22z"/>
		<path id="XMLID_129_" class="st1" d="M153.9,22c0-2.4,1.8-4.1,4.2-4.1c2.4,0,4.2,1.7,4.2,4.1c0,2.4-1.8,4.1-4.2,4.1
			C155.7,26.2,153.9,24.5,153.9,22z M160.5,22c0-1.5-0.9-2.6-2.4-2.6c-1.5,0-2.4,1.1-2.4,2.6c0,1.5,0.9,2.6,2.4,2.6
			C159.6,24.7,160.5,23.5,160.5,22z"/>
		<path id="XMLID_132_" class="st1" d="M168.2,26l-2.4-3.2l-0.6,0.8V26h-1.7v-8h1.7v3.6L168,18h2.1l-3.2,3.8l3.4,4.2H168.2z"/>
	</g>
	<g id="aUXTvb.tif">
		<g id="XMLID_4_">
			<path id="XMLID_22_" class="st1" d="M28.6,11c0,1.2,0,2.3,0,3.6c-0.5,0-1.1,0-1.6,0c-1.4,0-1.6,0.2-1.6,1.7c0,0.5,0,1,0,1.6
				c1.1,0,2.1,0,3.2,0c-0.1,1.2-0.2,2.3-0.4,3.5c-0.9,0-1.9,0-2.8,0c0,3.5,0,6.9,0,10.4c-1.3,0-2.6,0-3.9,0c0-3.4,0-6.9,0-10.4
				c-0.9,0-1.7,0-2.5,0c0-1.2,0-2.3,0-3.5c0.8,0,1.7,0,2.6,0c0-0.3,0-0.5,0-0.8c0.1-1.1,0-2.2,0.2-3.2c0.3-1.6,1.3-2.5,2.9-2.7
				c0.1,0,0.3-0.1,0.4-0.1C26.2,11,27.4,11,28.6,11z"/>
		</g>
	</g>
</g>
</svg>
