<?xml version="1.0" encoding="utf-8"?>
<!-- Generator: Adobe Illustrator 19.0.0, SVG Export Plug-In . SVG Version: 6.00 Build 0)  -->
<svg version="1.1" id="Layer_1" xmlns="http://www.w3.org/2000/svg" xmlns:xlink="http://www.w3.org/1999/xlink" x="0px" y="0px"
	 viewBox="0 0 60 50" style="enable-background:new 0 0 60 50;" xml:space="preserve">
<style type="text/css">
	.st0{fill:#CC0000;}
</style>
<g id="G5LP93.tif">
	<g id="XMLID_1_">
		<path id="XMLID_55_" class="st0" d="M47.2,47.4c-11.5,0-23,0-34.4,0c-1.9-0.7-2.4-1.4-2.4-3.5c0-7.7,0-15.4,0-23.1
			c0-5.1,0-10.1,0-15.2c0-1.5,0.8-2.5,2.2-2.9c0.1,0,0.1-0.1,0.2-0.1c8.2,0,16.4,0,24.6,0c0.3,0.2,0.5,0.3,0.8,0.6
			C41.7,6.8,45.3,10.4,49,14c0.4,0.4,0.6,0.9,0.6,1.4c0,5.6,0,11.2,0,16.8c0,4,0,8.1,0,12.1c0,1.5-0.8,2.5-2.2,2.9
			C47.3,47.3,47.3,47.3,47.2,47.4z M35.6,5.4c-0.3,0-0.5,0-0.7,0c-6.6,0-13.3,0-19.9,0c-1.3,0-1.8,0.5-1.8,1.8c0,6.6,0,13.2,0,19.8
			c0,5.3,0,10.7,0,16c0,0.5,0.1,1,0.5,1.2c0.3,0.2,0.7,0.3,1.1,0.3c10.1,0,20.3,0,30.4,0c1,0,1.6-0.6,1.6-1.6c0-8.7,0-17.3,0-26
			c0-0.1,0-0.3,0-0.4c-0.2,0-0.3,0-0.5,0c-3,0-6,0-9,0c-1.1,0-1.6-0.5-1.6-1.6c0-0.7,0-1.4,0-2.1C35.6,10.4,35.6,8,35.6,5.4z
			 M38.4,7.5c0,2.1,0,4.1,0,6.2c2.1,0,4.2,0,6.3,0C42.6,11.7,40.5,9.6,38.4,7.5z"/>
		<path id="XMLID_45_" class="st0" d="M30,33.4c-3.2,0-6.4,0-9.6,0c-0.6,0-1.1-0.2-1.4-0.8c-0.5-0.9,0.2-2,1.3-2c2.2,0,4.4,0,6.6,0
			c4.3,0,8.5,0,12.8,0c1.1,0,1.8,1,1.4,1.9c-0.3,0.6-0.8,0.8-1.4,0.8C36.4,33.4,33.2,33.4,30,33.4z"/>
		<path id="XMLID_44_" class="st0" d="M30,39c-3.2,0-6.4,0-9.6,0c-0.9,0-1.6-0.6-1.6-1.4c0-0.8,0.6-1.4,1.6-1.4c6.4,0,12.8,0,19.2,0
			c0.9,0,1.6,0.6,1.6,1.4c0,0.8-0.6,1.4-1.6,1.4C36.4,39,33.2,39,30,39z"/>
		<path id="XMLID_43_" class="st0" d="M30,25c3.2,0,6.3,0,9.5,0c0.2,0,0.4,0,0.6,0c0.7,0.1,1.2,0.8,1.1,1.5
			c-0.1,0.7-0.7,1.3-1.4,1.3c-2.1,0-4.3,0-6.4,0c-4.3,0-8.7,0-13,0c-1.1,0-1.8-0.9-1.4-1.9c0.2-0.6,0.7-0.9,1.4-0.9c3,0,5.9,0,8.9,0
			C29.5,25,29.7,25,30,25z"/>
		<path id="XMLID_42_" class="st0" d="M24.4,19.4c1.3,0,2.7,0,4,0c0.9,0,1.6,0.6,1.6,1.4c0,0.8-0.6,1.4-1.5,1.4c-2.7,0-5.4,0-8.1,0
			c-0.9,0-1.5-0.6-1.5-1.4c0-0.8,0.6-1.4,1.5-1.4C21.7,19.4,23,19.4,24.4,19.4z"/>
	</g>
</g>
</svg>
