<?xml version="1.0" encoding="utf-8"?>
<!-- Generator: Adobe Illustrator 19.1.0, SVG Export Plug-In . SVG Version: 6.00 Build 0)  -->
<svg version="1.1" id="Layer_1" xmlns="http://www.w3.org/2000/svg" xmlns:xlink="http://www.w3.org/1999/xlink" x="0px" y="0px"
	 viewBox="0 0 76 16.1" style="enable-background:new 0 0 76 16.1;" xml:space="preserve">
<style type="text/css">
	.st0{fill:#ED1B2F;}
</style>
<g>
	<polygon points="8.1,12.6 9.6,12.6 9.6,12.2 6,12.2 6,12.6 7.6,12.6 7.6,16 8.1,16 	"/>
	<g>
		<path d="M12.4,16h0.5v-1.5c0-0.9-0.5-1.3-1.3-1.3c-0.5,0-0.9,0.2-1.2,0.6v-1.6H10V16h0.5v-1.3c0-0.9,0.5-1.2,1.1-1.2
			c0.5,0,0.8,0.3,0.8,0.9V16z"/>
		<path d="M15.1,13.5c-0.5,0-0.9,0.3-1,0.9H16C16,13.8,15.6,13.5,15.1,13.5 M14.1,14.8c0.1,0.5,0.4,1,1,1c0.5,0,0.8-0.2,0.9-0.6h0.6
			c-0.1,0.7-0.8,0.9-1.4,0.9c-1,0-1.6-0.5-1.6-1.4c0-1,0.6-1.5,1.6-1.5c1,0,1.5,0.5,1.5,1.4v0.2H14.1z"/>
		<path d="M37,13.6c0.1,0,0.2,0,0.4,0v-0.5c-0.1,0-0.2,0-0.3,0c-0.5,0-0.8,0.3-1,0.6l0-0.5h-0.5c0,0.2,0,0.4,0,0.6V16H36v-1.3
			C36,14,36.4,13.6,37,13.6"/>
		<path d="M53,13.6c0.1,0,0.2,0,0.4,0v-0.5c-0.1,0-0.1,0-0.3,0c-0.5,0-0.8,0.3-1,0.6l0-0.5h-0.5c0,0.2,0,0.4,0,0.6V16h0.5v-1.3
			C52.1,14,52.4,13.6,53,13.6"/>
	</g>
	<polygon points="27.4,15.6 26.6,13.3 26,13.3 27,16 27.8,16 28.7,13.7 29.6,16 30.3,16 31.4,13.3 30.8,13.3 30,15.6 29,13.3 
		28.3,13.3 	"/>
	<g>
		<path d="M20.4,12.6h-1.1v1.5h1.1c0.7,0,0.9-0.3,0.9-0.8C21.4,12.9,21.2,12.6,20.4,12.6 M20.5,14.5h-1.2V16h-0.5v-3.8l1.6,0
			c1.2,0,1.6,0.5,1.6,1.1C22,14,21.5,14.5,20.5,14.5"/>
		<path d="M24,13.5c-0.7,0-1.1,0.4-1.1,1.1c0,0.6,0.4,1.1,1.1,1.1c0.7,0,1.1-0.5,1.1-1.1C25.1,14,24.7,13.5,24,13.5 M24,16.1
			c-1.1,0-1.7-0.5-1.7-1.5c0-0.9,0.6-1.5,1.7-1.5c1.1,0,1.7,0.5,1.7,1.5C25.6,15.5,25.1,16.1,24,16.1"/>
		<path d="M33.3,13.5c-0.5,0-0.9,0.3-1,0.9h1.9C34.2,13.8,33.7,13.5,33.3,13.5 M32.2,14.8c0.1,0.5,0.4,1,1,1c0.5,0,0.8-0.2,0.9-0.6
			h0.6c-0.1,0.7-0.8,0.9-1.4,0.9c-1,0-1.6-0.5-1.6-1.4c0-1,0.6-1.5,1.6-1.5c1,0,1.5,0.5,1.5,1.4v0.2H32.2z"/>
		<path d="M55.3,13.5c-0.5,0-0.9,0.3-1,0.9h1.9C56.2,13.8,55.8,13.5,55.3,13.5 M54.3,14.8c0.1,0.5,0.4,1,1,1c0.5,0,0.8-0.2,0.9-0.6
			h0.6c-0.1,0.7-0.8,0.9-1.4,0.9c-1,0-1.6-0.5-1.6-1.4c0-1,0.6-1.5,1.6-1.5c1,0,1.5,0.5,1.5,1.4v0.2H54.3z"/>
		<path d="M44.3,12.5c0.1,0,0.3,0,0.6,0.1v-0.4c-0.2,0-0.4-0.1-0.7-0.1c-0.8,0-1,0.4-1,1v0.1h-0.7v0.4h0.7V16h0.5v-2.3h1.1v-0.4
			h-1.1V13C43.7,12.6,43.9,12.5,44.3,12.5"/>
		<path d="M40.6,13.5c-0.7,0-1.1,0.4-1.1,1.1c0,0.6,0.4,1.1,1.1,1.1c0.7,0,1.1-0.5,1.1-1.1C41.7,14,41.4,13.5,40.6,13.5 M40.6,16.1
			c-1.1,0-1.7-0.5-1.7-1.5c0-0.9,0.6-1.5,1.7-1.5c1.1,0,1.7,0.5,1.7,1.5C42.3,15.5,41.7,16.1,40.6,16.1"/>
		<path d="M63.7,13.8c-0.2-0.5-0.6-0.7-1-0.7c-0.4,0-0.8,0.2-1,0.6l0-0.5h-0.5c0,0.2,0,0.4,0,0.6V16h0.5v-1.3c0-0.8,0.5-1.1,0.9-1.1
			c0.4,0,0.7,0.3,0.7,1.1V16h0.5v-1.3c0-0.9,0.6-1.1,0.9-1.1c0.5,0,0.7,0.4,0.7,1.1V16h0.5v-1.6c0-0.9-0.5-1.2-1.1-1.2
			C64.2,13.2,63.8,13.5,63.7,13.8"/>
		<path d="M67.9,16.1c1,0,1.5-0.3,1.5-0.9c0-0.4-0.2-0.6-0.7-0.7l-0.9-0.2c-0.4-0.1-0.6-0.2-0.6-0.4c0-0.3,0.3-0.4,0.8-0.4
			c0.4,0,0.7,0.1,0.8,0.4h0.5c0-0.6-0.7-0.8-1.3-0.8c-0.7,0-1.3,0.3-1.3,0.8c0,0.4,0.3,0.6,0.7,0.7l0.8,0.2c0.3,0.1,0.6,0.1,0.6,0.4
			c0,0.3-0.3,0.5-0.9,0.5c-0.5,0-0.8-0.1-0.9-0.5h-0.6C66.5,15.8,67.1,16.1,67.9,16.1"/>
		<path d="M48.5,12.6h-0.9v2.9h1c1.3,0,1.6-0.7,1.6-1.5C50.2,13.1,49.9,12.6,48.5,12.6 M48.7,16H47v-3.8h1.6c1.5,0,2.1,0.7,2.1,1.9
			C50.8,15.3,50,16,48.7,16"/>
		<path d="M59.8,14.8c0,0.7-0.4,0.9-1,0.9c-0.5,0-0.7-0.2-0.7-0.5c0-0.6,1.1-0.5,1.5-0.5h0.3V14.8z M59.8,16h0.5c0-0.2,0-0.3,0-0.5
			v-1.3c0-0.7-0.5-1-1.3-1c-0.6,0-1.3,0.2-1.3,0.8h0.6c0-0.3,0.3-0.4,0.8-0.4c0.5,0,0.8,0.2,0.8,0.7v0.1h-0.3c-0.6,0-2,0-2,0.9
			c0,0.5,0.5,0.9,1.1,0.9c0.5,0,0.9-0.1,1.2-0.5L59.8,16z"/>
		<path class="st0" d="M65.3,4.8h3.3L67,2.1L65.3,4.8z M59.8,9V7.8l1.2-0.1c0.4,0,0.6-0.4,0.6-0.5l2.9-4.7c0.2-0.4,0-0.7-0.3-0.7
			l-1.5-0.2V0.3h6.6c0.4,0,0.6,0.2,0.8,0.5l3.9,5.9c0.3,0.5,0.5,0.8,0.9,0.9L76,7.8V9h-7.5V7.8l0.9-0.1C70,7.6,70.4,7.4,70,6.8
			l-0.4-0.5h-5.3L63.9,7c-0.3,0.4,0,0.6,0.4,0.7l0.9,0.1V9H59.8z"/>
		<path class="st0" d="M53.5,7.3h-2.2V2h2.2c2.1,0,3,0.5,3,2.7C56.5,6.8,55.6,7.3,53.5,7.3 M54.8,0.3h-8.5v1.2l1.1,0.1
			c0.4,0.1,0.6,0.3,0.6,0.7V7c0,0.3-0.1,0.6-0.5,0.7l-1.1,0.1v1.1l8.5,0c3.9,0,5.6-1.9,5.6-4.4C60.4,2.3,58.8,0.3,54.8,0.3"/>
		<path class="st0" d="M0,9h6.9V7.8L5.7,7.7c-0.3,0-0.5-0.2-0.5-0.8V5.5h5.3v1.3c0,0.4-0.1,0.8-0.5,0.8L8.8,7.8V9h6.9V7.8l-1.2-0.1
			c-0.2,0-0.5-0.2-0.5-0.7V2.4c0-0.5,0.2-0.8,0.5-0.8l1.2-0.1V0.3H8.8v1.1L10,1.6c0.4,0.1,0.5,0.4,0.5,0.8v1.3H5.2V2.4
			c0-0.5,0.2-0.7,0.6-0.8l1.2-0.1V0.3H0v1.2l1.1,0.1C1.6,1.7,1.7,2,1.7,2.5v4.4c0,0.5-0.1,0.8-0.6,0.8L0,7.8V9z"/>
		<path class="st0" d="M23,1.7c-2,0-3.1,0.7-3.1,3c0,2.3,1.1,3,3.1,3c2,0,3.1-0.7,3.1-3C26.1,2.4,25,1.7,23,1.7 M16,4.6
			C16,1.9,18.2,0,23.1,0c4.8,0,7,1.9,7,4.6c0,2.8-2.2,4.7-7,4.7C18.2,9.3,16,7.4,16,4.6"/>
		<path class="st0" d="M30.5,9H36V7.8l-1.2-0.1c-0.3,0-0.5-0.3-0.5-0.7V2.6l4.6,6C39,8.8,39.3,9,39.5,9h4.3V2.4
			c0-0.3,0.1-0.7,0.5-0.8l1.2-0.1V0.3h-5.5v1.1l1.2,0.2c0.4,0.1,0.5,0.4,0.5,0.8v4.3l-4.5-6c-0.2-0.2-0.4-0.4-0.7-0.4h-6.1v1.2
			l1.2,0.1c0.4,0.1,0.6,0.3,0.6,0.8v4.4c0,0.5-0.1,0.8-0.6,0.8l-1.1,0.1V9z"/>
	</g>
</g>
</svg>
