<?xml version="1.0" encoding="utf-8"?>
<!-- Generator: Adobe Illustrator 19.0.0, SVG Export Plug-In . SVG Version: 6.00 Build 0)  -->
<svg version="1.1" id="Layer_1" xmlns="http://www.w3.org/2000/svg" xmlns:xlink="http://www.w3.org/1999/xlink" x="0px" y="0px"
	 viewBox="0 0 60 50" style="enable-background:new 0 0 60 50;" xml:space="preserve">
<style type="text/css">
	.st0{fill:#FFFFFF;}
</style>
<g id="fBR8mS.tif">
	<g id="XMLID_59_">
		<path id="XMLID_149_" class="st0" d="M21.9,26.2c-1,0.1-1.8,0.2-2.6,0.3c-1.2,0.2-2.5,0.5-3.7,0.7c-0.8,0.2-1.6,0.3-2.4,0.6
			c-1.9,0.6-3.7,1.2-5.5,1.9c-1.4,0.6-2.8,1.4-3.9,2.6C3,33.1,2.4,34,2.6,35.1c0.2,1,0.8,1.7,1.5,2.4c1.6,1.3,3.3,2.3,5.2,2.9
			c1.9,0.6,3.8,1.2,5.7,1.7c1.2,0.3,2.4,0.4,3.6,0.6c1.6,0.2,3.1,0.5,4.7,0.5c3.1,0.1,6.3,0.2,9.4,0.3c0.5,0,1,0,1.4,0
			c1.4-0.1,2.9-0.1,4.3-0.3c1.7-0.2,3.4-0.4,5.1-0.8c2.7-0.6,5.3-1.2,7.8-2.3c1.8-0.8,3.5-1.7,4.9-3.1c1.2-1.3,1.3-3.2,0-4.5
			c-1.4-1.4-3-2.4-4.8-3.1c-1.7-0.7-3.5-1.3-5.2-1.8c-1-0.3-2-0.4-3-0.6c-1.5-0.3-3-0.5-4.7-0.8c0.3-0.6,0.5-1.3,0.9-1.7
			c0.3-0.3,1-0.1,1.6,0c0.7,0.1,1.4,0.3,2.1,0.4c1.5,0.3,3,0.6,4.4,1c1.4,0.4,2.9,0.8,4.2,1.4c2.4,1,4.7,2.1,6.4,4.3
			c1.6,2,1.4,4.8-0.3,6.7c-1.6,1.7-3.5,2.8-5.6,3.7c-1.7,0.7-3.5,1.3-5.3,1.8c-1.4,0.4-2.9,0.6-4.3,0.9c-2.1,0.3-4.3,0.7-6.5,0.8
			c-3.4,0.2-6.7,0.2-10.1,0.2c-1.4,0-2.9-0.1-4.3-0.3c-1.8-0.2-3.6-0.4-5.3-0.8c-2-0.4-3.9-1-5.8-1.5c-2.3-0.6-4.5-1.6-6.5-2.9
			c-1.4-0.9-2.6-2-3.3-3.6c-0.6-1.4-0.4-2.8,0.3-4.2c1-1.8,2.7-3,4.5-3.9c1.9-0.9,3.9-1.7,6-2.3c1.7-0.5,3.4-0.8,5.1-1.1
			c1.2-0.2,2.5-0.4,3.8-0.6c0.1,0,0.4,0,0.4,0.1C21.3,25,21.5,25.6,21.9,26.2z"/>
		<path id="XMLID_146_" class="st0" d="M30.3,4.2c4.7,0.4,8.1,2.4,10,6.7c0.4,1,0.7,2.1,0.8,3.1c0.3,2.3-0.4,4.5-1.3,6.6
			c-0.7,1.9-1.5,3.8-2.5,5.6c-1.4,2.8-2.9,5.5-5.2,7.7c-0.4,0.4-0.9,0.7-1.4,0.9c-0.8,0.3-1.5-0.2-2.1-0.7c-1.7-1.4-2.8-3.1-3.9-5
			c-1.1-1.9-2.1-3.9-3-5.8c-0.6-1.3-1-2.7-1.5-4.1c-0.6-1.5-0.8-3.1-0.8-4.7c0.1-3.1,1.5-5.6,3.8-7.6c1.5-1.3,3.1-2.1,5.1-2.4
			C29.1,4.4,29.7,4.3,30.3,4.2z M21.5,15.1c0.1,0.8,0.2,1.5,0.4,2.3c0.4,1.5,0.9,3,1.5,4.4c0.7,1.7,1.6,3.4,2.4,5
			c1,1.9,2.1,3.7,3.6,5.3c0.8,0.8,0.8,0.8,1.6,0c1.9-2.2,3.4-4.8,4.7-7.4c1.1-2,2.1-4.1,2.7-6.4c0.3-1,0.6-2.1,0.7-3.1
			c0.1-1.1-0.2-2.3-0.7-3.4c-1.2-3.1-3.6-4.8-6.8-5.4C30.1,6.2,28.5,6.4,27,7C24,8.3,21.5,11.3,21.5,15.1z"/>
		<path id="XMLID_145_" class="st0" d="M34.6,32.4c0.4-0.5,0.8-1.1,1.2-1.6c0.1-0.1,0.3-0.2,0.5-0.1c1.5,0.2,3,0.5,4.4,0.7
			c1.3,0.2,2.5,0.7,3.6,1.4c1.4,0.9,1.6,2.6,0.1,3.7c-1.2,0.8-2.4,1.3-3.8,1.5c-1.8,0.3-3.6,0.7-5.4,0.8c-3.2,0.2-6.4,0.2-9.6,0.2
			c-1.8,0-3.7-0.4-5.5-0.7c-1.5-0.3-2.9-0.7-4.2-1.5c-0.8-0.5-1.4-1.2-1.3-2.3c0.1-1,0.8-1.5,1.5-1.9c1.3-0.7,2.7-1.2,4.1-1.4
			c1.3-0.2,2.7-0.4,4-0.6c0.2,0,0.4,0.1,0.5,0.2c0.4,0.5,0.7,1,1.1,1.6c-3.1,0.5-6.3,0.5-9.2,2.1c0,0.1,0,0.2,0,0.3
			c0.8,0.3,1.6,0.8,2.5,1c2,0.4,4,0.8,6.1,1c2.1,0.2,4.2,0.1,6.3,0.1c0.8,0,1.7,0,2.5-0.1c1.7-0.2,3.3-0.4,5-0.7
			c1.2-0.2,2.4-0.6,3.6-1.1c0.7-0.2,0.6-0.6,0-0.8c-0.9-0.4-1.9-0.7-2.9-0.9C38.1,33,36.4,32.8,34.6,32.4z"/>
		<path id="XMLID_139_" class="st0" d="M34.2,13.6c0.1,2.5-2,4.3-4.3,4.3c-2.5,0-4.3-1.9-4.3-4.3c0-2.3,2-4.3,4.3-4.3
			C32.2,9.2,34.4,11.2,34.2,13.6z M30,11.4c-1.2-0.2-2.3,1.3-2.3,2.2c0,1.1,1,2.2,2.2,2.3c1,0,2.3-0.9,2.2-2.2
			C32.1,12.3,31.3,11.4,30,11.4z"/>
	</g>
</g>
</svg>
