<?xml version="1.0" encoding="utf-8"?>
<!-- Generator: Adobe Illustrator 19.0.0, SVG Export Plug-In . SVG Version: 6.00 Build 0)  -->
<svg version="1.1" id="Layer_1" xmlns="http://www.w3.org/2000/svg" xmlns:xlink="http://www.w3.org/1999/xlink" x="0px" y="0px"
	 viewBox="-129 131 40 40" style="enable-background:new -129 131 40 40;" xml:space="preserve">
<style type="text/css">
	.st0{fill:#FFFFFF;}
</style>
<g id="KvQRxe.tif">
	<g>
		<path class="st0" d="M-90.3,143.8c0,4.8,0,9.6,0,14.4c-0.1,0.6-0.2,1.1-0.2,1.7c-0.3,5.4-4.3,9.6-9.8,9.7
			c-5.9,0.2-11.7,0.1-17.6,0c-4.8-0.1-8.5-3.4-9.5-8.1c-0.2-1-0.3-2-0.4-2.9c0-5,0-10,0-15c0.1-0.4,0.1-0.9,0.2-1.3
			c0.3-4.8,3.4-8.5,8-9.5c1-0.2,2-0.3,3-0.5c5,0,10,0,15,0c0.4,0.1,0.9,0.1,1.3,0.2c4.8,0.3,8.3,3.2,9.4,7.9
			C-90.5,141.5-90.4,142.6-90.3,143.8z M-93.8,151.1C-93.8,151.1-93.8,151.1-93.8,151.1c0-2.8,0.1-5.6,0-8.3
			c-0.1-2.4-0.9-4.6-3.1-5.7c-1.2-0.6-2.6-1.1-3.9-1.1c-5.4-0.1-10.9-0.1-16.3,0c-4.3,0.1-6.9,2.7-7,7c-0.1,5.4-0.1,10.9,0,16.3
			c0.1,4.3,2.7,6.9,7.1,7c5.4,0.1,10.8,0.1,16.2,0c4.4-0.1,6.9-2.7,7.1-7.1C-93.7,156.5-93.8,153.8-93.8,151.1z"/>
		<path class="st0" d="M-99.4,151.1c0,5.4-4.3,9.6-9.7,9.6c-5.3,0-9.6-4.3-9.6-9.6c0-5.4,4.2-9.6,9.6-9.6
			C-103.6,141.4-99.4,145.7-99.4,151.1z M-102.8,151.1c0-3.5-2.7-6.3-6.2-6.3c-3.5,0-6.2,2.7-6.2,6.2c0,3.4,2.7,6.2,6.1,6.2
			C-105.6,157.3-102.8,154.6-102.8,151.1z"/>
		<path class="st0" d="M-96.8,141c0,1.3-1,2.3-2.2,2.3c-1.2,0-2.3-1-2.3-2.2c0-1.2,1-2.2,2.2-2.3C-97.7,138.8-96.8,139.8-96.8,141z"
			/>
	</g>
</g>
</svg>
