<?xml version="1.0" encoding="utf-8"?>
<!-- Generator: Adobe Illustrator 19.0.0, SVG Export Plug-In . SVG Version: 6.00 Build 0)  -->
<svg version="1.1" id="Layer_1" xmlns="http://www.w3.org/2000/svg" xmlns:xlink="http://www.w3.org/1999/xlink" x="0px" y="0px"
	 viewBox="-118 131 19.6 40" style="enable-background:new -118 131 19.6 40;" xml:space="preserve">
<style type="text/css">
	.st0{fill:#FFFFFF;}
</style>
<g id="aUXTvb.tif">
	<g id="XMLID_4_">
		<path id="XMLID_22_" class="st0" d="M-99.6,132.4c0,2.1,0,4.1,0,6.4c-0.9,0-2,0-2.9,0c-2.5,0-2.9,0.4-2.9,3c0,0.9,0,1.8,0,2.9
			c2,0,3.7,0,5.7,0c-0.1,0-0.1,6.2,0,6.2c-1.6,0-4.1,0-5.7,0c0,6.2,0,12.3,0,18.6c-2.3,0-4.6,0-7,0c0-6.1,0-12.3,0-18.6
			c-1.6,0-3,0-4.5,0c0-2.1,0-4.1,0-6.2c1.4,0,3,0,4.6,0c0-0.5,0-0.9,0-1.4c0.2-2,0-3.9,0.4-5.7c0.5-2.9,2.3-4.5,5.2-4.8
			c0.2,0,0.5-0.2,0.7-0.2C-103.9,132.4-101.8,132.4-99.6,132.4z"/>
	</g>
</g>
</svg>
