<?xml version="1.0" encoding="utf-8"?>
<!-- Generator: Adobe Illustrator 19.0.0, SVG Export Plug-In . SVG Version: 6.00 Build 0)  -->
<svg version="1.1" id="Layer_1" xmlns="http://www.w3.org/2000/svg" xmlns:xlink="http://www.w3.org/1999/xlink" x="0px" y="0px"
	 viewBox="0 0 165 123.8" style="enable-background:new 0 0 165 123.8;" xml:space="preserve">
<style type="text/css">
	.st0{fill:#FFFFFF;}
</style>
<g id="INhtGg.tif">
	<g id="XMLID_1_">
		<path id="XMLID_31_" class="st0" d="M82.9,1.3C101.4,2,120,2.6,138.5,3.5c3.5,0.2,7.2,1.1,10.4,2.4c4.7,1.9,7.8,5.7,9.8,10.4
			c2.8,6.8,3.7,14,3.9,21.2c0.4,14.2,0.6,28.3,0.4,42.5c-0.1,7.7-0.5,15.5-2.6,23c-3.3,11.9-9.7,17.1-22.1,17.9
			c-30.2,1.9-60.4,2.1-90.6,0.9c-8.1-0.3-16.3-0.8-24.4-1.7c-8.6-1-14.4-5.8-17.2-14.2c-2-6-2.6-12.3-3.1-18.5
			C1.8,72.7,1.8,58,2.5,43.3c0.4-7.6,0.6-15.2,2.8-22.6C8.5,9.5,15.1,4,26.8,3.4C45.5,2.6,64.2,2,82.9,1.3z M62.7,92.3
			C79.6,82.2,96.2,72.2,113,62.1C96.1,52,79.5,42.1,62.7,32C62.7,52.2,62.7,72,62.7,92.3z"/>
	</g>
</g>
</svg>
