<?xml version="1.0" encoding="utf-8"?>
<!-- Generator: Adobe Illustrator 19.0.0, SVG Export Plug-In . SVG Version: 6.00 Build 0)  -->
<svg version="1.1" id="Layer_1" xmlns="http://www.w3.org/2000/svg" xmlns:xlink="http://www.w3.org/1999/xlink" x="0px" y="0px"
	 viewBox="0 0 60 50" style="enable-background:new 0 0 60 50;" xml:space="preserve">
<style type="text/css">
	.st0{fill:#5CA100;}
</style>
<g id="XMLID_7_">
	<path id="XMLID_14_" class="st0" d="M30,2C17.3,2,7,12.3,7,25c0,12.7,10.3,23,23,23s23-10.3,23-23C53,12.3,42.7,2,30,2z M40.5,17
		c-0.8,1.1-1.7,2.3-2.5,3.4c-1.1,1.5-2.2,2.9-3.2,4.4c-0.9,1.2-1.9,2.5-2.8,3.7c-0.8,1.1-1.6,2.2-2.5,3.4c-0.7,0.9-1.4,1.8-2,2.7
		c-0.1,0.2-0.2,0.4-0.4,0.5c-0.4,0.4-1.2,0.3-1.5-0.2c-0.6-0.9-1.2-1.8-1.8-2.7c-0.7-1-1.4-2.1-2.2-3.1c-0.7-1-1.4-2.1-2.1-3.1
		c-0.4-0.5-0.4-1.2,0.2-1.6c0.4-0.3,0.8-0.7,1.5-0.8c0.2,0.1,0.5,0.2,0.7,0.3c0.9,0.7,1.7,1.3,2.5,2c0.6,0.5,1.2,0.9,1.8,1.4
		c0.1,0.1,0.2,0.1,0.3,0c1.3-1.3,2.5-2.7,3.8-4c1.3-1.4,2.5-2.7,3.8-4.1c1.2-1.2,2.3-2.5,3.5-3.7c0.3-0.3,0.5-0.5,0.8-0.8
		c0.2-0.2,0.5-0.3,0.8-0.1c0.5,0.3,1,0.6,1.3,1C40.9,16.2,40.9,16.5,40.5,17z"/>
</g>
</svg>
