<?xml version="1.0" encoding="utf-8"?>
<!-- Generator: Adobe Illustrator 19.0.0, SVG Export Plug-In . SVG Version: 6.00 Build 0)  -->
<svg version="1.1" id="Layer_1" xmlns="http://www.w3.org/2000/svg" xmlns:xlink="http://www.w3.org/1999/xlink" x="0px" y="0px"
	 viewBox="0 0 225 180" style="enable-background:new 0 0 225 180;" xml:space="preserve">
<style type="text/css">
	.st0{opacity:0.2;fill:#1D2E44;}
	.st1{fill:#1D2E44;}
</style>
<path id="XMLID_2_" class="st0" d="M175,75c0-5-4-9-9-9H14c-5,0-9,4-9,9v91c0,5,4,9,9,9h152c5,0,9-4,9-9V75z M11,166V75.5
	c0-1.7,1.8-2.5,3.4-2.5H145v96H14.4C12.8,169,11,167.7,11,166z"/>
<g id="VAwmSd.tif">
	<g id="XMLID_4_">
		<path id="XMLID_23_" class="st1" d="M68.1,31.8c-1.6,0.2-3.1,0.6-4.5,1.2c-7.3,3-11.8,8.4-13.4,16.2c-0.3,1.7-0.3,3.4-0.3,5.2
			c0,0.7-0.5,1.2-1.1,1c-0.3-0.1-0.5-0.3-0.7-0.6c-1.3-2.4-2.1-4.9-2.5-7.6c-0.6-4.1-0.2-8.1,1.4-12c3.2-7.6,8.9-12.3,17-14.1
			c1.2-0.3,2.4-0.3,3.7-0.5c0.3,0,0.4-0.1,0.4-0.5c0-1.9,0-3.8,0-5.6c0-0.4,0.1-0.8,0.5-1.1c0.4-0.2,0.8-0.1,1.1,0.2
			c6,3.9,12.1,7.7,18.1,11.6c0.7,0.4,0.9,0.8,0.6,1.3c-0.1,0.2-0.3,0.4-0.4,0.5c-6.1,4.2-12.3,8.4-18.4,12.6
			c-0.3,0.2-0.7,0.3-1.1,0.1c-0.4-0.2-0.5-0.6-0.5-1c0-2.1,0-4.2,0-6.4C68.1,32.2,68.1,32,68.1,31.8z"/>
	</g>
</g>
<path id="XMLID_27_" class="st1" d="M220,14c0-5-4-9-9-9h-91c-5,0-9,4-9,9v152c0,5,4,9,9,9h91c5,0,9-4,9-9V14z M119.8,11h90.5
	c1.7,0,2.7,1.3,2.7,2.9V145h-96V13.9C117,12.3,118.1,11,119.8,11z"/>
</svg>
