<?xml version="1.0" encoding="utf-8"?>
<!-- Generator: Adobe Illustrator 19.0.0, SVG Export Plug-In . SVG Version: 6.00 Build 0)  -->
<svg version="1.1" id="Layer_1" xmlns="http://www.w3.org/2000/svg" xmlns:xlink="http://www.w3.org/1999/xlink" x="0px" y="0px"
	 viewBox="-129 131 40 40" style="enable-background:new -129 131 40 40;" xml:space="preserve">
<style type="text/css">
	.st0{fill:#FFFFFF;}
</style>
<path id="XMLID_21_" class="st0" d="M-96,157.3c-3.1,0-5.7,2.1-6.5,4.9l-13.3-7.7c0.3-0.8,0.5-1.6,0.5-2.5c0-0.4,0-0.7-0.1-1
	l14.4-8.4c1.2,1.3,3,2.1,4.9,2.1c3.7,0,6.7-3,6.7-6.7s-3-6.7-6.7-6.7s-6.7,3-6.7,6.7c0,0.9,0.2,1.7,0.5,2.5l-14,8.1
	c-1.2-2-3.3-3.3-5.8-3.3c-3.7,0-6.7,3-6.7,6.7s3,6.7,6.7,6.7c1.9,0,3.7-0.8,4.9-2.2l14.4,8.3c0.4,3.3,3.3,5.8,6.7,5.8
	c3.7,0,6.7-3,6.7-6.7C-89.2,160.3-92.2,157.3-96,157.3z M-96,133.8c2.3,0,4.2,1.9,4.2,4.2s-1.9,4.2-4.2,4.2s-4.2-1.8-4.2-4.2
	S-98.3,133.8-96,133.8z M-122,156.3c-2.3,0-4.2-1.9-4.2-4.2c0-2.3,1.9-4.2,4.2-4.2s4.2,1.9,4.2,4.2
	C-117.8,154.4-119.6,156.3-122,156.3z M-96,168.3c-2.3,0-4.2-1.9-4.2-4.2c0-2.3,1.9-4.2,4.2-4.2s4.2,1.9,4.2,4.2
	C-91.8,166.4-93.6,168.3-96,168.3z"/>
</svg>
