<?xml version="1.0" encoding="utf-8"?>
<!-- Generator: Adobe Illustrator 19.0.0, SVG Export Plug-In . SVG Version: 6.00 Build 0)  -->
<svg version="1.1" id="Layer_1" xmlns="http://www.w3.org/2000/svg" xmlns:xlink="http://www.w3.org/1999/xlink" x="0px" y="0px"
	 viewBox="0 0 193.2 42.8" style="enable-background:new 0 0 193.2 42.8;" xml:space="preserve">
<style type="text/css">
	.st0{fill:#1AA8E4;}
	.st1{fill:#FFFFFF;}
</style>
<g id="XMLID_58_">
	<path id="XMLID_62_" class="st0" d="M192.6,37.6c0,2.8-2.2,5-5,5H5.6c-2.8,0-5-2.2-5-5V5.2c0-2.8,2.2-5,5-5h182c2.8,0,5,2.2,5,5
		V37.6z"/>
	<g id="XMLID_61_">
		<path id="XMLID_64_" class="st1" d="M52.4,24.9l0.9-1.3c0.6,0.6,1.4,1.1,2.5,1.1c0.9,0,1.4-0.4,1.4-0.9c0-1.4-4.6-0.4-4.6-3.4
			c0-1.3,1.2-2.4,3-2.4c1.3,0,2.3,0.4,3.1,1.1l-0.9,1.3c-0.6-0.6-1.5-0.9-2.3-0.9c-0.7,0-1.1,0.3-1.1,0.8c0,1.3,4.6,0.4,4.6,3.4
			c0,1.5-1.1,2.6-3.2,2.6C54.2,26.2,53.1,25.7,52.4,24.9z"/>
		<path id="XMLID_66_" class="st1" d="M65.6,26v-3.4h-3.8V26h-1.7v-8h1.7v3.1h3.8V18h1.7v8H65.6z"/>
		<path id="XMLID_68_" class="st1" d="M74.4,26l-0.5-1.4h-3.4L70,26h-1.9l3.1-8h2.1l3.1,8H74.4z M72.2,19.7L71,23.2h2.5L72.2,19.7z"
			/>
		<path id="XMLID_71_" class="st1" d="M81.6,26l-1.6-2.8h-1.2V26h-1.7v-8h3.7c1.7,0,2.7,1.1,2.7,2.6c0,1.4-0.9,2.2-1.8,2.4l1.8,3
			H81.6z M81.8,20.6c0-0.7-0.5-1.1-1.2-1.1h-1.8v2.2h1.8C81.3,21.7,81.8,21.3,81.8,20.6z"/>
		<path id="XMLID_74_" class="st1" d="M84.8,26v-8h5.7v1.5h-4v1.7h3.9v1.5h-3.9v1.8h4V26H84.8z"/>
		<path id="XMLID_76_" class="st1" d="M94.5,22c0-2.4,1.8-4.1,4.2-4.1c2.4,0,4.2,1.7,4.2,4.1c0,2.4-1.8,4.1-4.2,4.1
			C96.3,26.2,94.5,24.5,94.5,22z M101.1,22c0-1.5-0.9-2.6-2.4-2.6c-1.5,0-2.4,1.1-2.4,2.6c0,1.5,0.9,2.6,2.4,2.6
			C100.2,24.7,101.1,23.5,101.1,22z"/>
		<path id="XMLID_79_" class="st1" d="M109.6,26l-3.8-5.2V26h-1.7v-8h1.8l3.7,5v-5h1.7v8H109.6z"/>
		<path id="XMLID_81_" class="st1" d="M117.8,26v-6.5h-2.3V18h6.4v1.5h-2.3V26H117.8z"/>
		<path id="XMLID_83_" class="st1" d="M129,26l-1.4-5.5l-1.4,5.5h-1.8l-2.3-8h1.9l1.4,5.8L127,18h1.3l1.5,5.8l1.4-5.8h1.9l-2.3,8
			H129z"/>
		<path id="XMLID_85_" class="st1" d="M133.9,26v-8h1.7v8H133.9z"/>
		<path id="XMLID_87_" class="st1" d="M139.1,26v-6.5h-2.3V18h6.4v1.5h-2.3V26H139.1z"/>
		<path id="XMLID_89_" class="st1" d="M146,26v-6.5h-2.3V18h6.4v1.5h-2.3V26H146z"/>
		<path id="XMLID_91_" class="st1" d="M151.2,26v-8h5.7v1.5h-4v1.7h3.9v1.5h-3.9v1.8h4V26H151.2z"/>
		<path id="XMLID_93_" class="st1" d="M162.7,26l-1.6-2.8h-1.2V26h-1.7v-8h3.7c1.7,0,2.7,1.1,2.7,2.6c0,1.4-0.9,2.2-1.8,2.4l1.8,3
			H162.7z M162.9,20.6c0-0.7-0.5-1.1-1.2-1.1h-1.8v2.2h1.8C162.4,21.7,162.9,21.3,162.9,20.6z"/>
	</g>
	<g id="txmKt2.tif">
		<g id="XMLID_59_">
			<path id="XMLID_60_" class="st1" d="M19.2,27.4c2.1,0.1,3.8-0.3,5.4-1.5c-0.7-0.3-1.4-0.5-2-1c-0.6-0.4-1-1.1-1.5-1.6
				c0.1-0.1,0.1-0.1,0.2-0.2c0.4,0,0.8,0,1.2-0.1c-1.6-0.8-2.6-2-2.7-3.9c0.5,0.1,1,0.3,1.7,0.5c-1.7-1.5-2.1-3.2-1.2-5.2
				c2.2,2.4,4.7,3.8,8,4c0-0.4,0-0.8,0-1.1c0.1-1.5,0.9-2.7,2.3-3.3c1.4-0.6,2.7-0.5,3.9,0.5c0.4,0.3,0.8,0.4,1.2,0.2
				c0.5-0.2,1-0.4,1.7-0.5c-0.4,0.6-0.9,1.2-1.4,1.8c0.6-0.2,1.1-0.3,1.9-0.5c-0.5,0.5-0.8,1-1.2,1.3c-0.6,0.5-0.7,1-0.8,1.8
				c-0.3,3.6-1.8,6.6-4.8,8.6c-3.7,2.5-7.7,2.4-11.6,0.4C19.5,27.6,19.4,27.5,19.2,27.4z"/>
		</g>
	</g>
</g>
</svg>
