<svg xmlns="http://www.w3.org/2000/svg" xmlns:xlink="http://www.w3.org/1999/xlink" viewBox="0 0 47.6 54.76"><defs><style>.cls-1{isolation:isolate;}.cls-2{fill:#d9dada;}.cls-3{fill:url(#radial-gradient);}.cls-4{fill:#dddedf;}.cls-5{opacity:0.24;mix-blend-mode:multiply;}.cls-6{fill:none;stroke:#dddedf;stroke-miterlimit:10;stroke-width:0.5px;}</style><radialGradient id="radial-gradient" cx="52.07" cy="49.97" r="42.44" gradientUnits="userSpaceOnUse"><stop offset="0" stop-color="#ef2546"/><stop offset="1" stop-color="#e00017"/></radialGradient></defs><title>Asset 1</title><g class="cls-1"><g id="Layer_2" data-name="Layer 2"><g id="Layer_1-2" data-name="Layer 1"><rect class="cls-2" x="2.37" y="5.21" width="36.54" height="47.79" transform="translate(-2.89 2.28) rotate(-5.92)"/><polygon class="cls-3" points="38.48 0.11 8.48 0.11 8.48 51.11 47.48 51.11 47.48 9.11 38.48 0.11"/><polygon class="cls-4" points="47.6 9 38.6 9 38.6 0 47.6 9"/><polygon class="cls-5" points="38.6 9 47.6 12 47.6 9 38.6 9"/><rect class="cls-6" x="12.81" y="8.38" width="8" height="8"/><path class="cls-4" d="M12.31,11.38a1.44,1.44,0,0,1,.46.1l.32.13a5.5,5.5,0,0,1,.54.32,9.69,9.69,0,0,1,.92.75,18.57,18.57,0,0,1,1.54,1.67H14.51c.67-.92,1.36-1.74,2.08-2.56s1.47-1.61,2.26-2.37a26.27,26.27,0,0,1,5.2-4,.5.5,0,0,1,.52.86h0a25.1,25.1,0,0,0-4.67,4.13c-.7.78-1.37,1.59-2,2.42s-1.26,1.7-1.79,2.55l-.78,1.22-.81-1.22h0a16.18,16.18,0,0,0-1-1.77,8,8,0,0,0-.62-.77c-.11-.11-.22-.22-.33-.31a1.67,1.67,0,0,0-.16-.12s-.14,0,0-.06a.5.5,0,0,1-.5-.5A.5.5,0,0,1,12.31,11.38Z"/><rect class="cls-4" x="23.81" y="10.38" width="15" height="1.94"/><rect class="cls-4" x="23.81" y="14.44" width="11.67" height="0.94"/><rect class="cls-6" x="12.81" y="23.38" width="8" height="8"/><path class="cls-4" d="M12.31,26.38a1.44,1.44,0,0,1,.46.1l.32.13a5.5,5.5,0,0,1,.54.32,9.69,9.69,0,0,1,.92.75,18.57,18.57,0,0,1,1.54,1.67H14.51c.67-.92,1.36-1.74,2.08-2.56s1.47-1.61,2.26-2.37a26.27,26.27,0,0,1,5.2-4,.5.5,0,0,1,.52.86h0a25.1,25.1,0,0,0-4.67,4.13c-.7.78-1.37,1.59-2,2.42s-1.26,1.7-1.79,2.55l-.78,1.22-.81-1.22h0a16.18,16.18,0,0,0-1-1.77,8,8,0,0,0-.62-.77c-.11-.11-.22-.22-.33-.31a1.67,1.67,0,0,0-.16-.12s-.14-.05,0-.06a.5.5,0,0,1-.5-.5A.5.5,0,0,1,12.31,26.38Z"/><rect class="cls-4" x="23.81" y="25.38" width="15" height="1.94"/><rect class="cls-4" x="23.81" y="29.44" width="11.67" height="0.94"/><rect class="cls-6" x="12.81" y="38.38" width="8" height="8"/><path class="cls-4" d="M12.31,41.38a1.44,1.44,0,0,1,.46.1l.32.13a5.5,5.5,0,0,1,.54.32,9.69,9.69,0,0,1,.92.75,18.57,18.57,0,0,1,1.54,1.67H14.51c.67-.92,1.36-1.74,2.08-2.56s1.47-1.61,2.26-2.37a26.27,26.27,0,0,1,5.2-4,.5.5,0,0,1,.52.86h0a25.1,25.1,0,0,0-4.67,4.13c-.7.78-1.37,1.59-2,2.42s-1.26,1.7-1.79,2.55l-.78,1.22-.81-1.22h0a16.18,16.18,0,0,0-1-1.77,8,8,0,0,0-.62-.77c-.11-.11-.22-.22-.33-.31a1.67,1.67,0,0,0-.16-.12s-.14,0,0-.06a.5.5,0,0,1-.5-.5A.5.5,0,0,1,12.31,41.38Z"/><rect class="cls-4" x="23.81" y="40.38" width="15" height="1.94"/><rect class="cls-4" x="23.81" y="44.44" width="11.67" height="0.94"/></g></g></g></svg>